<svg  viewBox="0 0 207 104" fill="none" xmlns="http://www.w3.org/2000/svg">
<path d="M13.0993 10C11.3653 47.6828 32.0058 128.701 101.487 61.3429C143.554 26.0152 175.222 109.86 205 99.0257" stroke="#070707" stroke-width="3" stroke-linecap="round" stroke-linejoin="round" stroke-dasharray="6 9"/>
<path d="M1.11261 14.1768C0.502113 14.6602 0.496618 15.448 1.10072 15.9369C1.70525 16.4264 2.69205 16.4308 3.30358 15.9465L11.5864 9.38428C12.4041 8.7362 13.7376 8.78065 14.485 9.48024L22.0622 16.5689C22.6212 17.0922 23.6051 17.1535 24.2587 16.7062C24.9128 16.259 24.9887 15.4722 24.4297 14.9488L14.6754 5.8271C13.9272 5.12785 12.5944 5.08356 11.7769 5.73113L1.11261 14.1768Z" fill="black"/>
</svg>
