<?xml version="1.0" encoding="utf-8"?>
<!-- Generator: Adobe Illustrator 16.0.0, SVG Export Plug-In . SVG Version: 6.00 Build 0)  -->
<!DOCTYPE svg PUBLIC "-//W3C//DTD SVG 1.1//EN" "http://www.w3.org/Graphics/SVG/1.1/DTD/svg11.dtd">
<svg version="1.1" id="arrow" fill="#232323" xmlns="http://www.w3.org/2000/svg"
    xmlns:xlink="http://www.w3.org/1999/xlink" x="0px" y="0px" width="321px" height="149px" viewBox="0 0 321 149"
    enable-background="new 0 0 321 149" xml:space="preserve">
    <g class='arr_ele'>

    </g>>
    <path class='arr_ele' id="arr_head" d="M11.655,35.75c-0.599,1.155-0.149,2.577,1.006,3.177l0,0c1.156,0.601,2.581,0.15,3.181-1.007l8.125-15.676
		c0.802-1.548,2.75-2.088,4.234-1.175l15.043,9.249c1.11,0.683,2.564,0.336,3.246-0.774l0,0c0.683-1.11,0.335-2.563-0.775-3.246
		l-19.363-11.9c-1.485-0.912-3.432-0.372-4.234,1.175L11.655,35.75z" />
    <path class='arr_ele' d="M23.262,20.546c-0.34-1.255,0.406-2.547,1.662-2.885l0,0c1.258-0.338,2.551,0.408,2.892,1.665
		c0.53,1.955,1.069,3.911,1.621,5.867c0.354,1.253-0.368,2.56-1.62,2.92l0,0c-1.251,0.36-2.559-0.362-2.913-1.616
		C24.345,24.514,23.798,22.529,23.262,20.546z" />

    <path class='arr_ele' d="M29.47,41.451c-0.414-1.234,0.265-2.563,1.502-2.966l0,0c1.238-0.403,2.567,0.276,2.981,1.51
	c0.638,1.904,1.299,3.796,1.987,5.674c0.448,1.223-0.162,2.583-1.378,3.047l0,0c-1.217,0.463-2.581-0.147-3.029-1.371
	C30.818,45.394,30.132,43.428,29.47,41.451z" />
    <path class='arr_ele' d="M37.607,61.839c-0.565-1.172-0.046-2.574,1.136-3.118l0,0c1.182-0.544,2.58-0.026,3.145,1.147
	c0.875,1.817,1.777,3.58,2.697,5.275c0.622,1.144,0.229,2.583-0.902,3.228l0,0c-1.131,0.644-2.572,0.25-3.193-0.893
	C39.506,65.667,38.542,63.782,37.607,61.839z" />
    <path class='arr_ele' d="M49.008,80.77c-0.787-1.039-0.543-2.514,0.515-3.274l0,0c1.057-0.759,2.526-0.517,3.313,0.52
	c1.498,1.97,3.065,3.858,4.672,5.638l0,0c0.324,0.354,0.301,0.903-0.051,1.229l-2.146,1.986c-0.374,0.346-0.958,0.322-1.302-0.054
	l0,0C52.284,84.906,50.609,82.881,49.008,80.77z" />
    <path class='arr_ele' d="M64.8,96.477c-1.054-0.765-1.237-2.248-0.438-3.276l0,0c0.798-1.027,2.277-1.21,3.332-0.448
	c1.556,1.122,3.165,2.183,4.815,3.173c1.116,0.669,1.529,2.1,0.899,3.238l0,0c-0.631,1.139-2.068,1.555-3.186,0.887
	C68.361,98.939,66.547,97.744,64.8,96.477z" />
    <path class='arr_ele' d="M84.686,106.636c-1.238-0.401-1.87-1.756-1.426-2.979l0,0c0.443-1.223,1.794-1.852,3.033-1.453
	c1.835,0.588,3.682,1.086,5.523,1.49c1.272,0.279,2.13,1.496,1.904,2.779l0,0c-0.226,1.282-1.45,2.144-2.723,1.868
	C88.891,107.885,86.781,107.314,84.686,106.636z" />
    <path class='arr_ele' d="M104.517,107.314c-0.033-1.301,0.998-2.377,2.296-2.476c1.878-0.142,3.723-0.397,5.519-0.766
	c1.276-0.261,2.565,0.481,2.899,1.739l0,0c0.333,1.26-0.416,2.556-1.689,2.824c-2.151,0.454-4.363,0.762-6.611,0.922
	C105.632,109.652,104.549,108.617,104.517,107.314L104.517,107.314z" />
    <path class='arr_ele' d="M125.235,101.719c-0.647-1.13-0.249-2.566,0.839-3.282c0.101-0.065,0.201-0.133,0.301-0.2
	c1.416-0.947,2.779-1.986,4.128-3.147c0.987-0.849,2.474-0.813,3.369,0.133l0,0c0.894,0.946,0.856,2.441-0.127,3.294
	c-1.547,1.342-3.138,2.563-4.749,3.641c-0.192,0.129-0.385,0.256-0.579,0.382C127.325,103.245,125.881,102.85,125.235,101.719
	L125.235,101.719z" />
    <path class='arr_ele' d="M141.039,87.115c-1.035-0.789-1.233-2.265-0.472-3.319c1.061-1.47,2.163-3.078,3.355-4.896
	c0.714-1.09,2.171-1.411,3.267-0.71l0,0c1.097,0.702,1.419,2.161,0.705,3.249c-1.269,1.936-2.443,3.646-3.576,5.211
	C143.555,87.704,142.074,87.903,141.039,87.115L141.039,87.115z" />
    <path class='arr_ele' d="M152.926,68.98c-1.106-0.688-1.446-2.142-0.75-3.243c1.058-1.673,2.211-3.458,3.43-5.25
	c0.732-1.076,2.204-1.327,3.267-0.576l0,0c1.062,0.752,1.313,2.222,0.581,3.298c-1.159,1.708-2.262,3.415-3.277,5.02
	C155.482,69.329,154.031,69.667,152.926,68.98L152.926,68.98z" />
    <path class='arr_ele' d="M165.68,51.479c-0.947-0.893-0.996-2.389-0.065-3.3c1.645-1.611,3.315-3.046,5.042-4.332
	c1.044-0.777,2.511-0.48,3.232,0.603l0,0c0.721,1.083,0.424,2.54-0.613,3.324c-1.44,1.087-2.84,2.294-4.227,3.642
	C168.115,52.323,166.627,52.373,165.68,51.479L165.68,51.479z" />
    <path class='arr_ele' d="M183.607,39.728c-0.401-1.238,0.274-2.573,1.533-2.905c2.139-0.565,4.354-0.971,6.618-1.211
	c1.294-0.138,2.407,0.863,2.48,2.163l0,0c0.073,1.301-0.925,2.407-2.22,2.551c-1.854,0.208-3.664,0.539-5.42,0.989
	C185.338,41.638,184.009,40.966,183.607,39.728L183.607,39.728z" />
    <path class='arr_ele' d="M207.025,41.055c-1.279-0.241-2.168-1.438-1.977-2.726l0,0c0.193-1.289,1.395-2.18,2.676-1.942
	c2.049,0.382,4.155,0.869,6.299,1.458c1.256,0.345,1.957,1.666,1.578,2.912l0,0c-0.379,1.246-1.695,1.944-2.953,1.602
	C210.732,41.836,208.854,41.4,207.025,41.055z" />
    <path class='arr_ele' d="M227.039,47.583c-1.191-0.526-1.756-1.906-1.252-3.106l0,0c0.504-1.202,1.888-1.769,3.081-1.243
	c1.856,0.819,3.746,1.701,5.704,2.663c1.169,0.574,1.633,1.995,1.043,3.157l0,0c-0.59,1.161-2.008,1.624-3.176,1.05
	C230.584,49.193,228.795,48.358,227.039,47.583z" />
    <path class='arr_ele' d="M246.039,57.409c-1.125-0.644-1.52-2.077-0.881-3.206l0,0c0.643-1.138,2.089-1.536,3.224-0.887l0.628,0.36
	c1.531,0.884,3.088,1.772,4.662,2.654c1.135,0.635,1.551,2.066,0.926,3.207l0,0c-0.625,1.142-2.06,1.56-3.197,0.925
	c-1.605-0.897-3.192-1.802-4.754-2.705L246.039,57.409z" />
    <path class='arr_ele' d="M265.324,67.663c-1.18-0.55-1.67-1.961-1.104-3.133l0,0c0.567-1.172,1.977-1.66,3.156-1.11
	c1.871,0.872,3.675,1.666,5.441,2.395c1.205,0.497,1.807,1.86,1.334,3.074l0,0c-0.471,1.213-1.838,1.815-3.041,1.32
	C269.23,69.433,267.313,68.59,265.324,67.663z" />
    <path class='arr_ele' d="M286.15,75.096c-1.271-0.289-2.026-1.582-1.697-2.842l0,0c0.328-1.26,1.613-2.01,2.883-1.724
	c1.924,0.434,3.811,0.774,5.645,1.018c1.293,0.171,2.252,1.313,2.136,2.611l0,0c-0.116,1.294-1.261,2.255-2.55,2.089
	C290.48,75.979,288.336,75.594,286.15,75.096z" />
    <path class='arr_ele' d="M305.932,73.946c-0.178-1.291,0.727-2.474,2.004-2.728c1.812-0.361,3.582-0.847,5.299-1.453
	c1.227-0.433,2.608,0.117,3.119,1.313l0,0c0.512,1.198-0.045,2.59-1.27,3.033c-2.104,0.76-4.277,1.358-6.505,1.786
	C307.301,76.142,306.111,75.234,305.932,73.946L305.932,73.946z" />

</svg>