<svg id="bubble" width="329" height="286" viewBox="0 0 329 286" fill="none" xmlns="http://www.w3.org/2000/svg">
    <path d="M47.022 235.023L70.307 247.081L48.233 261.221L47.022 235.023Z" fill="#EBB941" />
    <path
        d="M316.357 190.165C319.185 191.202 320.644 194.336 319.608 197.159C318.581 199.994 315.446 201.452 312.618 200.418C309.782 199.383 308.328 196.25 309.363 193.422C310.391 190.59 313.525 189.135 316.357 190.165Z"
        fill="#EBB941" />
    <path
        d="M283.389 258.185C278.842 247.084 280.631 229.869 287.359 219.943C287.359 219.943 312.114 183.391 312.114 148.434C312.114 78.314 255.273 21.469 185.149 21.469C115.031 21.469 58.185 78.314 58.185 148.434C58.185 218.558 115.032 275.397 185.149 275.397C198.781 275.397 203.005 274.377 203.005 274.377C214.666 271.558 233.612 272.043 245.114 275.461L275.817 284.58C287.315 287.992 293.004 281.702 288.468 270.601L283.389 258.185Z"
        fill="#EBD2FF" />
    <path d="M21.423 166.492L54.673 209.605L0.716995 216.851L21.423 166.492Z" fill="#621A9A" />
    <path
        d="M323.832 169.668C326.663 170.698 328.126 173.835 327.091 176.663C326.059 179.488 322.925 180.952 320.097 179.92C317.261 178.887 315.807 175.754 316.837 172.928C317.869 170.096 321 168.634 323.832 169.668Z"
        fill="#621A9A" />
    <path
        d="M328.745 151.646L325.116 151.466C326.98 114.153 314.201 78.3491 289.134 50.6411C264.074 22.9381 229.721 6.65609 192.408 4.79109C153.153 2.82609 114.613 17.6221 86.719 45.3881L84.154 42.8101C112.768 14.3221 152.305 -0.872907 192.594 1.15909C230.873 3.06809 266.116 19.7801 291.834 48.2041C317.553 76.6301 330.659 113.367 328.745 151.646Z"
        fill="#621A9A" />
    <path
        d="M63.37 98.8982C65.72 90.2972 70.124 79.2362 72.995 74.5242L78.73 73.9102C76.479 79.9532 73.81 90.5002 72.68 97.8732L63.37 98.8982ZM78.621 98.8982C80.882 90.2972 85.381 79.2362 88.151 74.5242L93.88 73.9102C91.628 79.9532 88.968 90.5002 87.842 97.8732L78.621 98.8982Z"
        fill="#C61E6A" />
    <path
        d="M280.592 209.642C278.24 218.242 273.836 229.302 270.965 234.015L265.231 234.627C267.483 228.586 270.151 218.037 271.279 210.665L280.592 209.642ZM265.337 209.642C263.078 218.242 258.576 229.302 255.809 234.015L250.081 234.627C252.326 228.586 254.991 218.037 256.119 210.665L265.337 209.642Z"
        fill="#C61E6A" />
    <path d="M116.66 141.29H101.235V102.039H107.104V136.049H116.66V141.29Z" fill="#531199" />
    <path
        d="M136.326 138.155C136.326 140.245 135.248 141.29 133.091 141.29H123.184C121.027 141.29 119.949 140.245 119.949 138.155V119.094C119.949 117.004 121.028 115.959 123.184 115.959H133.091C135.248 115.959 136.326 117.004 136.326 119.094V128.399L134.746 129.979H125.441V137.077H130.833V132.863H136.326V138.155V138.155ZM130.833 126.242V120.172H125.441V126.242H130.833Z"
        fill="#531199" />
    <path
        d="M151.527 141.29H145.156C143.032 141.29 141.971 140.245 141.971 138.155V120.849H139.263V115.958H141.971V109.086H147.689V115.958H151.376V120.849H147.689V136.399H151.526V141.29H151.527Z"
        fill="#531199" />
    <path d="M161.537 102.039L158.099 114.329H154.337L155.642 102.039H161.537V102.039Z" fill="#531199" />
    <path
        d="M180.901 138.155C180.901 140.245 179.839 141.29 177.716 141.29H168.06C165.936 141.29 164.874 140.245 164.874 138.155V132.713H170.367V136.977H175.408V132.964L166.604 127.772C165.451 127.086 164.874 126.167 164.874 125.013V119.094C164.874 117.004 165.953 115.959 168.109 115.959H177.665C179.789 115.959 180.851 117.004 180.851 119.094V124.185H175.409V120.272H170.368V123.934L179.146 129.076C180.316 129.745 180.901 130.681 180.901 131.885V138.155Z"
        fill="#531199" />
    <path
        d="M215.267 137.704C215.267 140.095 214.072 141.29 211.681 141.29H196.005V102.039H211.58C213.904 102.039 215.066 103.243 215.066 105.651V115.758C215.066 117.096 214.648 118.133 213.812 118.868C213.695 118.969 212.674 119.613 210.752 120.8C212.741 122.021 213.795 122.69 213.912 122.806C214.814 123.592 215.266 124.67 215.266 126.041V137.704H215.267ZM209.223 116.485V106.979H201.874V118.491H206.389L209.223 116.485ZM209.373 136.349V125.163L206.489 123.257H201.874V136.349H209.373Z"
        fill="#531199" />
    <path
        d="M236.538 141.29H230.819V140.412C229.498 140.63 228.169 140.847 226.832 141.064C225.21 141.314 223.872 141.44 222.818 141.44C220.728 141.44 219.683 140.396 219.683 138.305V115.958H225.376V136.524L230.818 136.399V115.958H236.537V141.29H236.538Z"
        fill="#531199" />
    <path d="M246.647 112.322H240.904V106.403H246.647V112.322ZM246.598 141.29H240.954V115.958H246.598V141.29Z"
        fill="#531199" />
    <path d="M256.758 141.29H251.114V102.039H256.758V141.29Z" fill="#531199" />
    <path
        d="M277.928 141.29H272.21V140.412C268.33 141.098 266.156 141.44 265.689 141.44C264.251 141.44 263.123 141.018 262.303 140.173C261.484 139.329 261.074 138.179 261.074 136.725V121.05C261.074 118.993 261.809 117.564 263.281 116.761C264.35 116.159 265.972 115.858 268.146 115.858C268.631 115.858 269.334 115.875 270.252 115.908C271.172 115.942 271.824 115.958 272.209 115.958V102.038H277.927V141.29H277.928ZM272.21 136.349V120.749H268.673C267.402 120.749 266.768 121.385 266.768 122.655V134.769C266.768 136.007 267.37 136.625 268.574 136.625C268.857 136.625 270.069 136.533 272.21 136.349Z"
        fill="#531199" />
    <path
        d="M124.399 168.666C124.399 169.605 123.933 170.075 123 170.075H118.359C117.433 170.075 116.97 169.605 116.97 168.666V164.991H119.276V168.134H122.094V165.11L117.473 160.735C117.138 160.414 116.971 160.003 116.971 159.504V156.075C116.971 155.129 117.434 154.656 118.36 154.656H123C123.933 154.656 124.399 155.122 124.399 156.054V159.503H122.093V156.596H119.275V159.385L123.896 163.739C124.231 164.054 124.398 164.471 124.398 164.991V168.666H124.399Z"
        fill="#531199" />
    <path
        d="M132.528 170.075H130.37V169.73C129.858 169.809 129.345 169.887 128.833 169.966C128.163 170.065 127.654 170.113 127.306 170.113C126.485 170.113 126.075 169.71 126.075 168.901V165.315C126.075 164.494 126.499 164.084 127.346 164.084H130.39V161.798H128.232V163.217H126.192V161.355C126.192 160.534 126.616 160.124 127.463 160.124H131.276C132.11 160.124 132.527 160.534 132.527 161.355V170.075H132.528ZM130.39 168.282V165.611H128.232V168.36L130.39 168.282Z"
        fill="#531199" />
    <path
        d="M140.884 160.124L138.391 169.947L137.435 173.711H135.129L136.163 169.996L133.641 160.124H135.956L137.267 166.666L138.577 160.124H140.884V160.124Z"
        fill="#531199" />
    <path
        d="M154.028 170.075H151.703V163.158H148.579V170.075H146.273V154.655H148.579V161.01H151.703V154.655H154.028V170.075Z"
        fill="#531199" />
    <path d="M158.038 158.695H155.782V156.369H158.038V158.695ZM158.019 170.075H155.802V160.124H158.019V170.075Z"
        fill="#531199" />
    <path d="M161.507 168.341L160.64 171.169H159.694L159.98 168.341H161.507Z" fill="#531199" />
    <path
        d="M172.68 170.075H171.389V169.809C170.87 169.881 170.351 169.95 169.832 170.015C169.188 170.094 168.673 170.134 168.285 170.134C167.569 170.134 167.211 169.779 167.211 169.07V165.572C167.211 164.837 167.582 164.468 168.324 164.468H171.408V161.581H168.591V163.217H167.32V161.601C167.32 160.859 167.688 160.488 168.424 160.488H171.577C172.312 160.488 172.681 160.859 172.681 161.601V170.075H172.68ZM171.408 168.883V165.493H168.482V168.942L171.408 168.883Z"
        fill="#531199" />
    <path
        d="M180.336 170.075H179.025V161.66L176.138 161.739V170.075H174.827V160.488H176.138V160.754C176.65 160.689 177.165 160.619 177.685 160.547C178.315 160.469 178.834 160.429 179.242 160.429C179.971 160.429 180.336 160.787 180.336 161.503V170.075V170.075Z"
        fill="#531199" />
    <path
        d="M187.902 170.075H186.601V169.809C185.196 170.026 184.417 170.134 184.266 170.134C183.707 170.134 183.258 169.945 182.916 169.567C182.574 169.19 182.403 168.718 182.403 168.154V162.548C182.403 161.956 182.597 161.465 182.985 161.074C183.372 160.683 183.858 160.488 184.443 160.488H186.6V154.655H187.901V170.075H187.902ZM186.602 168.883V161.641H184.789C184.066 161.641 183.705 162.012 183.705 162.754V167.878C183.705 168.613 184.066 168.982 184.789 168.982C184.96 168.981 185.564 168.948 186.602 168.883Z"
        fill="#531199" />
    <path d="M195.381 170.075H194.09V154.655H195.381V170.075Z" fill="#531199" />
    <path
        d="M202.969 168.962C202.969 169.704 202.601 170.075 201.865 170.075H198.713C197.977 170.075 197.609 169.704 197.609 168.962V161.602C197.609 160.86 197.976 160.489 198.713 160.489H201.865C202.601 160.489 202.969 160.86 202.969 161.602V165.05L202.525 165.514H198.879V168.982H201.697V167.228H202.968V168.962H202.969ZM201.697 164.469V161.582H198.879V164.469H201.697Z"
        fill="#531199" />
    <path
        d="M208.584 170.075H206.722C205.987 170.075 205.618 169.704 205.618 168.962V161.641H204.466V160.489H205.618V157.504H206.909V160.489H208.584V161.641H206.909V168.923H208.584V170.075Z"
        fill="#531199" />
    <path d="M211.865 154.655L210.939 159.503H210.052L210.416 154.655H211.865Z" fill="#531199" />
    <path
        d="M218.772 168.962C218.772 169.704 218.401 170.075 217.659 170.075H214.653C213.911 170.075 213.54 169.704 213.54 168.962V166.784H214.831V168.942H217.481V167.03L214.052 164.222C213.723 163.959 213.559 163.618 213.559 163.197V161.601C213.559 160.859 213.93 160.488 214.672 160.488H217.638C218.38 160.488 218.752 160.859 218.752 161.601V163.512H217.481V161.62H214.831V163.295L218.289 166.104C218.611 166.36 218.772 166.708 218.772 167.148V168.962V168.962Z"
        fill="#531199" />
    <path
        d="M230.311 168.016C230.311 168.608 230.117 169.099 229.73 169.49C229.342 169.881 228.856 170.076 228.271 170.076H224.803V154.656H226.114V160.755C226.633 160.69 227.151 160.624 227.671 160.558C228.327 160.473 228.844 160.43 229.218 160.43C229.947 160.43 230.312 160.788 230.312 161.504V168.016H230.311ZM229 167.818V161.66L226.113 161.739V168.923H227.926C228.642 168.923 229 168.555 229 167.818Z"
        fill="#531199" />
    <path
        d="M237.938 170.075H236.647V169.809C236.122 169.881 235.599 169.95 235.081 170.015C234.45 170.094 233.928 170.134 233.514 170.134C232.805 170.134 232.451 169.779 232.451 169.07V160.488H233.742V168.902L236.648 168.824V160.488H237.939V170.075H237.938Z"
        fill="#531199" />
    <path d="M241.464 158.39H240.134V156.735H241.464V158.39ZM241.444 170.075H240.153V160.488H241.444V170.075Z"
        fill="#531199" />
    <path d="M245.041 170.075H243.75V154.655H245.041V170.075Z" fill="#531199" />
    <path
        d="M252.717 170.075H251.416V169.809C250.011 170.026 249.232 170.134 249.081 170.134C248.522 170.134 248.073 169.945 247.731 169.567C247.389 169.19 247.218 168.718 247.218 168.154V162.548C247.218 161.956 247.412 161.465 247.8 161.074C248.187 160.683 248.673 160.488 249.258 160.488H251.415V154.655H252.716V170.075H252.717ZM251.416 168.883V161.641H249.603C248.88 161.641 248.519 162.012 248.519 162.754V167.878C248.519 168.613 248.88 168.982 249.603 168.982C249.774 168.981 250.379 168.948 251.416 168.883Z"
        fill="#531199" />
    <path
        d="M100.826 189.141C100.826 189.883 100.455 190.254 99.713 190.254H96.708C95.965 190.254 95.594 189.883 95.594 189.141V186.963H96.885V189.121H99.535V187.209L96.106 184.401C95.777 184.138 95.613 183.797 95.613 183.376V181.78C95.613 181.038 95.984 180.667 96.726 180.667H99.692C100.434 180.667 100.805 181.038 100.805 181.78V183.691H99.534V181.8H96.884V183.475L100.342 186.284C100.664 186.54 100.824 186.888 100.824 187.328V189.141H100.826Z"
        fill="#531199" />
    <path
        d="M108.413 189.141C108.413 189.883 108.042 190.254 107.299 190.254H104.008C103.272 190.254 102.904 189.883 102.904 189.141V181.781C102.904 181.039 103.272 180.668 104.008 180.668H107.299C108.042 180.668 108.413 181.039 108.413 181.781V189.141ZM107.103 189.102V181.82H104.216V189.102H107.103Z"
        fill="#531199" />
    <path
        d="M120.188 190.254H118.877V181.839L116.02 181.918V190.254H114.719V181.839L111.862 181.918V190.254H110.552V180.667H111.862V180.933C112.375 180.868 112.887 180.798 113.399 180.726C114.023 180.648 114.539 180.608 114.946 180.608C115.347 180.608 115.642 180.73 115.833 180.973C116.385 180.901 116.933 180.825 117.479 180.746C118.195 180.653 118.737 180.607 119.104 180.607C119.827 180.607 120.188 180.965 120.188 181.681V190.254V190.254Z"
        fill="#531199" />
    <path
        d="M127.676 189.141C127.676 189.883 127.308 190.254 126.572 190.254H123.419C122.683 190.254 122.315 189.883 122.315 189.141V181.781C122.315 181.039 122.683 180.668 123.419 180.668H126.572C127.307 180.668 127.676 181.039 127.676 181.781V185.229L127.233 185.693H123.587V189.161H126.405V187.407H127.676V189.141ZM126.405 184.647V181.76H123.587V184.647H126.405Z"
        fill="#531199" />
    <path
        d="M133.292 190.254H131.43C130.695 190.254 130.326 189.883 130.326 189.141V181.82H129.173V180.668H130.326V177.683H131.617V180.668H133.292V181.82H131.617V189.102H133.292V190.254Z"
        fill="#531199" />
    <path
        d="M140.475 190.254H139.164V181.839L136.277 181.918V190.254H134.967V174.834H136.277V180.933C136.796 180.868 137.315 180.802 137.834 180.736C138.491 180.651 139.006 180.608 139.381 180.608C140.11 180.608 140.475 180.966 140.475 181.682V190.254V190.254Z"
        fill="#531199" />
    <path d="M143.983 178.568H142.653V176.913H143.983V178.568ZM143.963 190.254H142.672V180.667H143.963V190.254Z"
        fill="#531199" />
    <path
        d="M151.698 190.254H150.387V181.839L147.5 181.918V190.254H146.19V180.667H147.5V180.933C148.013 180.868 148.528 180.798 149.047 180.726C149.677 180.648 150.196 180.608 150.604 180.608C151.333 180.608 151.698 180.966 151.698 181.682V190.254V190.254Z"
        fill="#531199" />
    <path
        d="M159.265 192.776C159.265 193.518 158.894 193.889 158.152 193.889H155.039C154.283 193.889 153.906 193.419 153.906 192.48C153.906 192.369 153.911 192.203 153.921 191.983C153.931 191.762 153.936 191.603 153.936 191.504H155.227V192.775H157.965V190.253H155.808C155.223 190.253 154.737 190.058 154.35 189.667C153.962 189.276 153.768 188.785 153.768 188.193V182.587C153.768 182.023 153.939 181.551 154.281 181.173C154.623 180.796 155.072 180.607 155.631 180.607C155.782 180.607 156.561 180.715 157.966 180.932V180.666H159.267V192.776H159.265ZM157.964 189.102V181.86C156.927 181.795 156.322 181.761 156.151 181.761C155.428 181.761 155.067 182.129 155.067 182.865V187.998C155.067 188.734 155.428 189.102 156.151 189.102H157.964V189.102Z"
        fill="#531199" />
    <path
        d="M170.793 190.254H169.502V189.988C168.983 190.06 168.464 190.129 167.945 190.194C167.301 190.273 166.786 190.313 166.398 190.313C165.682 190.313 165.324 189.958 165.324 189.249V185.751C165.324 185.016 165.695 184.647 166.437 184.647H169.521V181.76H166.704V183.396H165.433V181.78C165.433 181.038 165.801 180.667 166.537 180.667H169.69C170.425 180.667 170.794 181.038 170.794 181.78V190.254H170.793ZM169.521 189.062V185.672H166.595V189.121L169.521 189.062Z"
        fill="#531199" />
    <path
        d="M182.577 190.254H181.266V181.839L178.409 181.918V190.254H177.109V181.839L174.252 181.918V190.254H172.941V180.667H174.252V180.933C174.764 180.868 175.276 180.798 175.789 180.726C176.413 180.648 176.929 180.608 177.336 180.608C177.736 180.608 178.032 180.73 178.223 180.973C178.775 180.901 179.323 180.825 179.869 180.746C180.585 180.653 181.127 180.607 181.495 180.607C182.217 180.607 182.578 180.965 182.578 181.681V190.254H182.577Z"
        fill="#531199" />
    <path
        d="M190.125 190.254H188.834V189.988C188.315 190.06 187.796 190.129 187.277 190.194C186.633 190.273 186.118 190.313 185.73 190.313C185.014 190.313 184.656 189.958 184.656 189.249V185.751C184.656 185.016 185.027 184.647 185.769 184.647H188.853V181.76H186.036V183.396H184.765V181.78C184.765 181.038 185.133 180.667 185.869 180.667H189.022C189.757 180.667 190.126 181.038 190.126 181.78V190.254H190.125ZM188.854 189.062V185.672H185.928V189.121L188.854 189.062Z"
        fill="#531199" />
    <path
        d="M196.865 190.254H191.82V189.653L195.317 181.839H192.184V180.667H196.865V181.277L193.357 189.081H196.865V190.254Z"
        fill="#531199" />
    <path d="M200.116 178.568H198.786V176.913H200.116V178.568ZM200.097 190.254H198.806V180.667H200.097V190.254Z"
        fill="#531199" />
    <path
        d="M207.832 190.254H206.521V181.839L203.634 181.918V190.254H202.323V180.667H203.634V180.933C204.146 180.868 204.661 180.798 205.181 180.726C205.811 180.648 206.33 180.608 206.738 180.608C207.467 180.608 207.832 180.966 207.832 181.682V190.254V190.254Z"
        fill="#531199" />
    <path
        d="M215.398 192.776C215.398 193.518 215.027 193.889 214.285 193.889H211.172C210.416 193.889 210.039 193.419 210.039 192.48C210.039 192.369 210.044 192.203 210.054 191.983C210.064 191.762 210.069 191.603 210.069 191.504H211.36V192.775H214.098V190.253H211.941C211.356 190.253 210.87 190.058 210.483 189.667C210.095 189.276 209.901 188.785 209.901 188.193V182.587C209.901 182.023 210.072 181.551 210.414 181.173C210.756 180.796 211.205 180.607 211.764 180.607C211.915 180.607 212.694 180.715 214.099 180.932V180.666H215.4V192.776H215.398ZM214.098 189.102V181.86C213.061 181.795 212.456 181.761 212.285 181.761C211.562 181.761 211.201 182.129 211.201 182.865V187.998C211.201 188.734 211.562 189.102 212.285 189.102H214.098V189.102Z"
        fill="#531199" />
    <path
        d="M224.956 190.254H223.094C222.359 190.254 221.99 189.883 221.99 189.141V181.82H220.838V180.668H221.99V177.683H223.281V180.668H224.956V181.82H223.281V189.102H224.956V190.254Z"
        fill="#531199" />
    <path
        d="M232.14 189.141C232.14 189.883 231.769 190.254 231.027 190.254H227.736C227 190.254 226.632 189.883 226.632 189.141V181.781C226.632 181.039 226.999 180.668 227.736 180.668H231.027C231.769 180.668 232.14 181.039 232.14 181.781V189.141ZM230.829 189.102V181.82H227.942V189.102H230.829Z"
        fill="#531199" />
    <path
        d="M239.727 192.776C239.727 193.518 239.356 193.889 238.614 193.889H235.5C234.744 193.889 234.367 193.419 234.367 192.48C234.367 192.369 234.372 192.203 234.382 191.983C234.392 191.762 234.397 191.603 234.397 191.504H235.688V192.775H238.426V190.253H236.269C235.684 190.253 235.198 190.058 234.811 189.667C234.423 189.276 234.229 188.785 234.229 188.193V182.587C234.229 182.023 234.4 181.551 234.742 181.173C235.084 180.796 235.533 180.607 236.092 180.607C236.243 180.607 237.022 180.715 238.427 180.932V180.666H239.728V192.776H239.727ZM238.426 189.102V181.86C237.389 181.795 236.784 181.761 236.613 181.761C235.89 181.761 235.529 182.129 235.529 182.865V187.998C235.529 188.734 235.89 189.102 236.613 189.102H238.426V189.102Z"
        fill="#531199" />
    <path
        d="M247.245 189.141C247.245 189.883 246.877 190.254 246.141 190.254H242.989C242.253 190.254 241.885 189.883 241.885 189.141V181.781C241.885 181.039 242.252 180.668 242.989 180.668H246.141C246.877 180.668 247.245 181.039 247.245 181.781V185.229L246.801 185.693H243.155V189.161H245.973V187.407H247.244V189.141H247.245ZM245.974 184.647V181.76H243.156V184.647H245.974Z"
        fill="#531199" />
    <path
        d="M252.86 190.254H250.998C250.263 190.254 249.894 189.883 249.894 189.141V181.82H248.742V180.668H249.894V177.683H251.185V180.668H252.86V181.82H251.185V189.102H252.86V190.254Z"
        fill="#531199" />
    <path
        d="M260.044 190.254H258.733V181.839L255.846 181.918V190.254H254.535V174.834H255.846V180.933C256.365 180.868 256.883 180.802 257.403 180.736C258.059 180.651 258.576 180.608 258.95 180.608C259.679 180.608 260.044 180.966 260.044 181.682V190.254V190.254Z"
        fill="#531199" />
    <path
        d="M267.522 189.141C267.522 189.883 267.154 190.254 266.418 190.254H263.266C262.53 190.254 262.162 189.883 262.162 189.141V181.781C262.162 181.039 262.529 180.668 263.266 180.668H266.418C267.154 180.668 267.522 181.039 267.522 181.781V185.229L267.078 185.693H263.432V189.161H266.25V187.407H267.521V189.141H267.522ZM266.251 184.647V181.76H263.433V184.647H266.251Z"
        fill="#531199" />
    <path
        d="M274.704 183.819H273.414V181.839L271 181.918V190.254H269.689V180.667H271V180.933C271.434 180.868 271.87 180.798 272.311 180.726C272.836 180.648 273.273 180.608 273.622 180.608C274.344 180.608 274.705 180.966 274.705 181.682V183.819H274.704Z"
        fill="#531199" />
</svg>