<?xml version="1.0" encoding="utf-8"?>
<!-- Generator: Adobe Illustrator 16.0.0, SVG Export Plug-In . SVG Version: 6.00 Build 0)  -->
<!DOCTYPE svg PUBLIC "-//W3C//DTD SVG 1.1//EN" "http://www.w3.org/Graphics/SVG/1.1/DTD/svg11.dtd">
<svg version="1.1" id="Layer_1" xmlns="http://www.w3.org/2000/svg" xmlns:xlink="http://www.w3.org/1999/xlink" x="0px"
    y="0px" width="469.888px" height="228.032px" viewBox="8.864 0 469.888 228.032"
    enable-background="new 8.864 0 469.888 228.032" xml:space="preserve">
    <g>
        <path class='right_dash' d="M164.017,116.302c0,1.38,1.119,2.5,2.5,2.5h9.63c1.38,0,2.5-1.12,2.5-2.5s-1.12-2.5-2.5-2.5h-9.63
			C165.136,113.802,164.017,114.922,164.017,116.302z" />
        <path class='right_dash' d="M183.286,116.302c0,1.38,1.12,2.5,2.5,2.5h9.64c1.38,0,2.5-1.12,2.5-2.5s-1.12-2.5-2.5-2.5h-9.64
			C184.406,113.802,183.286,114.922,183.286,116.302z" />
        <path class='right_dash' d="M202.556,116.302c0,1.38,1.12,2.5,2.5,2.5h9.641c1.38,0,2.5-1.12,2.5-2.5s-1.12-2.5-2.5-2.5h-9.641
			C203.676,113.802,202.556,114.922,202.556,116.302z" />
        <path class='right_dash' d="M221.826,116.302c0,1.38,1.13,2.5,2.5,2.5h9.64c1.38,0,2.5-1.12,2.5-2.5s-1.12-2.5-2.5-2.5h-9.64
			C222.956,113.802,221.826,114.922,221.826,116.302z" />
        <path class='right_dash' d="M241.106,116.302c0,1.38,1.12,2.5,2.5,2.5h9.64c1.37,0,2.5-1.12,2.5-2.5s-1.13-2.5-2.5-2.5h-9.64
			C242.227,113.802,241.106,114.922,241.106,116.302z" />
        <path class='right_dash' d="M260.376,116.302c0,1.38,1.12,2.5,2.5,2.5h9.641c1.38,0,2.5-1.12,2.5-2.5s-1.12-2.5-2.5-2.5h-9.641
			C261.496,113.802,260.376,114.922,260.376,116.302z" />
        <path class='right_dash' d="M279.646,116.302c0,1.38,1.12,2.5,2.5,2.5h9.64c1.38,0,2.5-1.12,2.5-2.5s-1.12-2.5-2.5-2.5h-9.64
			C280.767,113.802,279.646,114.922,279.646,116.302z" />
        <path class='right_dash' d="M298.926,116.302c0,1.38,1.12,2.5,2.5,2.5h9.631c1.379,0,2.5-1.12,2.5-2.5s-1.121-2.5-2.5-2.5h-9.631
			C300.046,113.802,298.926,114.922,298.926,116.302z" />
        <path class='right_dash' d="M318.196,116.302c0,1.38,1.12,2.5,2.5,2.5h9.63c1.391,0,2.5-1.12,2.5-2.5s-1.109-2.5-2.5-2.5h-9.63
			C319.316,113.802,318.196,114.922,318.196,116.302z" />
        <path class='right_dash'
            d="M337.467,116.302c0,1.38,1.119,2.5,2.5,2.5h4.819c1.72,0,3.479-0.01,5.26-0.03c1.38-0.02,2.48-1.149,2.46-2.529
			c-0.01-1.391-1.15-2.49-2.529-2.471c-1.75,0.021-3.49,0.03-5.19,0.03h-4.819C338.586,113.802,337.467,114.922,337.467,116.302z" />
        <path class='right_dash'
            d="M357.967,116.082c0.06,1.38,1.229,2.45,2.609,2.39c3.45-0.16,6.97-0.39,10.54-0.71c1.37-0.12,2.39-1.33,2.271-2.71
			c-0.121-1.37-1.341-2.39-2.711-2.27c-3.49,0.31-6.939,0.539-10.33,0.689C358.967,113.542,357.896,114.712,357.967,116.082z" />
        <path class='right_dash'
            d="M378.807,113.441c0.189,1.37,1.449,2.32,2.819,2.13c3.47-0.489,6.96-1.09,10.45-1.8c1.359-0.279,2.23-1.6,1.95-2.95
				c-0.28-1.359-1.601-2.229-2.95-1.949c-3.38,0.689-6.77,1.27-10.15,1.739C379.557,110.812,378.605,112.071,378.807,113.441z" />
        <path class='right_dash'
            d="M399.336,109.542c0.37,1.33,1.75,2.1,3.08,1.729c3.41-0.96,6.79-2.06,10.141-3.31c1.289-0.49,1.939-1.93,1.459-3.22
				c-0.479-1.301-1.92-1.95-3.22-1.471c-3.2,1.2-6.45,2.261-9.729,3.181C399.736,106.832,398.956,108.212,399.336,109.542z" />
        <path class='right_dash' d="M419.036,102.592c0.601,1.24,2.101,1.75,3.34,1.15c3.19-1.561,6.32-3.29,9.37-5.21c1.17-0.73,1.52-2.271,0.79-3.44
				c-0.74-1.17-2.28-1.521-3.45-0.79c-2.89,1.82-5.859,3.46-8.9,4.95C418.946,99.852,418.426,101.352,419.036,102.592z" />
        <path class='right_dash' d="M436.977,91.932c0.869,1.07,2.439,1.25,3.52,0.38c2.75-2.21,5.41-4.609,7.95-7.21c0.97-0.99,0.95-2.569-0.04-3.54
				c-0.98-0.96-2.57-0.95-3.53,0.04c-2.399,2.46-4.909,4.72-7.51,6.811C436.286,89.282,436.116,90.852,436.977,91.932z" />
        <path class='right_dash' d="M451.986,77.432c1.1,0.851,2.67,0.64,3.51-0.46c2.12-2.77,4.141-5.72,6.03-8.87c0.71-1.18,0.329-2.72-0.86-3.43
				c-1.18-0.71-2.71-0.33-3.43,0.86c-1.79,2.979-3.7,5.779-5.71,8.399C450.686,75.021,450.896,76.592,451.986,77.432z" />
        <path class='right_dash' d="M463.217,59.861c1.26,0.58,2.739,0.04,3.329-1.21c1.46-3.13,2.81-6.43,4.04-9.88c0.46-1.3-0.21-2.74-1.51-3.2
				c-1.311-0.46-2.74,0.22-3.2,1.52c-1.18,3.311-2.47,6.46-3.86,9.44C461.426,57.792,461.967,59.271,463.217,59.861z" />
        <path class='right_dash' d="M470.696,40.322c1.33,0.35,2.7-0.44,3.05-1.78c0.88-3.3,1.66-6.75,2.34-10.33c0.26-1.35-0.63-2.66-1.99-2.92
				c-1.359-0.26-2.66,0.63-2.92,1.99c-0.66,3.47-1.41,6.79-2.26,9.98C468.566,38.602,469.355,39.962,470.696,40.322z" />
        <path class='right_dash' d="M474.936,19.922c1.371,0.17,2.621-0.8,2.791-2.17c0.43-3.4,0.77-6.91,1.02-10.53c0.1-1.38-0.939-2.58-2.32-2.67
				c-1.369-0.1-2.57,0.94-2.67,2.32c-0.24,3.53-0.58,6.95-0.99,10.26C472.596,18.502,473.566,19.752,474.936,19.922z" />

        <path class='right_dash'
            d="M263.465,123.035c0.37-1.33,1.75-2.1,3.08-1.729c3.41,0.96,6.79,2.06,10.141,3.31c1.289,0.49,1.939,1.93,1.459,3.22
		c-0.479,1.301-1.92,1.95-3.22,1.471c-3.2-1.2-6.45-2.261-9.729-3.181C263.865,125.745,263.085,124.365,263.465,123.035z" />
        <path class='right_dash' d="M283.165,129.985c0.601-1.24,2.101-1.75,3.34-1.15c3.19,1.561,6.32,3.29,9.37,5.21c1.17,0.73,1.52,2.271,0.79,3.44
		c-0.74,1.17-2.28,1.521-3.45,0.79c-2.89-1.82-5.859-3.46-8.9-4.95C283.075,132.726,282.555,131.226,283.165,129.985z" />
        <path class='right_dash'
            d="M301.105,140.646c0.869-1.07,2.439-1.25,3.52-0.38c2.75,2.21,5.41,4.609,7.95,7.21c0.97,0.99,0.95,2.569-0.04,3.54
		c-0.98,0.96-2.57,0.95-3.53-0.04c-2.399-2.46-4.909-4.72-7.51-6.811C300.415,143.295,300.245,141.726,301.105,140.646z" />
        <path class='right_dash' d="M316.115,155.146c1.1-0.851,2.67-0.64,3.51,0.46c2.12,2.77,4.141,5.72,6.03,8.87c0.71,1.18,0.329,2.72-0.86,3.43
		c-1.18,0.71-2.71,0.33-3.43-0.86c-1.79-2.979-3.7-5.779-5.71-8.399C314.814,157.556,315.025,155.985,316.115,155.146z" />
        <path class='right_dash' d="M327.346,172.716c1.26-0.58,2.739-0.04,3.329,1.21c1.46,3.13,2.81,6.43,4.04,9.88c0.46,1.3-0.21,2.74-1.51,3.199
		c-1.311,0.461-2.74-0.22-3.2-1.52c-1.18-3.311-2.47-6.46-3.86-9.44C325.555,174.785,326.096,173.306,327.346,172.716z" />
        <path class='right_dash'
            d="M334.825,192.255c1.33-0.35,2.7,0.44,3.05,1.78c0.88,3.3,1.66,6.75,2.34,10.33c0.26,1.351-0.63,2.66-1.99,2.92
		c-1.359,0.261-2.66-0.63-2.92-1.989c-0.66-3.471-1.41-6.791-2.26-9.98C332.695,193.976,333.484,192.615,334.825,192.255z" />
        <path class='right_dash'
            d="M339.064,212.655c1.371-0.17,2.621,0.801,2.791,2.17c0.43,3.4,0.77,6.91,1.02,10.53c0.1,1.38-0.939,2.58-2.32,2.67
		c-1.369,0.101-2.57-0.94-2.67-2.319c-0.24-3.531-0.58-6.951-0.99-10.261C336.725,214.075,337.695,212.825,339.064,212.655z" />
    </g>
</svg>