<?xml version="1.0" encoding="utf-8"?>
<!-- Generator: Adobe Illustrator 16.0.0, SVG Export Plug-In . SVG Version: 6.00 Build 0)  -->
<!DOCTYPE svg PUBLIC "-//W3C//DTD SVG 1.1//EN" "http://www.w3.org/Graphics/SVG/1.1/DTD/svg11.dtd">
<svg version="1.1" id="Layer_1" xmlns="http://www.w3.org/2000/svg" xmlns:xlink="http://www.w3.org/1999/xlink" x="0px"
    y="0px" width="469.888px" height="228.032px" viewBox="8.864 0 469.888 228.032"
    enable-background="new 8.864 0 469.888 228.032" xml:space="preserve">
    <g>
        <!-- <path class='left_dash' d="M478.752,116.275c0-1.38-1.12-2.5-2.5-2.5h-9.64c-1.38,0-2.5,1.12-2.5,2.5s1.12,2.5,2.5,2.5h9.64
		C477.632,118.775,478.752,117.655,478.752,116.275z" />
        <path class='left_dash' d="M459.472,116.275c0-1.38-1.119-2.5-2.5-2.5h-9.63c-1.38,0-2.5,1.12-2.5,2.5s1.12,2.5,2.5,2.5h9.63
		C458.353,118.775,459.472,117.655,459.472,116.275z" />
        <path class='left_dash' d="M440.202,116.275c0-1.38-1.12-2.5-2.5-2.5h-9.64c-1.38,0-2.5,1.12-2.5,2.5s1.12,2.5,2.5,2.5h9.64
		C439.082,118.775,440.202,117.655,440.202,116.275z" />
        <path class='left_dash' d="M420.933,116.275c0-1.38-1.12-2.5-2.5-2.5h-9.641c-1.38,0-2.5,1.12-2.5,2.5s1.12,2.5,2.5,2.5h9.641
		C419.813,118.775,420.933,117.655,420.933,116.275z" />
        <path class='left_dash' d="M401.662,116.275c0-1.38-1.13-2.5-2.5-2.5h-9.64c-1.38,0-2.5,1.12-2.5,2.5s1.12,2.5,2.5,2.5h9.64
		C400.532,118.775,401.662,117.655,401.662,116.275z" />
        <path class='left_dash' d="M382.382,116.275c0-1.38-1.12-2.5-2.5-2.5h-9.64c-1.37,0-2.5,1.12-2.5,2.5s1.13,2.5,2.5,2.5h9.64
		C381.262,118.775,382.382,117.655,382.382,116.275z" /> -->
        <!-- <path class='left_dash' d="M363.112,116.275c0-1.38-1.12-2.5-2.5-2.5h-9.641c-1.38,0-2.5,1.12-2.5,2.5s1.12,2.5,2.5,2.5h9.641
		C361.992,118.775,363.112,117.655,363.112,116.275z" />
        <path class='left_dash' d="M342.881,116.302c0,1.38-1.12,2.5-2.5,2.5h-9.64c-1.38,0-2.5-1.12-2.5-2.5s1.12-2.5,2.5-2.5h9.64
			C341.761,113.802,342.881,114.922,342.881,116.302z" /> -->
        <path class='left_dash' d="M323.601,116.302c0,1.38-1.119,2.5-2.5,2.5h-9.63c-1.38,0-2.5-1.12-2.5-2.5s1.12-2.5,2.5-2.5h9.63
			C322.481,113.802,323.601,114.922,323.601,116.302z" />
        <path class='left_dash' d="M304.331,116.302c0,1.38-1.12,2.5-2.5,2.5h-9.64c-1.38,0-2.5-1.12-2.5-2.5s1.12-2.5,2.5-2.5h9.64
			C303.211,113.802,304.331,114.922,304.331,116.302z" />
        <path class='left_dash' d="M285.062,116.302c0,1.38-1.12,2.5-2.5,2.5h-9.641c-1.38,0-2.5-1.12-2.5-2.5s1.12-2.5,2.5-2.5h9.641
			C283.941,113.802,285.062,114.922,285.062,116.302z" />
        <path class='left_dash' d="M265.791,116.302c0,1.38-1.13,2.5-2.5,2.5h-9.64c-1.38,0-2.5-1.12-2.5-2.5s1.12-2.5,2.5-2.5h9.64
			C264.661,113.802,265.791,114.922,265.791,116.302z" />
        <path class='left_dash' d="M246.511,116.302c0,1.38-1.12,2.5-2.5,2.5h-9.64c-1.37,0-2.5-1.12-2.5-2.5s1.13-2.5,2.5-2.5h9.64
			C245.391,113.802,246.511,114.922,246.511,116.302z" />
        <path class='left_dash' d="M227.241,116.302c0,1.38-1.12,2.5-2.5,2.5h-9.641c-1.38,0-2.5-1.12-2.5-2.5s1.12-2.5,2.5-2.5h9.641
			C226.121,113.802,227.241,114.922,227.241,116.302z" />
        <path class='left_dash' d="M207.971,116.302c0,1.38-1.12,2.5-2.5,2.5h-9.64c-1.38,0-2.5-1.12-2.5-2.5s1.12-2.5,2.5-2.5h9.64
			C206.851,113.802,207.971,114.922,207.971,116.302z" />
        <path class='left_dash' d="M188.691,116.302c0,1.38-1.12,2.5-2.5,2.5h-9.631c-1.379,0-2.5-1.12-2.5-2.5s1.121-2.5,2.5-2.5h9.631
			C187.571,113.802,188.691,114.922,188.691,116.302z" />
        <path class='left_dash' d="M169.421,116.302c0,1.38-1.12,2.5-2.5,2.5h-9.63c-1.391,0-2.5-1.12-2.5-2.5s1.109-2.5,2.5-2.5h9.63
			C168.301,113.802,169.421,114.922,169.421,116.302z" />
        <path class='left_dash'
            d="M150.15,116.302c0,1.38-1.119,2.5-2.5,2.5h-4.819c-1.72,0-3.479-0.01-5.26-0.03c-1.38-0.02-2.48-1.149-2.46-2.529
			c0.01-1.391,1.15-2.49,2.529-2.471c1.75,0.021,3.49,0.03,5.19,0.03h4.819C149.031,113.802,150.15,114.922,150.15,116.302z" />
        <path class='left_dash' d="M129.65,116.082c-0.06,1.38-1.229,2.45-2.609,2.39c-3.45-0.16-6.97-0.39-10.54-0.71c-1.37-0.12-2.39-1.33-2.27-2.71
			c0.12-1.37,1.34-2.39,2.71-2.27c3.491,0.31,6.94,0.539,10.331,0.689C128.65,113.542,129.721,114.712,129.65,116.082z" />
        <path class='left_dash'
            d="M108.811,113.441c-0.19,1.37-1.45,2.32-2.82,2.13c-3.47-0.489-6.96-1.09-10.45-1.8c-1.36-0.279-2.23-1.6-1.95-2.95
				c0.28-1.359,1.6-2.229,2.95-1.949c3.38,0.689,6.77,1.27,10.15,1.739C108.061,110.812,109.011,112.071,108.811,113.441z" />
        <path class='left_dash' d="M88.281,109.542c-0.37,1.33-1.75,2.1-3.08,1.729c-3.41-0.96-6.79-2.06-10.14-3.31c-1.29-0.49-1.94-1.93-1.46-3.22
				c0.48-1.301,1.92-1.95,3.22-1.471c3.2,1.2,6.45,2.261,9.73,3.181C87.881,106.832,88.661,108.212,88.281,109.542z" />
        <path class='left_dash' d="M68.581,102.592c-0.6,1.24-2.1,1.75-3.34,1.15c-3.19-1.561-6.32-3.29-9.37-5.21c-1.17-0.73-1.52-2.271-0.79-3.44
				c0.74-1.17,2.28-1.521,3.45-0.79c2.89,1.82,5.86,3.46,8.9,4.95C68.671,99.852,69.191,101.352,68.581,102.592z" />
        <path class='left_dash' d="M50.641,91.932c-0.87,1.07-2.44,1.25-3.52,0.38c-2.75-2.21-5.41-4.609-7.95-7.21c-0.97-0.99-0.95-2.569,0.04-3.54
				c0.98-0.96,2.57-0.95,3.53,0.04c2.4,2.46,4.91,4.72,7.51,6.811C51.331,89.282,51.501,90.852,50.641,91.932z" />
        <path class='left_dash' d="M35.631,77.432c-1.1,0.851-2.67,0.64-3.51-0.46c-2.12-2.77-4.14-5.72-6.03-8.87c-0.71-1.18-0.33-2.72,0.86-3.43
				c1.18-0.71,2.71-0.33,3.43,0.86c1.79,2.979,3.7,5.779,5.71,8.399C36.931,75.021,36.721,76.592,35.631,77.432z" />
        <path class='left_dash' d="M24.401,59.861c-1.26,0.58-2.74,0.04-3.33-1.21c-1.46-3.13-2.81-6.43-4.04-9.88c-0.46-1.3,0.21-2.74,1.51-3.2
				c1.31-0.46,2.74,0.22,3.2,1.52c1.18,3.311,2.47,6.46,3.86,9.44C26.191,57.792,25.651,59.271,24.401,59.861z" />
        <path class='left_dash' d="M16.921,40.322c-1.33,0.35-2.7-0.44-3.05-1.78c-0.88-3.3-1.66-6.75-2.34-10.33c-0.26-1.35,0.63-2.66,1.99-2.92
				c1.36-0.26,2.66,0.63,2.92,1.99c0.66,3.47,1.41,6.79,2.26,9.98C19.051,38.602,18.261,39.962,16.921,40.322z" />
        <path class='left_dash' d="M12.681,19.922c-1.37,0.17-2.62-0.8-2.79-2.17c-0.43-3.4-0.77-6.91-1.02-10.53c-0.1-1.38,0.94-2.58,2.32-2.67
				c1.37-0.1,2.57,0.94,2.67,2.32c0.24,3.53,0.58,6.95,0.99,10.26C15.021,18.502,14.051,19.752,12.681,19.922z" />

        <path class='left_dash' d="M224.152,123.035c-0.37-1.33-1.75-2.1-3.08-1.729c-3.41,0.96-6.79,2.06-10.141,3.31c-1.289,0.49-1.939,1.93-1.459,3.22
		c0.479,1.301,1.92,1.95,3.22,1.471c3.2-1.2,6.45-2.261,9.729-3.181C223.752,125.745,224.532,124.365,224.152,123.035z" />
        <path class='left_dash' d="M204.452,129.985c-0.601-1.24-2.101-1.75-3.34-1.15c-3.19,1.561-6.32,3.29-9.37,5.21c-1.17,0.73-1.52,2.271-0.79,3.44
		c0.74,1.17,2.28,1.521,3.45,0.79c2.89-1.82,5.859-3.46,8.9-4.95C204.542,132.726,205.063,131.226,204.452,129.985z" />
        <path class='left_dash' d="M186.512,140.646c-0.869-1.07-2.439-1.25-3.52-0.38c-2.75,2.21-5.41,4.609-7.95,7.21c-0.97,0.99-0.95,2.569,0.04,3.54
		c0.98,0.96,2.57,0.95,3.53-0.04c2.399-2.46,4.909-4.72,7.51-6.811C187.202,143.295,187.372,141.726,186.512,140.646z" />
        <path class='left_dash' d="M171.502,155.146c-1.1-0.851-2.67-0.64-3.51,0.46c-2.12,2.77-4.141,5.72-6.03,8.87c-0.71,1.18-0.329,2.72,0.86,3.43
		c1.18,0.71,2.71,0.33,3.43-0.86c1.79-2.979,3.7-5.779,5.71-8.399C172.803,157.556,172.592,155.985,171.502,155.146z" />
        <path class='left_dash' d="M160.271,172.716c-1.26-0.58-2.739-0.04-3.329,1.21c-1.46,3.13-2.81,6.43-4.04,9.88c-0.46,1.3,0.21,2.74,1.51,3.199
		c1.311,0.461,2.74-0.22,3.2-1.52c1.18-3.311,2.47-6.46,3.86-9.44C162.063,174.785,161.521,173.306,160.271,172.716z" />
        <path class='left_dash'
            d="M152.792,192.255c-1.33-0.35-2.7,0.44-3.05,1.78c-0.88,3.3-1.66,6.75-2.34,10.33c-0.26,1.351,0.63,2.66,1.99,2.92
		c1.359,0.261,2.66-0.63,2.92-1.989c0.66-3.471,1.41-6.791,2.26-9.98C154.922,193.976,154.133,192.615,152.792,192.255z" />
        <path class='left_dash'
            d="M148.553,212.655c-1.371-0.17-2.621,0.801-2.791,2.17c-0.43,3.4-0.77,6.91-1.02,10.53c-0.1,1.38,0.939,2.58,2.32,2.67
		c1.369,0.101,2.57-0.94,2.67-2.319c0.24-3.531,0.58-6.951,0.99-10.261C150.893,214.075,149.922,212.825,148.553,212.655z" />
    </g>
</svg>