<svg width="262" height="290" viewBox="0 0 262 290" fill="none" xmlns="http://www.w3.org/2000/svg">
<path d="M236.306 288.054L240.934 287.18L220.938 181.473L216.31 182.347L236.306 288.054Z" fill="#184655"/>
<path d="M82.8204 288.535H77.2539L97.9982 181.473L102.626 182.347L82.8204 288.535Z" fill="#184655"/>
<path d="M184.732 288.535H179.165L199.909 181.473L204.537 182.347L184.732 288.535Z" fill="#184655"/>
<path d="M133.539 288.535L138.058 288.589L118.17 181.954L113.542 182.828L133.539 288.535Z" fill="#184655"/>
<path d="M153.729 37.2863C135.404 39.2423 111.688 41.3054 87.88 81.5715C61.8593 125.58 75.5567 191.318 96.0945 209.585C116.632 227.853 183.709 250.409 240.095 216.641C240.095 216.641 274.142 196.177 256.669 162.215C229.78 109.952 233.579 99.0532 221.557 78.5715C209.534 58.0897 192.628 33.1345 153.729 37.2863Z" fill="#FAE0B2"/>
<path d="M87.88 81.5717C104.13 54.0888 120.336 44.4046 134.815 40.4026C129.215 46.179 123.537 53.6097 117.854 63.2213C91.833 107.23 105.53 172.967 126.068 191.235C144.281 207.435 199.094 227.001 250.594 207.673C245.299 213.513 240.095 216.641 240.095 216.641C183.709 250.409 116.632 227.853 96.0943 209.585C75.5571 191.318 61.8594 125.58 87.88 81.5717Z" fill="#F7CC7F"/>
<path d="M212.564 104.177L217.275 118.26L202.92 112.633L212.564 104.177Z" fill="#F79C8D"/>
<path d="M197.766 62.2683C198.723 62.3077 201.345 63.1793 205.18 70.3777C210.077 79.5699 217.234 107.338 217.234 107.338L195.87 115.241L193.126 109.445L188.605 64.824C188.605 64.8238 197.501 62.2573 197.766 62.2683Z" fill="#042A44"/>
<path d="M169.525 58.2657C175.634 58.2738 190.75 60.0442 197.766 62.2705C197.766 62.2705 202.92 106.269 193.126 139.703C190.933 147.186 194.939 170.727 194.939 170.727L131.635 169.897C131.635 169.897 139.134 112.987 136.309 103.795C133.484 94.6029 133.416 62.5664 133.416 62.5664C133.416 62.5664 133.85 62.4994 147.639 60.1319C154.071 59.0277 163.003 58.2572 169.525 58.2657Z" fill="#07345A"/>
<path d="M162.149 252.39C162.149 252.39 163.549 268.445 166.124 272.891C168.699 277.337 165.988 284.895 165.853 285.932C165.718 286.969 160.432 288.451 152.03 287.562C143.627 286.673 143.763 284.746 144.44 281.634C145.118 278.522 149.59 274.521 149.861 271.557C150.132 268.593 147.286 257.923 147.286 257.923L162.149 252.39Z" fill="#F7A491"/>
<path d="M187.797 157.475C187.797 157.475 231.495 155.065 241.254 160.935C251.012 166.805 239.489 178.859 239.489 178.859C239.489 178.859 203.913 194.222 144.354 197.636C130.25 198.445 129.035 161.11 131.672 158.02C134.31 154.931 187.797 157.475 187.797 157.475Z" fill="#327F6B"/>
<path d="M150.982 288.809C142.33 287.893 143.399 283.671 144.097 280.466C144.534 278.46 147.016 276.094 148.496 273.857C149.269 274.469 150.527 275.549 154.284 276.651C158.186 277.796 163.535 275.531 166.943 274.112C168.158 278.602 168.214 284.329 168.1 285.197C167.961 286.266 159.634 289.724 150.982 288.809Z" fill="#355389"/>
<path d="M155.758 188.526C157.503 201.648 166.148 266.973 166.148 266.973L146.09 269.443C146.09 269.443 121.425 184.179 122.69 171.138C123.955 158.096 133.187 156.999 133.187 156.999C133.187 156.999 151.136 153.79 155.758 188.526Z" fill="#3C8F7C"/>
<path d="M174.972 2.75625C174.972 2.75625 168.308 -4.24632 162.948 4.27216C162.948 4.27216 158.819 1.96214 155.922 6.07707C155.922 6.07707 148.461 3.83916 146.65 14.9565C146.65 14.9565 142.811 14.2345 142.304 18.7826C141.797 23.3307 144.115 26.3628 144.115 26.3628C144.115 26.3628 141.958 27.9744 142.938 32.1561C143.771 35.7116 146.722 36.253 146.722 36.253C146.722 36.253 147.519 42.2449 150.127 44.0496C152.734 45.8545 156.284 44.9883 156.284 44.9883C156.284 44.9883 157.225 48.2369 160.268 47.948C163.31 47.6592 167.076 44.7716 170.481 46.071C173.885 47.3704 182.723 45.9987 182.723 45.9987C182.723 45.9987 192.646 41.5952 189.676 31.4883C189.676 31.4883 194.892 26.796 190.329 21.1651C190.329 21.1651 193.66 12.3578 187.069 7.15998C180.477 1.96214 174.972 2.75625 174.972 2.75625Z" fill="#07345A"/>
<path d="M173.846 50.2976L175.053 59.2169C175.053 59.2169 177.755 72.0672 174.278 74.5445C170.802 77.022 159.494 58.8505 159.494 58.8505L160.688 36.2493L173.846 50.2976Z" fill="#F7A491"/>
<path d="M160.302 43.5742C163.174 51.283 170.014 56.0218 174.869 57.8598L173.846 50.2978L160.688 36.2495L160.302 43.5742Z" fill="#F47458"/>
<path d="M168.722 12.5047C175.778 10.0843 183.298 14.7552 184.375 22.0034C184.843 25.1538 185.266 29.1155 185.345 33.4469C185.535 43.8647 180.124 54.0035 175.377 54.0035C170.63 54.0035 157.512 47.2596 157.037 32.47C156.744 23.3391 161.318 15.0446 168.722 12.5047Z" fill="#F7A491"/>
<path d="M157.12 37.8005C159.006 37.8005 160.534 35.9374 160.534 33.6393C160.534 31.3411 159.006 29.478 157.12 29.478C155.235 29.478 153.706 31.3411 153.706 33.6393C153.706 35.9374 155.235 37.8005 157.12 37.8005Z" fill="#F7A491"/>
<path d="M189.286 7.32104C194.189 11.1921 195.907 17.0737 193.124 20.4584C190.34 23.8428 184.109 23.4485 179.206 19.5776C174.303 15.7065 172.585 9.82472 175.369 6.44025C178.152 3.05579 184.383 3.45018 189.286 7.32104Z" fill="#07345A"/>
<path d="M132.728 67.457C138.646 65.2515 141.542 118.221 142.34 140.024C152.821 141.026 171.091 140.032 175.64 139.692C177.779 139.533 182.712 137.738 184.84 137.462C187.02 137.178 188.997 137.03 190.069 137.215C190.462 137.284 201.387 141.721 202.322 142.694C203.481 143.901 206.615 146.945 206.086 148.262C205.557 149.579 200.059 144.594 200.059 144.594L197.373 143.097C200.717 146.342 207.097 150.616 206.178 152.173C205.282 153.691 199.527 149.353 195.426 146.397C198.943 149.553 203.314 155.201 202.307 156.081C201.402 156.872 196.431 150.334 191.118 148.451C189.149 147.753 187.187 149.686 185.638 149.919C184.499 150.09 182.742 150.456 181.626 150.141L175.873 148.52C173.914 148.697 173.864 149.848 171.885 150.266C169.588 150.752 165.819 151.263 162.893 151.973C146.046 156.062 140.427 157.96 135.269 157.957C119.645 157.948 118.739 72.669 132.728 67.457Z" fill="#F7A491"/>
<path d="M121.495 117.187C120.387 94.8541 120.549 67.3279 133.153 62.6316C138.126 60.7787 146.893 71.9204 145.317 117.64C138.588 118.192 128.709 118.636 121.495 117.187Z" fill="#07345A"/>
<path d="M192.011 107.591H190.726L171.412 154.735L172.742 154.534L192.011 107.591Z" fill="#F79C8D"/>
<path d="M220.801 266.123C220.801 266.123 219.051 271.697 222.184 275.382C225.318 279.067 238.34 282.684 240.05 284.68C241.759 286.676 241.629 288.376 241.629 288.376L205.081 287.377L205.479 276.414L207.162 268.536L220.801 266.123Z" fill="#F7A491"/>
<path d="M224.458 277.22C224.458 277.22 215.067 280.993 210.531 278.759C205.994 276.525 206.131 275.907 204.819 276.739C203.506 277.573 203.036 287.85 203.036 287.85L244.133 289.049C246.993 288.984 248.439 286.892 246.116 285.101C244.522 283.873 242.681 283.051 241.635 282.455C238.42 280.624 224.458 277.22 224.458 277.22Z" fill="#355389"/>
<path d="M219.416 167.763C222.24 161.859 228.665 154.171 239.969 158.801C250.75 163.217 253.644 174.071 250.243 185.184C246.841 196.297 224.447 261.629 223.667 270.611L205.786 270.729C205.786 270.729 209.036 218.999 209.833 206.495C210.6 194.464 214.527 177.982 219.416 167.763Z" fill="#3C8F7C"/>
<path d="M248.442 107.591H188.673C187.092 107.591 185.667 108.543 185.067 110.002L166.664 154.735H133.713C132.792 154.735 132.045 155.479 132.045 156.397C132.045 157.314 132.792 158.058 133.713 158.058H227.494C230.073 158.058 232.411 156.55 233.467 154.206L251.997 113.066C253.155 110.496 251.268 107.591 248.442 107.591Z" fill="#F47458"/>
<path d="M216.263 133.64C215.859 135.649 214.1 136.993 212.335 136.641C210.569 136.289 209.465 134.375 209.869 132.366C210.272 130.356 212.031 129.013 213.797 129.365C215.562 129.717 216.666 131.63 216.263 133.64Z" fill="white"/>
<path d="M45.5223 216.168C45.9014 212.831 46.3517 209.417 47.9062 206.439C49.7962 202.817 53.1162 200.204 56.0172 197.326C61.4376 191.948 65.6088 185.321 68.1122 178.112C70.0479 172.538 71.0132 166.598 73.6809 161.334C75.3098 158.119 77.5312 155.245 79.3816 152.152C83.7547 144.842 86.135 136.203 92.0652 130.084C93.2063 137.503 90.9512 145.375 86.0538 151.068C84.5932 152.765 82.8992 154.296 81.7866 156.239C79.7666 159.766 79.9506 164.069 79.714 168.125C79.2693 175.749 77.1135 183.268 73.451 189.971C69.5601 197.092 63.944 203.433 61.8638 211.274C60.3048 217.15 60.7681 223.742 57.4447 228.834C57.0848 229.386 56.6725 229.941 56.5841 230.593C56.5345 230.96 56.5922 231.332 56.6497 231.697C56.7241 232.17 56.7984 232.644 56.8729 233.117C57.629 237.926 58.4101 244.045 54.2637 247.645C51.3898 250.139 47.6909 250.195 45.6273 246.882C43.549 243.545 43.7332 238.662 43.8874 234.907C44.1442 228.654 44.816 222.384 45.5223 216.168Z" fill="#3C8F7C"/>
<path d="M38.0533 212.3C39.6666 206.733 42.1705 201.43 43.4253 195.772C44.6425 190.284 44.652 184.609 44.6559 178.988C44.6603 172.828 44.6648 166.668 44.6692 160.508C44.6719 156.673 44.6761 152.817 45.312 149.035C46.6804 140.897 50.9239 133.373 51.6427 125.153C51.9534 121.598 51.5926 118.005 51.9846 114.459C52.2088 112.433 52.7304 110.364 53.6713 108.567C54.6834 106.634 57.4795 106.719 58.3963 108.699C60.4578 113.15 61.7648 117.961 60.9322 122.73C60.4327 125.591 59.1896 128.258 58.2611 131.01C54.1279 143.264 56.322 156.83 53.124 169.36C52.1586 173.142 50.6988 176.851 50.529 180.751C50.1224 190.084 57.1166 198.609 56.4752 207.929C55.949 215.57 50.4369 221.894 48.1232 229.196C46.8279 233.285 46.5506 237.648 45.163 241.706C44.0849 244.858 41.5779 248.687 37.6835 247.73C33.9865 246.821 35.1035 243.814 35.2686 240.941C35.8278 231.223 35.302 221.794 38.0533 212.3Z" fill="#327F6B"/>
<path d="M29.591 217.401C29.7539 214.508 30.2439 211.6 29.8379 208.731C29.4951 206.308 28.5274 204.025 27.8363 201.677C26.5414 197.278 26.2202 192.661 25.9067 188.087C25.3364 179.771 24.7664 171.456 24.1965 163.14C23.3105 150.214 22.4197 137.252 19.9947 124.524C19.3214 120.99 18.5654 117.161 20.159 113.935C20.4948 113.255 21.156 112.533 21.8806 112.76C22.3965 112.921 22.6501 113.488 22.8371 113.994C28.1378 128.352 30.1415 143.809 36.0583 157.924C37.4757 161.306 39.1243 164.632 39.8582 168.224C40.7392 172.537 40.2553 176.992 40.1416 181.392C39.9786 187.702 40.5951 194.061 42.3436 200.128C43.2584 203.302 44.4834 206.404 44.9845 209.669C45.6095 213.74 45.0849 217.886 44.6935 221.986C43.9412 229.868 43.6864 237.797 43.9309 245.711C44.0746 250.364 40.1337 250.242 37.5234 247.383C35.6977 245.384 35.7145 243.19 35.0895 240.701C33.0367 232.532 29.0927 226.259 29.591 217.401Z" fill="#3C8F7C"/>
<path d="M54.2115 230.018C57.6962 224.438 64.638 221.265 66.8653 215.076C67.432 213.501 67.6532 211.808 68.3459 210.284C69.8835 206.899 73.3798 204.986 76.8169 203.429C77.294 203.213 77.8366 203.557 77.8437 204.081C77.8552 204.913 77.4593 205.707 76.7676 206.171C74.1199 207.947 72.1075 210.663 71.2116 213.723C70.15 217.35 70.6105 221.327 69.2909 224.868C68.1832 227.841 65.9023 230.272 64.831 233.258C63.8517 235.988 63.9545 238.971 63.4941 241.834C63.0338 244.697 61.7576 247.736 59.1194 248.947C49.5747 253.331 51.9605 233.623 54.2115 230.018Z" fill="#327F6B"/>
<path d="M14.5114 228.176C14.6601 230.874 14.2462 233.702 15.3055 236.189C15.9833 237.779 17.2023 239.065 18.2029 240.476C21.7164 245.429 22.9907 252.447 28.3896 255.235C28.7458 255.42 29.1433 255.584 29.5376 255.511C30.0909 255.408 30.4534 254.877 30.6758 254.36C31.9992 251.287 30.5141 247.824 29.6347 244.596C29.4809 244.031 29.3516 243.402 29.622 242.882C29.9191 242.311 30.5967 242.063 31.0593 241.615C31.9818 240.72 31.895 239.241 31.7118 237.97C31.2542 234.795 30.6108 231.647 29.7861 228.547C29.3184 226.789 28.7784 225.016 27.762 223.507C26.6432 221.845 25.0184 220.605 23.4973 219.3C16.7747 213.537 11.6249 205.961 8.74254 197.593C8.11851 195.782 7.56208 193.87 6.27329 192.451C4.98431 191.033 2.68663 190.302 1.11697 191.403C0.000149906 192.187 4.57494 199.52 5.10824 200.4C6.63225 202.913 6.65261 205.099 7.51404 207.89C9.62473 214.729 14.1078 220.849 14.5114 228.176Z" fill="#3C8F7C"/>
<path d="M19.8326 231.296C18.834 228.722 17.8271 226.115 17.4978 223.375C17.1319 220.328 17.6172 217.213 17.0951 214.189C16.4239 210.302 14.1497 206.883 13.0238 203.102C12.211 200.371 12.0114 197.503 11.5229 194.696C10.1266 186.671 6.34052 178.829 7.42729 170.755C7.6635 168.999 8.45891 166.953 10.2075 166.653C11.7904 166.382 13.2318 167.825 13.6433 169.375C14.0548 170.925 13.7477 172.561 13.6348 174.16C13.3193 178.622 14.5966 183.18 17.1853 186.83C19.6723 190.338 23.2807 192.978 25.5187 196.649C28.2639 201.151 28.6373 206.648 30.0381 211.73C32.8239 221.838 39.8104 230.655 41.0843 241.06C41.591 245.201 40.6159 250.234 36.7815 251.888C25.6924 256.673 22.3448 237.771 19.8326 231.296Z" fill="#327F6B"/>
<path d="M39.2189 244.123H40.9926H64.6689C66.4089 244.123 67.6928 245.746 67.2905 247.436L58.0131 286.426C57.7245 287.639 56.6397 288.495 55.3914 288.495H40.9924H39.2187H24.8197C23.5717 288.495 22.4867 287.639 22.1981 286.426L12.9206 247.436C12.5184 245.746 13.8022 244.123 15.5423 244.123H39.2189Z" fill="#F47458"/>
<path d="M179.677 42.4403L170.488 42.2908C170.488 42.2908 170.642 45.7727 174.682 45.9548C179.607 46.1768 179.677 42.4403 179.677 42.4403Z" fill="white"/>
</svg>
