<svg id="guy" width="301" height="298" viewBox="0 0 301 298" fill="none" xmlns="http://www.w3.org/2000/svg">
    <path opacity="0.15"
        d="M276.905 260.555C289.707 260.555 300.085 258.579 300.085 256.142C300.085 253.705 289.707 251.729 276.905 251.729C264.103 251.729 253.725 253.705 253.725 256.142C253.725 258.579 264.103 260.555 276.905 260.555Z"
        fill="#1F3C88" />
    <path
        d="M266.271 247.551C261.255 247.551 255.672 240.209 255.672 235.234C255.672 230.176 259.705 226.062 264.661 226.062C269.618 226.062 273.65 230.176 273.65 235.234C273.65 239.996 271.646 247.551 266.271 247.551ZM264.661 229.112C261.386 229.112 258.722 231.858 258.722 235.234C258.722 238.958 263.237 244.501 266.271 244.501C269.058 244.501 270.6 239.022 270.6 235.234C270.6 231.858 267.935 229.112 264.661 229.112Z"
        fill="#1F3C88" />
    <path
        d="M283.611 255.487H270.414C268.222 255.487 266.395 253.806 266.214 251.621L263.485 218.735H291.087L287.805 251.69C287.591 253.846 285.777 255.487 283.611 255.487Z"
        fill="#1F3C88" />
    <path
        d="M266.686 179.291C265.761 182.387 265.348 185.573 265.872 188.638C266.133 190.165 266.568 191.655 267.172 193.085C267.793 194.508 268.563 195.872 269.441 197.174C270.349 198.458 271.313 199.716 272.403 200.88C272.661 201.16 272.942 201.507 273.225 201.846C273.501 202.189 273.795 202.511 274.053 202.871L274.785 203.997C275.039 204.363 275.19 204.814 275.391 205.219C275.603 205.62 275.706 206.087 275.838 206.531C275.992 206.968 276.017 207.452 276.073 207.919C276.108 208.152 276.102 208.39 276.081 208.629L276.033 209.339C275.999 209.573 275.934 209.803 275.884 210.034C275.832 210.264 275.782 210.495 275.685 210.709L275.418 211.356C275.309 211.561 275.19 211.758 275.076 211.957C274.968 212.161 274.829 212.341 274.693 212.523C274.556 212.703 274.428 212.89 274.268 213.047C273.666 213.723 272.996 214.267 272.195 214.719L271.686 213.912C272.816 212.917 273.741 211.58 274.055 210.204C274.116 210.036 274.13 209.859 274.15 209.684C274.167 209.51 274.202 209.338 274.209 209.165L274.186 208.641C274.187 208.468 274.175 208.295 274.125 208.123C274.045 207.78 274.023 207.434 273.867 207.102C273.735 206.768 273.649 206.426 273.443 206.112C273.252 205.795 273.119 205.462 272.891 205.159L272.236 204.244C272.002 203.947 271.724 203.673 271.473 203.386L270.663 202.503C270.083 201.882 269.505 201.259 268.975 200.588C268.417 199.943 267.925 199.237 267.432 198.537C266.501 197.094 265.629 195.592 265.011 193.963C264.398 192.337 263.963 190.632 263.806 188.895C263.449 185.412 264.277 181.917 265.803 178.929L266.686 179.291Z"
        fill="#D3DFFF" />
    <path
        d="M278.673 178.35C280.38 179.749 281.777 181.697 282.421 183.945C282.758 185.06 282.903 186.227 282.919 187.386C282.935 188.548 282.748 189.688 282.518 190.803C282.258 191.91 281.885 192.98 281.453 194.009L281.164 194.716C281.079 194.937 280.974 195.159 280.901 195.381L280.716 196.046C280.648 196.27 280.641 196.482 280.594 196.702C280.538 196.926 280.56 197.131 280.55 197.345C280.526 197.565 280.584 197.757 280.604 197.964C280.611 198.177 280.709 198.352 280.75 198.558C280.841 198.738 280.907 198.939 281.031 199.109C281.454 199.828 282.268 200.439 283.118 200.826L282.931 201.761C281.72 201.635 280.591 201.118 279.688 200.163C279.462 199.932 279.292 199.646 279.108 199.373C278.975 199.077 278.789 198.785 278.711 198.469C278.625 198.155 278.52 197.833 278.505 197.516C278.475 197.198 278.424 196.87 278.455 196.564C278.48 196.258 278.462 195.929 278.531 195.637L278.713 194.747C278.786 194.457 278.889 194.186 278.977 193.904C279.071 193.623 279.161 193.334 279.248 193.115C279.629 192.174 279.904 191.208 280.154 190.248C280.384 189.283 280.527 188.309 280.587 187.338C280.632 186.366 280.564 185.4 280.399 184.444C280.061 182.526 279.162 180.719 277.978 179.004L278.673 178.35Z"
        fill="#D3DFFF" />
    <path opacity="0.15"
        d="M239.385 256.412C239.385 250.691 188.421 246.054 125.554 246.054C62.686 246.054 11.722 250.691 11.722 256.412C11.722 261.052 45.2515 264.979 91.4649 266.298C96.4974 274.554 88.0969 284.429 81.6585 287.991C70.3525 288.555 62.2385 289.813 63.5164 292.497C69.5585 305.185 120.907 291.684 120.907 291.684C120.907 291.684 140.986 292.932 140.986 291.023C140.986 290.144 137.45 289.342 131.634 288.732L132.064 288.707L110.387 266.679C115.349 266.739 120.411 266.771 125.554 266.771C188.421 266.77 239.385 262.133 239.385 256.412Z"
        fill="#1F3C88" />
    <path
        d="M249.44 180.322C247.94 205.082 235.459 229.824 215 243.439C190.612 259.671 156.513 256.078 128.74 258.146C104.73 259.933 80.5376 261.47 56.5219 258.914C36.8433 256.816 16.9939 249.02 7.59377 229.915C-1.82463 210.767 -2.84333 185.324 6.57507 165.944C9.57627 159.759 13.5962 154.263 18.3237 149.468C19.0923 148.681 19.8914 147.913 20.7027 147.162C21.2517 146.656 21.8068 146.156 22.3741 145.668C23.2403 144.918 24.1309 144.186 25.0337 143.472C25.3326 143.24 25.6315 143.008 25.9365 142.776C26.2354 142.545 26.5404 142.319 26.8454 142.093C27.1504 141.867 27.4554 141.642 27.7665 141.422C27.9983 141.257 28.2301 141.093 28.4619 140.928C28.8462 140.654 29.2366 140.385 29.6331 140.123C33.1406 137.756 36.8372 135.676 40.6497 133.889C44.3585 132.138 48.1771 130.662 52.0201 129.466C64.6532 125.544 77.8475 124.153 90.8832 122.439C118.547 118.809 146.71 117.571 174.593 117.589C197.346 117.596 222.966 120.999 238.18 140.532C246.768 151.561 250.301 166.219 249.44 180.322Z"
        fill="#FB7575" />
    <path
        d="M202.599 138.503C202.599 138.503 208.468 132.99 211.578 129.799C214.688 126.608 207.902 126.505 204.558 130.481C201.213 134.458 202.599 138.503 202.599 138.503Z"
        fill="#F9B384" />
    <path
        d="M40.6495 133.889C36.8369 135.676 33.1403 137.756 29.6328 140.123C29.2363 140.385 28.8459 140.654 28.4616 140.928C28.2298 141.093 27.998 141.258 27.7662 141.422C27.4551 141.642 27.1501 141.868 26.8451 142.093C26.5401 142.319 26.2351 142.545 25.9362 142.776C25.6312 143.008 25.3323 143.24 25.0334 143.472C24.1428 144.179 23.2705 144.906 22.4104 145.65L22.3738 145.668C21.8065 146.156 21.2514 146.656 20.7024 147.163C19.8911 147.913 19.092 148.682 18.3234 149.468C18.3905 150.115 18.8114 150.737 19.5032 150.879C24.0816 151.805 26.3745 156.173 30.0647 158.657C32.8034 160.5 36.0408 161.005 39.1396 159.949C35.8034 167.015 33.9629 174.024 35.4034 181.933C35.8422 184.324 36.6015 186.652 37.6375 188.851C33.3497 185.666 29.2195 178.845 27.521 171.927C27.2797 170.945 26.2878 170.329 25.3074 170.586C24.3261 170.827 23.7256 171.818 23.9667 172.8C26.0695 181.365 31.4231 189.594 36.9851 192.812C38.3095 193.578 39.6544 194.066 40.9864 194.29C42.0883 195.702 43.3181 197.013 44.6693 198.189L52.8922 200.489L59.6022 157.179L40.6495 133.889Z"
        fill="#B94444" />
    <path
        d="M64.4821 162.974C47.4809 156.352 35.6777 149.311 28.8254 144.622C24.3839 141.582 22.1374 136.223 23.0475 130.919L31.8144 79.8167C32.7167 74.557 36.2042 70.0853 41.1089 67.9825C55.1738 61.9515 68.8678 58.505 80.9521 56.8339C80.9521 56.8339 87.7214 56.2878 96.3546 57.1389C102.036 57.6988 115.041 61.5314 123.309 64.0992C127.98 65.55 131.73 69.0478 133.499 73.6081C136.965 82.5434 142.596 97.6316 144.392 105.786C150.594 133.948 149.577 131.864 149.577 131.864L155.982 175.174L87.9671 178.986L70.5821 171.056L64.4821 162.974Z"
        fill="#708CD5" />
    <path
        d="M106.572 8.18613C106.572 8.18613 100.548 -4.16637 84.5358 1.47613C72.9458 -1.04024 64.1008 12.685 72.6408 31.3661L88.7296 35.1025L106.572 8.18613Z"
        fill="#102048" />
    <path
        d="M98.0321 43.1086V64.9588C98.0321 70.0706 93.8841 74.2186 88.7723 74.2186C81.8427 74.2186 76.2246 68.6005 76.2246 61.6709V43.1086H98.0321Z"
        fill="#F9B384" />
    <path d="M98.0321 52.1732V64.0926C88.3149 64.1414 81.8672 51.5754 81.8672 51.5754L98.0321 52.1732Z"
        fill="#E28B6D" />
    <path
        d="M107.646 40.3575C107.06 43.3831 106.224 46.4819 105.023 49.2086C102.924 53.9971 99.7219 57.6449 94.8297 57.7486C83.3799 57.9926 74.5471 42.3461 74.5471 42.3461L76.3771 20.9961L85.0696 11.2361L109.012 26.0286C109.012 26.0286 109.079 32.9704 107.646 40.3575Z"
        fill="#F9B384" />
    <path
        d="M75.996 36.0936C75.996 36.0936 78.3599 26.4861 86.5949 20.2336C86.5949 20.2336 98.5662 35.865 111.224 28.3161C123.881 20.7673 118.391 5.89863 106.572 8.18613L92.9999 6.66113L75.996 12.075L73.0985 25.4189L75.996 36.0936Z"
        fill="#102048" />
    <path opacity="0.4"
        d="M88.013 146.822C76.4789 121.9 61.9406 133.795 58.3824 124.645C53.3965 111.824 54.3415 97.3207 54.3156 92.9253L47.369 132.042C47.369 132.042 62.8786 133.516 68.6128 142.855L88.013 146.822Z"
        fill="#1F3C88" />
    <path
        d="M54.6694 92.2584C54.2368 95.6046 53.7271 98.9376 53.2 102.267C52.6876 105.599 52.0854 108.916 51.5325 112.241C50.9533 115.561 50.3452 118.877 49.6947 122.185L48.7009 127.143C48.3415 128.791 48.007 130.443 47.6212 132.086L47.1166 131.997C47.3182 130.322 47.571 128.655 47.7989 126.984L48.5672 121.985C49.0913 118.655 49.6581 115.332 50.2537 112.015C50.8754 108.702 51.4481 105.38 52.1103 102.074C52.7579 98.7661 53.423 95.4611 54.165 92.1693L54.6694 92.2584Z"
        fill="#1F3C88" />
    <path
        d="M122.057 86.0719C122.98 90.418 123.832 94.7766 124.668 99.1381C125.517 103.497 126.282 107.872 127.094 112.238C127.868 116.61 128.625 120.986 129.362 125.365L130.426 131.941C130.755 134.138 131.106 136.331 131.41 138.532L130.941 138.616C130.465 136.445 130.038 134.266 129.587 132.091L128.312 125.553C127.49 121.188 126.689 116.821 125.904 112.45C125.156 108.073 124.363 103.703 123.653 99.3194C122.93 94.9379 122.223 90.5532 121.587 86.1558L122.057 86.0719Z"
        fill="#1F3C88" />
    <path opacity="0.4"
        d="M125.279 106.244C126.092 114.174 124.872 155.247 105.759 155.857L105.962 164.804L136.055 162.974L125.279 106.244Z"
        fill="#1F3C88" />
    <path
        d="M85.9846 154.739C99.5572 148.944 102.152 149.16 103.98 149.249C110.232 149.554 119.23 162.059 119.23 162.059L119.077 164.346H84.7646L85.9846 154.739Z"
        fill="#E28B6D" />
    <path d="M138.191 162.109H95.9481V168.514H138.191V162.109Z" fill="white" />
    <path d="M195.632 168.519H122.229L138.699 102.924H212.102L195.632 168.519Z" fill="#FBC343" />
    <path
        d="M202.285 141.692C195.022 140.607 171.537 135.727 123.144 165.21L122.026 169.277L195.632 168.52L202.285 141.692Z"
        fill="#C89B35" />
    <path
        d="M203.677 156.264C203.219 159.352 203.067 163.889 193.497 163.317L190.676 161.868L193.345 158.932L199.102 155.997L203.677 156.264Z"
        fill="#F9B384" />
    <path
        d="M204.579 147.927C204.579 147.927 209.816 154.769 204.553 156.874C198.835 159.161 193.345 158.932 193.345 158.932C195.785 152.07 203.715 152.527 203.715 152.527L204.579 147.927Z"
        fill="#F9B384" />
    <path
        d="M204.731 143.504C204.731 143.504 211.95 150.214 205.24 152.095C195.764 154.751 192.836 154.942 192.836 154.942C192.328 149.909 201.732 146.656 201.732 146.656L204.731 143.504Z"
        fill="#F9B384" />
    <path
        d="M203.257 137.659C203.257 137.659 213.119 143.657 203.867 147.012C194.616 150.367 192.43 150.316 192.43 150.316C191.921 145.284 201.834 143.555 201.834 143.555L203.257 137.659Z"
        fill="#F9B384" />
    <path d="M192.43 150.316C192.43 150.316 203.181 148.791 206.383 146.198" stroke="#E28B6D" stroke-width="2.5"
        stroke-miterlimit="10" />
    <path d="M192.836 154.942C192.836 154.942 204.02 153.366 207.527 150.926" stroke="#E28B6D" stroke-width="2.5"
        stroke-miterlimit="10" />
    <path d="M193.345 158.932C193.345 158.932 199.978 159.161 203.715 157.331" stroke="#E28B6D" stroke-width="2.5"
        stroke-miterlimit="10" />
    <path d="M89.1871 255.084C90.3054 254.474 107.995 258.337 127.617 243.799L102.302 236.58L89.1871 255.084Z"
        fill="#102048" />
    <path
        d="M201.592 171.117C202.434 169.915 203.16 168.146 202.098 167.134C200.994 166.072 199.188 167.006 198.029 168.006C195.986 169.763 194.132 171.69 192.417 173.74L149.681 181.682L91.1208 195.914L101.189 208.765C130.469 210.9 147.146 211.449 165.469 208.216C174.809 206.568 183.158 204.868 189.386 199.793C190.868 198.579 192.271 196.542 191.308 194.889C190.655 193.772 189.301 193.48 187.94 193.492C191.07 192.754 194.107 191.674 196.993 190.264C198.28 189.642 199.713 188.666 199.683 187.239C199.665 186.214 198.835 185.348 197.883 184.982C196.932 184.616 195.882 184.647 194.864 184.72C190.96 185.013 187.099 185.867 183.432 187.245C190.106 182.585 196.895 177.76 201.592 171.117ZM183.341 187.306C183.341 187.294 183.347 187.288 183.359 187.276C183.377 187.27 183.402 187.264 183.42 187.252C183.396 187.27 183.365 187.288 183.341 187.306Z"
        fill="#B94444" />
    <path
        d="M103.522 176.699C103.522 176.699 160.557 149.554 179.162 150.774C197.767 151.994 197.157 175.174 190.142 185.239C183.127 195.304 166.657 208.724 105.962 204.759L103.522 176.699Z"
        fill="#102048" />
    <path
        d="M132.064 288.707C128.977 289.579 124.598 289.793 118.571 288.835C118.571 288.835 110.763 290.86 103.077 292.452C97.8735 293.532 92.7312 294.41 90.1021 294.325C89.8764 294.319 89.6507 294.307 89.4189 294.288C84.3742 293.928 78.018 291.299 74.6447 287.542C74.6386 287.529 74.6325 287.517 74.6203 287.511C73.6931 286.474 72.9916 285.346 72.6134 284.162C70.7834 278.465 74.6508 271.554 95.5921 272.975C95.5921 272.975 102.503 271.352 104.132 266.265C105.761 261.184 93.7621 236.784 93.7621 236.784L110.842 225.194L127.617 243.799C127.617 243.799 130.161 260.574 130.161 266.064C130.161 266.064 137.273 276.232 138.292 280.704C138.945 283.558 137.517 287.163 132.064 288.707Z"
        fill="#D3DFFF" />
    <path
        d="M36.031 134.215C37.9874 133.462 39.9806 132.854 41.9961 132.294C43.0048 132.019 44.0201 131.761 45.0541 131.558C45.5702 131.454 46.0921 131.365 46.6211 131.292C46.8871 131.256 47.1516 131.228 47.4282 131.206C47.722 131.192 48.0094 131.195 48.2832 131.223C50.4743 131.453 52.4607 132.141 54.434 132.87C56.3967 133.618 58.3182 134.456 60.2051 135.362C62.0975 136.257 63.939 137.254 65.7507 138.299C67.5614 139.346 69.3431 140.444 71.0748 141.619C74.5154 143.994 77.826 146.603 80.6757 149.677L80.3138 150.04C78.7803 148.652 77.1843 147.34 75.5241 146.113C73.8771 144.869 72.1723 143.701 70.4291 142.595C66.9712 140.336 63.34 138.35 59.6441 136.516C57.7948 135.6 55.9121 134.754 53.9992 133.999C52.0879 133.285 50.1308 132.52 48.1837 132.256C47.9404 132.221 47.7091 132.213 47.4827 132.215C47.2413 132.227 46.9876 132.246 46.7382 132.272C46.2358 132.328 45.7307 132.399 45.2257 132.487C44.216 132.664 43.2044 132.869 42.1964 133.095C40.1822 133.553 38.1743 134.087 36.2035 134.697L36.031 134.215Z"
        fill="#1F3C88" />
    <path
        d="M46.1821 214.061C53.0446 213.604 59.7888 214.095 64.6854 212.384C69.9212 210.554 83.5954 211.774 83.5954 211.774L76.0721 200.946L45.5721 208.571L46.1821 214.061Z"
        fill="#B35341" />
    <path
        d="M46.4872 194.084C39.4722 182.799 39.4722 160.534 48.3172 150.469C58.4261 138.965 80.0372 134.609 91.3222 148.029C102.607 161.449 123.347 210.554 127.617 243.799C127.617 243.799 104.742 236.174 89.1872 255.084C89.1872 255.084 68.7522 208.419 64.4822 191.339L52.8922 200.489L46.4872 194.084Z"
        fill="#1F3C88" />
    <path
        d="M64.4821 191.339C64.4821 191.339 61.4321 190.22 57.1621 193.067C57.1621 193.067 23.8154 192.355 16.3939 199.879C8.97238 207.402 14.6656 217.467 25.5439 218.585C34.6739 219.524 52.3978 212.442 57.8588 210.141C58.9677 209.674 60.1465 209.393 61.3475 209.315L70.3789 208.724L64.4821 191.339Z"
        fill="#D3DFFF" />
    <path
        d="M77.7992 36.7157C77.7992 36.7157 75.5627 29.3032 70.6424 31.1561C65.7219 33.0093 68.342 42.6583 78.0549 45.342L77.7992 36.7157Z"
        fill="#F9B384" />
    <path
        d="M72.5592 77.5893C74.9878 79.3019 77.5761 80.7752 80.3211 81.8195C83.0637 82.848 85.9578 83.4995 88.8607 83.4304C91.7569 83.3951 94.6249 82.6809 97.2128 81.3574L98.1868 80.8623C98.5057 80.6867 98.7986 80.4656 99.1065 80.2692C99.7138 79.8629 100.343 79.482 100.885 78.9833L101.742 78.2881L102.172 77.9402C102.312 77.8196 102.436 77.6825 102.568 77.5544C103.089 77.031 103.617 76.5123 104.153 75.9965L104.518 76.3037C104.038 76.8839 103.549 77.461 103.052 78.0336C102.926 78.1754 102.809 78.3257 102.676 78.4606L102.263 78.852L101.434 79.6355C100.895 80.1774 100.262 80.6066 99.6472 81.0609C99.3354 81.2815 99.0384 81.5265 98.7127 81.7271L97.7135 82.2978C95.0392 83.8065 91.9553 84.6207 88.8733 84.6387C85.7914 84.6458 82.7331 83.9777 79.9354 82.7743C77.1294 81.5829 74.5466 79.9327 72.265 77.9643L72.5592 77.5893Z"
        fill="#1F3C88" />
    <path
        d="M59.4277 171.865L62.071 181.113C62.9699 184.189 63.8104 187.28 64.7498 190.342C65.6692 193.409 66.5852 196.477 67.55 199.528C68.0326 201.053 68.5089 202.582 69.0377 204.091C69.2958 204.847 69.5293 205.615 69.8024 206.366C70.0754 207.117 70.3411 207.872 70.5993 208.631L70.1593 208.815C69.4783 207.357 68.84 205.877 68.2376 204.385C67.6383 202.89 67.0925 201.378 66.5396 199.866C65.4562 196.836 64.4983 193.766 63.5904 190.683C62.7102 187.592 61.8399 184.499 61.0757 181.378C60.3027 178.26 59.5729 175.133 58.9639 171.975L59.4277 171.865Z"
        fill="#102048" />
    <path opacity="0.1"
        d="M132.064 288.707C128.977 289.579 124.598 289.793 118.571 288.835C118.571 288.835 105.657 292.141 97.4985 293.437C105.886 291.76 118.086 281.39 116.713 274.832C128.761 278.798 132.04 284.821 132.064 288.707Z"
        fill="#1F3C88" />
    <path opacity="0.4"
        d="M99.6303 289.854C98.0748 291.769 95.7568 293.068 93.3229 293.721C92.048 294.063 90.7363 294.246 89.4189 294.288C84.3742 293.928 78.018 291.299 74.6447 287.542C74.6386 287.53 74.6325 287.517 74.6203 287.512C74.2604 287.024 73.9249 286.517 73.6321 285.992C75.4255 287.664 77.3775 289.03 79.482 290.074C80.5373 290.574 81.6048 291.055 82.7211 291.391C83.264 291.599 83.8313 291.721 84.3925 291.879C84.9476 292.05 85.5271 292.117 86.1005 292.22C90.6572 292.989 95.4948 292.513 99.6303 289.854Z"
        fill="#1F3C88" />
    <path
        d="M75.5885 37.7673C75.4755 37.1014 75.1622 36.4802 74.7938 35.9129C74.4171 35.3524 73.9681 34.8286 73.4491 34.4618C72.9294 34.0983 72.3655 33.9167 71.8897 34.1741C71.3903 34.4228 70.9947 35.0289 70.6495 35.644L70.3118 35.5264C70.4572 34.8029 70.7246 34.007 71.482 33.4817C71.8556 33.2211 72.367 33.1281 72.8113 33.2084C73.2581 33.2892 73.6485 33.4809 73.9783 33.7205C74.6369 34.2051 75.1193 34.8347 75.4704 35.5225C75.8108 36.2079 76.0555 36.9819 75.9462 37.7749L75.5885 37.7673Z"
        fill="#E28B6D" />
    <path
        d="M102.851 39.2137C103.614 39.3693 104.407 38.6424 104.622 37.5901C104.836 36.5378 104.391 35.5586 103.628 35.403C102.864 35.2475 102.072 35.9744 101.857 37.0267C101.643 38.079 102.088 39.0582 102.851 39.2137Z"
        fill="#102048" />
    <path
        d="M91.0261 38.8249C91.795 38.9504 92.5585 38.1928 92.7314 37.1329C92.9043 36.073 92.4211 35.112 91.6522 34.9866C90.8833 34.8612 90.1199 35.6188 89.947 36.6787C89.7741 37.7386 90.2572 38.6995 91.0261 38.8249Z"
        fill="#102048" />
    <path
        d="M97.772 38.5525C97.8445 39.4184 97.8791 40.2805 97.8891 41.124C97.9233 41.4468 98.0733 41.723 98.3427 42.0166C98.6026 42.3076 98.9388 42.6119 99.2294 43.0357C99.3746 43.2449 99.4888 43.512 99.5449 43.7751C99.6059 44.0364 99.6135 44.2963 99.5964 44.5517C99.5532 45.0595 99.3731 45.559 99.0354 45.9701C98.8702 46.1768 98.6492 46.3468 98.4083 46.4713C98.1582 46.5789 97.8891 46.6479 97.63 46.6353C97.1085 46.6121 96.6606 46.4103 96.288 46.1492L96.4571 45.834C96.8518 45.9625 97.2464 46.0618 97.5951 45.9962C97.9406 45.9479 98.2158 45.7632 98.3993 45.4794C98.7724 44.9231 98.8268 44.0525 98.4667 43.5335C98.2785 43.2324 97.9669 42.9496 97.6717 42.5778C97.3733 42.2257 97.0883 41.6937 97.1083 41.1403C97.1744 40.2544 97.2801 39.3865 97.4155 38.5225L97.772 38.5525Z"
        fill="#E28B6D" />
    <path
        d="M87.9386 33.4452C88.4246 32.9604 89.0024 32.5578 89.6515 32.2691C90.2974 31.9785 91.0311 31.8177 91.7745 31.8636C92.518 31.9068 93.2473 32.1832 93.8283 32.6158C94.4141 33.0453 94.8655 33.6028 95.1998 34.2045L94.9175 34.4241C94.4131 33.9949 93.9261 33.5911 93.3944 33.2922C92.8645 32.9938 92.2967 32.8122 91.7106 32.7717C90.5279 32.6812 89.3245 33.1521 88.1484 33.7348L87.9386 33.4452Z"
        fill="#102048" />
    <path
        d="M100.35 34.4895C100.552 33.8402 101.092 33.328 101.686 33.0235C102.287 32.7097 102.964 32.577 103.632 32.5882C104.302 32.6028 104.974 32.7751 105.557 33.1172C106.14 33.4534 106.623 33.971 106.875 34.5722L106.575 34.7677C105.746 33.9341 104.704 33.5354 103.609 33.4983C102.529 33.4742 101.385 33.7724 100.671 34.6474L100.35 34.4895Z"
        fill="#102048" />
    <path d="M92.0217 48.8135L100.113 49.39C100.113 49.39 95.5995 55.3768 92.0217 48.8135Z" fill="white" />
</svg>