<svg width="3620" height="5845" viewBox="0 0 3620 5845" fill="none" xmlns="http://www.w3.org/2000/svg">
<g style="mix-blend-mode:multiply" opacity="0.620131">
<rect width="3620" height="5845"/>
</g>
<rect x="953" y="333" width="2498" height="4968"/>
<path fill-rule="evenodd" clip-rule="evenodd" d="M3282.19 2807.53C3282.19 3513.18 3282.16 4218.83 3282.25 4924.48C3282.26 4967.59 3271.66 5007.64 3248.65 5043.99C3211.83 5102.18 3158.87 5136.48 3091.04 5147.64C3080.57 5149.36 3069.81 5149.94 3059.19 5149.94C2489.87 5150.05 1920.55 5150.06 1351.24 5150.01C1241.65 5150 1147.81 5070 1130.54 4961.73C1128.5 4948.97 1127.93 4935.86 1127.92 4922.91C1127.78 4590.58 1127.81 4258.26 1127.81 3925.93C1127.81 2847.63 1127.84 1769.33 1127.72 691.031C1127.72 649.72 1136.89 610.982 1158.06 575.587C1193.54 516.251 1245.38 479.805 1313.7 467.632C1324.8 465.654 1336.16 464.221 1347.41 464.175C1421.74 463.868 1496.07 463.975 1570.4 464.029C1589.3 464.042 1600.18 473.851 1602.15 492.597C1602.91 499.845 1603.35 507.154 1603.42 514.44C1603.58 529.942 1605.93 545.037 1612.07 559.277C1631.33 603.921 1664.81 630.112 1713.39 636.094C1721.95 637.149 1730.65 637.424 1739.29 637.425C2053.28 637.49 2367.28 637.476 2681.27 637.486C2703.92 637.486 2725.79 633.753 2745.66 622.427C2786.86 598.946 2808.68 563.451 2810.53 515.884C2810.86 507.263 2811.1 498.618 2811.96 490.044C2813.42 475.642 2824.6 465.171 2839.15 464.074C2841.47 463.899 2843.82 464.006 2846.15 464.005C2916.48 464.004 2986.81 463.943 3057.14 464.02C3163.63 464.136 3253.91 536.177 3277.02 640.027C3280.18 654.226 3280.68 669.037 3282.1 683.595C3282.61 688.879 3282.19 694.254 3282.19 699.587C3282.19 1402.24 3282.19 2104.88 3282.19 2807.53Z" fill="#FEFEFE"/>
<mask id="mask0" mask-type="alpha" maskUnits="userSpaceOnUse" x="1127" y="463" width="2156" height="4688">
<path fill-rule="evenodd" clip-rule="evenodd" d="M3282.19 2807.53C3282.19 3513.18 3282.16 4218.83 3282.25 4924.48C3282.26 4967.59 3271.66 5007.64 3248.65 5043.99C3211.83 5102.18 3158.87 5136.48 3091.04 5147.64C3080.57 5149.36 3069.81 5149.94 3059.19 5149.94C2489.87 5150.05 1920.55 5150.06 1351.24 5150.01C1241.65 5150 1147.81 5070 1130.54 4961.73C1128.5 4948.97 1127.93 4935.86 1127.92 4922.91C1127.78 4590.58 1127.81 4258.26 1127.81 3925.93C1127.81 2847.63 1127.84 1769.33 1127.72 691.031C1127.72 649.72 1136.89 610.982 1158.06 575.587C1193.54 516.251 1245.38 479.805 1313.7 467.632C1324.8 465.654 1336.16 464.221 1347.41 464.175C1421.74 463.868 1496.07 463.975 1570.4 464.029C1589.3 464.042 1600.18 473.851 1602.15 492.597C1602.91 499.845 1603.35 507.154 1603.42 514.44C1603.58 529.942 1605.93 545.037 1612.07 559.277C1631.33 603.921 1664.81 630.112 1713.39 636.094C1721.95 637.149 1730.65 637.424 1739.29 637.425C2053.28 637.49 2367.28 637.476 2681.27 637.486C2703.92 637.486 2725.79 633.753 2745.66 622.427C2786.86 598.946 2808.68 563.451 2810.53 515.884C2810.86 507.263 2811.1 498.618 2811.96 490.044C2813.42 475.642 2824.6 465.171 2839.15 464.074C2841.47 463.899 2843.82 464.006 2846.15 464.005C2916.48 464.004 2986.81 463.943 3057.14 464.02C3163.63 464.136 3253.91 536.177 3277.02 640.027C3280.18 654.226 3280.68 669.037 3282.1 683.595C3282.61 688.879 3282.19 694.254 3282.19 699.587C3282.19 1402.24 3282.19 2104.88 3282.19 2807.53Z" fill="white"/>
</mask>
<g mask="url(#mask0)">
<rect x="1118" y="444" width="2173" height="4706" fill="url(#paint0_linear)"/>
<g filter="url(#filter0_f)">
<path fill-rule="evenodd" clip-rule="evenodd" d="M2372.4 2389.28C2278.81 2409.35 2194.45 2384.65 2131.96 2306.29C2122.09 2293.91 2114.01 2279.78 2106.91 2265.56C2091.76 2235.25 2078.33 2204.05 2063.22 2173.7C2033.51 2113.97 2003.14 2054.57 1973 1995.06C1972.71 1994.48 1972 1994.11 1970.27 1992.53C1955.71 2021.79 1910.86 2110.73 1859.75 2212.03C1852.72 2200.62 1844.3 2189.67 1834.59 2179.89C1801.45 2146.52 1757.56 2127.89 1711 2127.89H1710.49C1705.65 2127.89 1700.86 2128.37 1696.1 2128.77C1799.4 1928.72 1921.44 1693.56 1969.18 1597.96C1969.71 1596.92 1970.21 1595.95 1970.74 1594.93C1973.19 1599.34 1974.96 1602.26 1976.46 1605.28C2026.87 1707.11 2077.18 1791.56 2127.64 1893.35C2143.63 1925.64 2159.65 1957.91 2175.68 1990.19C2205.05 2049.27 2235.36 2107.87 2264.96 2166.83C2279.29 2195.42 2300.16 2213.89 2333.8 2213.38C2340.03 2213.28 2346.48 2212.25 2352.39 2210.32C2486.3 2166.69 2546.47 2007.79 2474.4 1886.69C2431.22 1814.16 2365.69 1778.82 2282.15 1776.15C2277.45 1776 2271.23 1775.91 2264.01 1775.88C2257.83 1775.86 2250.91 1775.87 2243.61 1775.9C2211.66 1772.92 2183.76 1755.94 2166.1 1731.15L2097.05 1595.8H2132.24C2146.41 1595.8 2160.6 1595.76 2174.78 1595.72C2211.35 1595.59 2247.93 1595.38 2284.52 1595.51C2301.79 1595.57 2318.82 1596.75 2335.56 1598.99C2504.81 1621.55 2643.11 1751.87 2675.9 1923.69C2716.12 2134.49 2581.51 2344.44 2372.4 2389.28Z" fill="#595959" fill-opacity="0.74"/>
<path d="M1710.42 2395.38C1660.54 2395.41 1619.26 2354.39 1619 2304.56C1618.73 2253.55 1659.76 2212.15 1710.73 2212C1760.84 2211.85 1802.4 2253.63 1802.1 2303.87C1801.81 2354.61 1760.97 2395.37 1710.42 2395.38Z" fill="#595959" fill-opacity="0.74"/>
</g>
<path d="M2410.2 2369.08C2316.55 2389.15 2232.13 2364.46 2169.61 2286.12C2159.73 2273.74 2151.65 2259.62 2144.54 2245.4C2136.85 2230.03 2129.6 2214.42 2122.35 2198.81C2115.31 2183.66 2108.27 2168.51 2100.83 2153.57C2078.94 2109.63 2056.7 2065.86 2034.46 2022.09C2026.48 2006.39 2018.51 1990.69 2010.55 1974.99C2010.37 1974.64 2010.05 1974.37 2009.44 1973.87C2009.04 1973.54 2008.51 1973.1 2007.81 1972.46C1993.24 2001.71 1948.36 2090.63 1897.22 2191.89C1890.19 2180.48 1881.76 2169.54 1872.05 2159.76C1838.88 2126.41 1794.97 2107.78 1748.37 2107.78H1747.86C1743.64 2107.78 1739.44 2108.14 1735.28 2108.51C1734.67 2108.56 1734.07 2108.61 1733.46 2108.66C1755.56 2065.91 1778.52 2021.56 1801.42 1977.3C1885.65 1814.54 1969.17 1653.16 2006.72 1578.02C2007.07 1577.34 2007.41 1576.69 2007.75 1576.03C2007.92 1575.69 2008.1 1575.35 2008.28 1575C2009.08 1576.43 2009.81 1577.71 2010.48 1578.89C2011.86 1581.32 2013 1583.31 2014.01 1585.35C2039.31 1636.4 2064.59 1683.09 2089.87 1729.79C2114.99 1776.19 2140.12 1822.6 2165.28 1873.32C2181.28 1905.59 2197.31 1937.86 2213.35 1970.12C2230.1 2003.78 2247.16 2037.29 2264.21 2070.79C2277.08 2096.08 2289.95 2121.36 2302.69 2146.71C2317.03 2175.28 2337.92 2193.75 2371.57 2193.24C2377.81 2193.14 2384.26 2192.11 2390.18 2190.18C2524.17 2146.57 2584.38 1987.72 2512.27 1866.66C2469.06 1794.16 2403.49 1758.83 2319.9 1756.15C2315.19 1756.01 2308.97 1755.92 2301.74 1755.89C2295.55 1755.86 2288.64 1755.88 2281.33 1755.91C2249.35 1752.93 2221.43 1735.95 2203.76 1711.17L2189.49 1683.23L2134.67 1575.87H2169.89C2184.07 1575.87 2198.27 1575.83 2212.45 1575.78C2218.98 1575.76 2225.51 1575.74 2232.04 1575.71C2262.11 1575.59 2292.19 1575.47 2322.26 1575.58C2339.54 1575.64 2356.59 1576.82 2373.33 1579.05C2542.7 1601.61 2681.08 1731.88 2713.9 1903.65C2754.14 2114.37 2619.45 2324.26 2410.2 2369.08Z" fill="#F8F3FC"/>
<path d="M2410.2 2369.08C2316.55 2389.15 2232.13 2364.46 2169.61 2286.12C2159.73 2273.74 2151.65 2259.62 2144.54 2245.4C2136.85 2230.03 2129.6 2214.42 2122.35 2198.81C2115.31 2183.66 2108.27 2168.51 2100.83 2153.57C2078.94 2109.63 2056.7 2065.86 2034.46 2022.09C2026.48 2006.39 2018.51 1990.69 2010.55 1974.99C2010.37 1974.64 2010.05 1974.37 2009.44 1973.87C2009.04 1973.54 2008.51 1973.1 2007.81 1972.46C1993.24 2001.71 1948.36 2090.63 1897.22 2191.89C1890.19 2180.48 1881.76 2169.54 1872.05 2159.76C1838.88 2126.41 1794.97 2107.78 1748.37 2107.78H1747.86C1743.64 2107.78 1739.44 2108.14 1735.28 2108.51C1734.67 2108.56 1734.07 2108.61 1733.46 2108.66C1755.56 2065.91 1778.52 2021.56 1801.42 1977.3C1885.65 1814.54 1969.17 1653.16 2006.72 1578.02C2007.07 1577.34 2007.41 1576.69 2007.75 1576.03C2007.92 1575.69 2008.1 1575.35 2008.28 1575C2009.08 1576.43 2009.81 1577.71 2010.48 1578.89C2011.86 1581.32 2013 1583.31 2014.01 1585.35C2039.31 1636.4 2064.59 1683.09 2089.87 1729.79C2114.99 1776.19 2140.12 1822.6 2165.28 1873.32C2181.28 1905.59 2197.31 1937.86 2213.35 1970.12C2230.1 2003.78 2247.16 2037.29 2264.21 2070.79C2277.08 2096.08 2289.95 2121.36 2302.69 2146.71C2317.03 2175.28 2337.92 2193.75 2371.57 2193.24C2377.81 2193.14 2384.26 2192.11 2390.18 2190.18C2524.17 2146.57 2584.38 1987.72 2512.27 1866.66C2469.06 1794.16 2403.49 1758.83 2319.9 1756.15C2315.19 1756.01 2308.97 1755.92 2301.74 1755.89C2295.55 1755.86 2288.64 1755.88 2281.33 1755.91C2249.35 1752.93 2221.43 1735.95 2203.76 1711.17L2189.49 1683.23L2134.67 1575.87H2169.89C2184.07 1575.87 2198.27 1575.83 2212.45 1575.78C2218.98 1575.76 2225.51 1575.74 2232.04 1575.71C2262.11 1575.59 2292.19 1575.47 2322.26 1575.58C2339.54 1575.64 2356.59 1576.82 2373.33 1579.05C2542.7 1601.61 2681.08 1731.88 2713.9 1903.65C2754.14 2114.37 2619.45 2324.26 2410.2 2369.08Z" stroke="#9245A8"/>
<path d="M1747.79 2375.18C1697.89 2375.21 1656.58 2334.2 1656.32 2284.39C1656.04 2233.39 1697.1 2192.01 1748.11 2191.86C1798.25 2191.71 1839.83 2233.47 1839.53 2283.7C1839.24 2334.42 1798.38 2375.17 1747.79 2375.18Z" fill="#F8F3FC"/>
<path d="M1747.79 2375.18C1697.89 2375.21 1656.58 2334.2 1656.32 2284.39C1656.04 2233.39 1697.1 2192.01 1748.11 2191.86C1798.25 2191.71 1839.83 2233.47 1839.53 2283.7C1839.24 2334.42 1798.38 2375.17 1747.79 2375.18Z" stroke="#9245A8"/>
<g style="mix-blend-mode:color-dodge" opacity="0.638021">
<rect x="953" y="333" width="2498" height="4968"/>
</g>
<path d="M1483.46 3996.28C1483.46 4004.94 1481.18 4012.39 1476.62 4018.62C1472.06 4024.85 1465.98 4029.64 1458.38 4032.98C1450.94 4036.33 1442.65 4038 1433.53 4038H1356.24V3876.12H1439.69C1447.29 3876.12 1453.82 3878.17 1459.3 3882.28C1464.77 3886.23 1469.02 3891.4 1472.06 3897.78C1475.1 3904.16 1476.62 3910.7 1476.62 3917.39C1476.62 3925.29 1474.57 3932.74 1470.47 3939.73C1466.52 3946.57 1460.82 3951.66 1453.37 3955.01C1462.49 3957.74 1469.78 3962.76 1475.26 3970.06C1480.73 3977.2 1483.46 3985.94 1483.46 3996.28ZM1381.78 3898.24V3945.89H1428.74C1435.13 3945.89 1440.45 3943.68 1444.7 3939.28C1448.96 3934.72 1451.09 3929.02 1451.09 3922.18C1451.09 3915.18 1449.11 3909.48 1445.16 3905.08C1441.21 3900.52 1436.19 3898.24 1430.11 3898.24H1381.78ZM1457.24 3991.49C1457.24 3984.8 1455.12 3978.95 1450.86 3973.93C1446.76 3968.92 1441.51 3966.41 1435.13 3966.41H1381.78V4015.88H1433.53C1440.22 4015.88 1445.84 4013.53 1450.4 4008.82C1454.96 4003.95 1457.24 3998.18 1457.24 3991.49ZM1573.94 3940.42C1564.21 3940.72 1555.54 3943 1547.94 3947.26C1540.5 3951.36 1535.18 3957.29 1531.98 3965.04V4038H1506.9V3918.76H1530.16V3945.43C1534.26 3937.22 1539.66 3930.69 1546.35 3925.82C1553.04 3920.81 1560.1 3918.07 1567.55 3917.62C1568.92 3917.62 1570.14 3917.62 1571.2 3917.62C1572.26 3917.62 1573.18 3917.69 1573.94 3917.84V3940.42ZM1592.18 3899.15V3871.56H1617.26V3899.15H1592.18ZM1592.18 4038V3918.76H1617.26V4038H1592.18ZM1754.33 4038H1729.25V3971.2C1729.25 3959.95 1727.43 3951.82 1723.78 3946.8C1720.28 3941.63 1715.04 3939.05 1708.05 3939.05C1703.18 3939.05 1698.32 3940.26 1693.46 3942.7C1688.74 3945.13 1684.49 3948.47 1680.69 3952.73C1676.89 3956.98 1674.15 3961.77 1672.48 3967.09V4038H1647.4V3918.76H1670.2V3942.7C1674.76 3934.79 1681.37 3928.48 1690.04 3923.77C1698.7 3919.06 1708.28 3916.7 1718.76 3916.7C1728.19 3916.7 1735.48 3918.98 1740.65 3923.54C1745.82 3927.95 1749.39 3933.8 1751.37 3941.1C1753.34 3948.4 1754.33 3956.45 1754.33 3965.27V4038ZM1830.64 4039.14C1819.85 4039.14 1810.35 4036.33 1802.14 4030.7C1794.08 4025.08 1787.7 4017.71 1782.99 4008.59C1778.43 3999.32 1776.15 3989.28 1776.15 3978.49C1776.15 3967.24 1778.5 3956.91 1783.21 3947.48C1787.93 3938.06 1794.39 3930.61 1802.59 3925.14C1810.95 3919.52 1820.61 3916.7 1831.55 3916.7C1841.13 3916.7 1849.49 3918.98 1856.63 3923.54C1863.93 3928.1 1869.93 3934.03 1874.64 3941.33V3918.76H1896.76V4034.58C1896.76 4046.13 1893.95 4055.94 1888.32 4063.99C1882.85 4072.05 1875.33 4078.2 1865.75 4082.46C1856.17 4086.72 1845.38 4088.84 1833.37 4088.84C1820.15 4088.84 1809.13 4086.56 1800.31 4082C1791.65 4077.44 1784.35 4071.21 1778.43 4063.31L1792.56 4050.08C1797.12 4056.47 1802.97 4061.33 1810.12 4064.68C1817.41 4068.02 1825.17 4069.69 1833.37 4069.69C1840.21 4069.69 1846.52 4068.4 1852.3 4065.82C1858.23 4063.38 1862.94 4059.58 1866.43 4054.42C1869.93 4049.25 1871.68 4042.64 1871.68 4034.58V4016.34C1867.42 4023.48 1861.57 4029.11 1854.12 4033.21C1846.67 4037.16 1838.85 4039.14 1830.64 4039.14ZM1838.85 4018.85C1843.86 4018.85 1848.65 4017.78 1853.21 4015.66C1857.77 4013.38 1861.65 4010.41 1864.84 4006.76C1868.18 4003.12 1870.46 3999.24 1871.68 3995.14V3963.9C1868.64 3956.3 1863.85 3950.14 1857.31 3945.43C1850.93 3940.57 1844.17 3938.14 1837.02 3938.14C1829.73 3938.14 1823.42 3940.11 1818.1 3944.06C1812.93 3948.02 1808.9 3953.18 1806.01 3959.57C1803.13 3965.8 1801.68 3972.34 1801.68 3979.18C1801.68 3986.47 1803.28 3993.16 1806.47 3999.24C1809.81 4005.17 1814.3 4009.96 1819.92 4013.6C1825.55 4017.1 1831.85 4018.85 1838.85 4018.85ZM1989.97 3876.12L2034.66 3956.6L2079.81 3876.12H2107.85L2047.43 3980.09V4038H2021.89V3979.63L1961.93 3876.12H1989.97ZM2157.65 4040.28C2145.18 4040.28 2134.32 4037.47 2125.04 4031.84C2115.92 4026.07 2108.86 4018.54 2103.84 4009.27C2098.82 3999.85 2096.32 3989.59 2096.32 3978.49C2096.32 3967.4 2098.82 3957.21 2103.84 3947.94C2109.01 3938.52 2116.15 3930.99 2125.27 3925.37C2134.54 3919.59 2145.34 3916.7 2157.65 3916.7C2169.96 3916.7 2180.68 3919.59 2189.8 3925.37C2199.07 3930.99 2206.21 3938.52 2211.23 3947.94C2216.4 3957.21 2218.98 3967.4 2218.98 3978.49C2218.98 3989.59 2216.47 3999.85 2211.46 4009.27C2206.44 4018.54 2199.3 4026.07 2190.02 4031.84C2180.9 4037.47 2170.11 4040.28 2157.65 4040.28ZM2122.08 3978.72C2122.08 3986.32 2123.68 3993.16 2126.87 3999.24C2130.06 4005.32 2134.32 4010.11 2139.64 4013.6C2144.96 4017.1 2150.96 4018.85 2157.65 4018.85C2164.18 4018.85 2170.11 4017.1 2175.43 4013.6C2180.9 4009.96 2185.24 4005.09 2188.43 3999.01C2191.62 3992.93 2193.22 3986.09 2193.22 3978.49C2193.22 3970.89 2191.62 3964.05 2188.43 3957.97C2185.24 3951.89 2180.9 3947.1 2175.43 3943.61C2170.11 3939.96 2164.18 3938.14 2157.65 3938.14C2151.11 3938.14 2145.11 3939.96 2139.64 3943.61C2134.32 3947.1 2130.06 3951.97 2126.87 3958.2C2123.68 3964.28 2122.08 3971.12 2122.08 3978.72ZM2240.08 3991.72V3918.76H2265.16V3986.7C2265.16 4008.13 2272.76 4018.85 2287.96 4018.85C2295.11 4018.85 2301.87 4016.64 2308.26 4012.24C2314.64 4007.68 2319.58 4001.29 2323.08 3993.08V3918.76H2348.16V4009.73C2348.16 4012.62 2348.69 4014.67 2349.75 4015.88C2350.82 4017.1 2352.56 4017.78 2355 4017.94V4038C2352.41 4038.46 2350.28 4038.76 2348.61 4038.91C2346.94 4039.06 2345.34 4039.14 2343.82 4039.14C2339.26 4039.14 2335.46 4037.92 2332.42 4035.49C2329.38 4033.06 2327.64 4029.79 2327.18 4025.69L2326.72 4013.83C2321.4 4022.5 2314.49 4029.11 2305.98 4033.67C2297.46 4038.08 2288.12 4040.28 2277.93 4040.28C2265.47 4040.28 2256.04 4036.18 2249.66 4027.97C2243.28 4019.76 2240.08 4007.68 2240.08 3991.72ZM2447.19 3940.42C2437.47 3940.72 2428.8 3943 2421.2 3947.26C2413.75 3951.36 2408.43 3957.29 2405.24 3965.04V4038H2380.16V3918.76H2403.42V3945.43C2407.52 3937.22 2412.92 3930.69 2419.61 3925.82C2426.29 3920.81 2433.36 3918.07 2440.81 3917.62C2442.18 3917.62 2443.39 3917.62 2444.46 3917.62C2445.52 3917.62 2446.43 3917.69 2447.19 3917.84V3940.42ZM1357.45 4374V4170.94H1404.35V4374H1357.45ZM1676.85 4374H1631.09V4289.63C1631.09 4279.91 1629.28 4272.76 1625.66 4268.18C1622.04 4263.6 1617.37 4261.32 1611.65 4261.32C1605.54 4261.32 1599.54 4263.79 1593.63 4268.75C1587.72 4273.71 1583.52 4280.1 1581.04 4287.91V4374H1535.28V4289.63C1535.28 4279.72 1533.47 4272.57 1529.85 4268.18C1526.23 4263.6 1521.56 4261.32 1515.84 4261.32C1509.73 4261.32 1503.73 4263.79 1497.82 4268.75C1492.1 4273.71 1487.9 4280.1 1485.23 4287.91V4374H1439.47V4223.85H1480.66V4249.02C1486.19 4240.06 1493.72 4233.19 1503.25 4228.43C1512.79 4223.47 1523.75 4220.99 1536.14 4220.99C1548.54 4220.99 1558.07 4223.95 1564.74 4229.86C1571.42 4235.58 1575.71 4242.34 1577.61 4250.16C1583.33 4241.01 1590.86 4233.86 1600.21 4228.71C1609.74 4223.56 1620.42 4220.99 1632.24 4220.99C1641.77 4220.99 1649.4 4222.8 1655.12 4226.42C1661.03 4229.86 1665.51 4234.43 1668.56 4240.15C1671.8 4245.87 1673.99 4252.07 1675.14 4258.74C1676.28 4265.22 1676.85 4271.61 1676.85 4277.9V4374ZM1697.32 4329.1C1697.32 4319.18 1700.09 4310.51 1705.62 4303.07C1711.15 4295.64 1718.77 4289.82 1728.5 4285.63C1738.22 4281.24 1749.38 4279.05 1761.96 4279.05C1768.06 4279.05 1774.07 4279.62 1779.98 4280.76C1785.89 4281.72 1791.04 4283.15 1795.42 4285.05V4278.48C1795.42 4261.51 1785.41 4253.02 1765.39 4253.02C1757 4253.02 1749.09 4254.45 1741.65 4257.31C1734.41 4260.17 1726.69 4264.27 1718.49 4269.61L1704.76 4240.44C1724.59 4227.47 1746.32 4220.99 1769.97 4220.99C1792.47 4220.99 1809.91 4226.42 1822.31 4237.29C1834.89 4247.97 1841.18 4263.51 1841.18 4283.91V4323.09C1841.18 4327.67 1841.85 4330.91 1843.18 4332.82C1844.71 4334.72 1847.28 4335.77 1850.91 4335.96V4374C1846.9 4374.76 1843.28 4375.33 1840.04 4375.72C1836.8 4376.1 1833.94 4376.29 1831.46 4376.29C1822.88 4376.29 1816.3 4374.57 1811.72 4371.14C1807.34 4367.71 1804.57 4363.04 1803.43 4357.13L1802.57 4350.55C1795.9 4359.13 1787.89 4365.71 1778.55 4370.28C1769.2 4374.67 1759.58 4376.86 1749.66 4376.86C1739.75 4376.86 1730.79 4374.76 1722.78 4370.57C1714.96 4366.37 1708.76 4360.75 1704.19 4353.69C1699.61 4346.45 1697.32 4338.25 1697.32 4329.1ZM1788.27 4334.82C1793.04 4331 1795.42 4327.1 1795.42 4323.09V4309.65C1791.42 4308.12 1787.03 4306.98 1782.27 4306.22C1777.69 4305.26 1773.49 4304.79 1769.68 4304.79C1761.1 4304.79 1754.05 4306.69 1748.52 4310.51C1743.18 4314.32 1740.51 4319.18 1740.51 4325.09C1740.51 4330.24 1742.51 4334.72 1746.52 4338.54C1750.71 4342.16 1756.24 4343.97 1763.1 4343.97C1767.68 4343.97 1772.26 4343.11 1776.83 4341.4C1781.41 4339.68 1785.22 4337.49 1788.27 4334.82ZM1932.68 4374.57C1919.34 4374.57 1907.71 4371.14 1897.79 4364.28C1887.88 4357.41 1880.06 4348.26 1874.34 4336.82C1868.81 4325.38 1866.05 4312.7 1866.05 4298.78C1866.05 4284.1 1869 4270.94 1874.91 4259.31C1880.82 4247.49 1889.02 4238.15 1899.51 4231.29C1909.99 4224.42 1922.1 4220.99 1935.83 4220.99C1947.08 4220.99 1956.99 4223.47 1965.57 4228.43C1974.15 4233.19 1981.02 4239.87 1986.17 4248.45V4223.85H2025.92V4363.7C2025.92 4378.96 2022.2 4392.11 2014.77 4403.17C2007.52 4414.23 1997.32 4422.72 1984.16 4428.63C1971.2 4434.73 1956.14 4437.78 1938.98 4437.78C1922.96 4437.78 1909.14 4435.11 1897.51 4429.77C1886.07 4424.62 1876.06 4417.28 1867.48 4407.75L1892.07 4382.87C1897.6 4389.16 1904.46 4394.12 1912.66 4397.74C1921.05 4401.55 1929.82 4403.46 1938.98 4403.46C1946.41 4403.46 1953.18 4402.12 1959.28 4399.45C1965.57 4396.78 1970.63 4392.49 1974.44 4386.58C1978.25 4380.86 1980.16 4373.24 1980.16 4363.7V4349.12C1975.58 4357.51 1968.91 4363.89 1960.14 4368.28C1951.56 4372.47 1942.41 4374.57 1932.68 4374.57ZM1948.41 4338.25C1955.47 4338.25 1961.76 4336.34 1967.29 4332.53C1972.82 4328.53 1977.11 4323.47 1980.16 4317.37V4285.91C1977.11 4278.09 1972.44 4271.8 1966.15 4267.04C1959.85 4262.27 1953.18 4259.89 1946.13 4259.89C1939.64 4259.89 1933.83 4261.79 1928.68 4265.61C1923.72 4269.23 1919.81 4274.09 1916.95 4280.19C1914.09 4286.29 1912.66 4292.87 1912.66 4299.93C1912.66 4310.98 1916.1 4320.14 1922.96 4327.38C1929.82 4334.63 1938.31 4338.25 1948.41 4338.25ZM2057.28 4206.69V4165.22H2103.04V4206.69H2057.28ZM2057.28 4374V4223.85H2103.04V4374H2057.28ZM2279.08 4374H2233.32V4289.63C2233.32 4279.72 2231.41 4272.57 2227.6 4268.18C2223.98 4263.6 2219.12 4261.32 2213.01 4261.32C2206.72 4261.32 2200.34 4263.79 2193.85 4268.75C2187.37 4273.71 2182.79 4280.1 2180.12 4287.91V4374H2134.36V4223.85H2175.55V4249.02C2181.08 4240.25 2188.9 4233.38 2199 4228.43C2209.11 4223.47 2220.74 4220.99 2233.89 4220.99C2243.62 4220.99 2251.43 4222.8 2257.34 4226.42C2263.45 4229.86 2268.02 4234.43 2271.07 4240.15C2274.31 4245.68 2276.41 4251.78 2277.36 4258.46C2278.51 4265.13 2279.08 4271.61 2279.08 4277.9V4374ZM2300.05 4329.1C2300.05 4319.18 2302.81 4310.51 2308.34 4303.07C2313.87 4295.64 2321.5 4289.82 2331.22 4285.63C2340.94 4281.24 2352.1 4279.05 2364.68 4279.05C2370.78 4279.05 2376.79 4279.62 2382.7 4280.76C2388.61 4281.72 2393.76 4283.15 2398.14 4285.05V4278.48C2398.14 4261.51 2388.13 4253.02 2368.11 4253.02C2359.72 4253.02 2351.81 4254.45 2344.38 4257.31C2337.13 4260.17 2329.41 4264.27 2321.21 4269.61L2307.48 4240.44C2327.31 4227.47 2349.05 4220.99 2372.69 4220.99C2395.19 4220.99 2412.63 4226.42 2425.03 4237.29C2437.61 4247.97 2443.9 4263.51 2443.9 4283.91V4323.09C2443.9 4327.67 2444.57 4330.91 2445.91 4332.82C2447.43 4334.72 2450.01 4335.77 2453.63 4335.96V4374C2449.62 4374.76 2446 4375.33 2442.76 4375.72C2439.52 4376.1 2436.66 4376.29 2434.18 4376.29C2425.6 4376.29 2419.02 4374.57 2414.45 4371.14C2410.06 4367.71 2407.3 4363.04 2406.15 4357.13L2405.29 4350.55C2398.62 4359.13 2390.61 4365.71 2381.27 4370.28C2371.93 4374.67 2362.3 4376.86 2352.38 4376.86C2342.47 4376.86 2333.51 4374.76 2325.5 4370.57C2317.68 4366.37 2311.49 4360.75 2306.91 4353.69C2302.33 4346.45 2300.05 4338.25 2300.05 4329.1ZM2390.99 4334.82C2395.76 4331 2398.14 4327.1 2398.14 4323.09V4309.65C2394.14 4308.12 2389.75 4306.98 2384.99 4306.22C2380.41 4305.26 2376.22 4304.79 2372.4 4304.79C2363.82 4304.79 2356.77 4306.69 2351.24 4310.51C2345.9 4314.32 2343.23 4319.18 2343.23 4325.09C2343.23 4330.24 2345.23 4334.72 2349.24 4338.54C2353.43 4342.16 2358.96 4343.97 2365.83 4343.97C2370.4 4343.97 2374.98 4343.11 2379.55 4341.4C2384.13 4339.68 2387.94 4337.49 2390.99 4334.82ZM2572.91 4365.99C2566.61 4368.66 2559.37 4371.14 2551.17 4373.43C2543.16 4375.72 2535.06 4376.86 2526.86 4376.86C2519.23 4376.86 2512.27 4375.62 2505.98 4373.14C2499.69 4370.47 2494.64 4366.18 2490.82 4360.27C2487.01 4354.36 2485.1 4346.54 2485.1 4336.82V4258.46H2465.94V4223.85H2485.1V4176.09H2530.86V4223.85H2561.47V4258.46H2530.86V4321.09C2530.86 4326.05 2532.1 4329.67 2534.58 4331.96C2537.06 4334.06 2540.21 4335.1 2544.02 4335.1C2547.45 4335.1 2550.98 4334.53 2554.6 4333.39C2558.22 4332.24 2561.37 4331 2564.04 4329.67L2572.91 4365.99ZM2590.74 4206.69V4165.22H2636.5V4206.69H2590.74ZM2590.74 4374V4223.85H2636.5V4374H2590.74ZM2739.32 4376.86C2722.16 4376.86 2707.58 4373.24 2695.56 4365.99C2683.74 4358.75 2674.69 4349.21 2668.39 4337.39C2662.1 4325.57 2658.96 4312.8 2658.96 4299.07C2658.96 4285.15 2662.1 4272.28 2668.39 4260.46C2674.69 4248.64 2683.84 4239.1 2695.85 4231.86C2707.86 4224.61 2722.35 4220.99 2739.32 4220.99C2756.29 4220.99 2770.78 4224.61 2782.79 4231.86C2794.81 4239.1 2803.96 4248.64 2810.25 4260.46C2816.54 4272.28 2819.69 4285.15 2819.69 4299.07C2819.69 4312.8 2816.54 4325.57 2810.25 4337.39C2803.96 4349.21 2794.81 4358.75 2782.79 4365.99C2770.78 4373.24 2756.29 4376.86 2739.32 4376.86ZM2705.86 4299.07C2705.86 4310.7 2709.01 4320.14 2715.3 4327.38C2721.78 4334.63 2729.79 4338.25 2739.32 4338.25C2748.66 4338.25 2756.48 4334.63 2762.77 4327.38C2769.26 4320.14 2772.5 4310.7 2772.5 4299.07C2772.5 4287.44 2769.26 4278 2762.77 4270.75C2756.48 4263.51 2748.66 4259.89 2739.32 4259.89C2729.79 4259.89 2721.78 4263.51 2715.3 4270.75C2709.01 4278 2705.86 4287.44 2705.86 4299.07ZM2987.1 4374H2941.34V4289.63C2941.34 4279.72 2939.43 4272.57 2935.62 4268.18C2932 4263.6 2927.13 4261.32 2921.03 4261.32C2914.74 4261.32 2908.35 4263.79 2901.87 4268.75C2895.39 4273.71 2890.81 4280.1 2888.14 4287.91V4374H2842.38V4223.85H2883.57V4249.02C2889.1 4240.25 2896.91 4233.38 2907.02 4228.43C2917.12 4223.47 2928.75 4220.99 2941.91 4220.99C2951.63 4220.99 2959.45 4222.8 2965.36 4226.42C2971.46 4229.86 2976.04 4234.43 2979.09 4240.15C2982.33 4245.68 2984.43 4251.78 2985.38 4258.46C2986.53 4265.13 2987.1 4271.61 2987.1 4277.9V4374ZM1474.12 4498.36H1418.26V4642H1397.74V4498.36H1341.88V4480.12H1474.12V4498.36ZM1520.84 4644.28C1508.98 4644.28 1498.5 4641.47 1489.38 4635.84C1480.41 4630.07 1473.42 4622.54 1468.4 4613.27C1463.38 4603.85 1460.88 4593.66 1460.88 4582.72C1460.88 4571.62 1463.38 4561.44 1468.4 4552.17C1473.57 4542.74 1480.64 4535.22 1489.6 4529.6C1498.72 4523.82 1509.14 4520.93 1520.84 4520.93C1532.7 4520.93 1543.11 4523.82 1552.08 4529.6C1561.2 4535.22 1568.26 4542.74 1573.28 4552.17C1578.45 4561.44 1581.03 4571.62 1581.03 4582.72C1581.03 4593.66 1578.45 4603.85 1573.28 4613.27C1568.26 4622.54 1561.27 4630.07 1552.3 4635.84C1543.34 4641.47 1532.85 4644.28 1520.84 4644.28ZM1481.4 4582.95C1481.4 4591.16 1483.14 4598.6 1486.64 4605.29C1490.29 4611.98 1495.08 4617.3 1501 4621.25C1506.93 4625.05 1513.54 4626.95 1520.84 4626.95C1528.14 4626.95 1534.75 4624.98 1540.68 4621.02C1546.76 4617.07 1551.54 4611.75 1555.04 4605.06C1558.69 4598.22 1560.51 4590.7 1560.51 4582.49C1560.51 4574.28 1558.69 4566.84 1555.04 4560.15C1551.54 4553.46 1546.76 4548.14 1540.68 4544.19C1534.75 4540.24 1528.14 4538.26 1520.84 4538.26C1513.54 4538.26 1506.93 4540.31 1501 4544.42C1495.08 4548.37 1490.29 4553.69 1486.64 4560.38C1483.14 4567.06 1481.4 4574.59 1481.4 4582.95ZM1666.2 4642V4480.12H1735.52C1742.66 4480.12 1749.2 4481.64 1755.12 4484.68C1761.05 4487.57 1766.22 4491.52 1770.63 4496.54C1775.04 4501.4 1778.46 4506.95 1780.89 4513.18C1783.32 4519.26 1784.54 4525.49 1784.54 4531.88C1784.54 4539.32 1783.09 4546.39 1780.2 4553.08C1777.47 4559.77 1773.52 4565.47 1768.35 4570.18C1763.33 4574.89 1757.4 4578.16 1750.56 4579.98L1789.78 4642H1766.52L1729.59 4583.86H1686.72V4642H1666.2ZM1686.72 4565.62H1735.74C1741.37 4565.62 1746.23 4564.1 1750.34 4561.06C1754.59 4557.87 1757.86 4553.69 1760.14 4548.52C1762.57 4543.35 1763.79 4537.8 1763.79 4531.88C1763.79 4525.8 1762.42 4520.25 1759.68 4515.23C1756.95 4510.06 1753.38 4505.96 1748.97 4502.92C1744.56 4499.88 1739.7 4498.36 1734.38 4498.36H1686.72V4565.62ZM1861.74 4644.28C1849.89 4644.28 1839.4 4641.47 1830.28 4635.84C1821.16 4630.22 1814.01 4622.7 1808.85 4613.27C1803.68 4603.85 1801.09 4593.59 1801.09 4582.49C1801.09 4571.24 1803.68 4560.98 1808.85 4551.71C1814.01 4542.44 1821.16 4534.99 1830.28 4529.37C1839.55 4523.74 1850.11 4520.93 1861.97 4520.93C1873.98 4520.93 1884.39 4523.82 1893.21 4529.6C1902.17 4535.22 1909.09 4542.67 1913.95 4551.94C1918.97 4561.06 1921.48 4570.94 1921.48 4581.58C1921.48 4584.92 1921.33 4587.51 1921.02 4589.33H1822.3C1822.91 4597.08 1825.03 4604 1828.68 4610.08C1832.48 4616.01 1837.35 4620.72 1843.27 4624.22C1849.2 4627.56 1855.59 4629.23 1862.43 4629.23C1869.72 4629.23 1876.56 4627.41 1882.95 4623.76C1889.48 4620.11 1893.97 4615.32 1896.4 4609.4L1913.73 4614.18C1909.93 4623 1903.31 4630.22 1893.89 4635.84C1884.47 4641.47 1873.75 4644.28 1861.74 4644.28ZM1821.61 4575.42H1902.78C1902.17 4567.67 1899.97 4560.83 1896.17 4554.9C1892.37 4548.98 1887.51 4544.34 1881.58 4541C1875.65 4537.65 1869.11 4535.98 1861.97 4535.98C1854.98 4535.98 1848.52 4537.65 1842.59 4541C1836.66 4544.34 1831.8 4548.98 1828 4554.9C1824.35 4560.83 1822.22 4567.67 1821.61 4575.42ZM1934.43 4607.57C1934.43 4599.97 1936.56 4593.44 1940.82 4587.96C1945.23 4582.34 1951.23 4578.01 1958.83 4574.97C1966.43 4571.93 1975.25 4570.41 1985.28 4570.41C1990.6 4570.41 1996.22 4570.86 2002.15 4571.78C2008.08 4572.54 2013.32 4573.75 2017.88 4575.42V4566.76C2017.88 4557.64 2015.15 4550.5 2009.67 4545.33C2004.2 4540.01 1996.45 4537.35 1986.42 4537.35C1979.88 4537.35 1973.57 4538.56 1967.49 4541C1961.57 4543.28 1955.26 4546.62 1948.57 4551.03L1941.27 4536.89C1949.03 4531.57 1956.78 4527.62 1964.53 4525.04C1972.28 4522.3 1980.34 4520.93 1988.7 4520.93C2003.9 4520.93 2015.91 4525.19 2024.72 4533.7C2033.54 4542.06 2037.95 4553.76 2037.95 4568.81V4619.2C2037.95 4623.91 2040.07 4626.34 2044.33 4626.5V4642C2042.35 4642.3 2040.61 4642.53 2039.09 4642.68C2037.72 4642.84 2036.58 4642.91 2035.67 4642.91C2030.95 4642.91 2027.38 4641.62 2024.95 4639.04C2022.67 4636.45 2021.38 4633.72 2021.07 4630.83L2020.62 4623.3C2015.45 4629.99 2008.69 4635.16 2000.33 4638.81C1991.97 4642.46 1983.68 4644.28 1975.47 4644.28C1967.57 4644.28 1960.5 4642.68 1954.27 4639.49C1948.04 4636.15 1943.17 4631.74 1939.68 4626.27C1936.18 4620.64 1934.43 4614.41 1934.43 4607.57ZM2011.95 4616.01C2013.78 4613.88 2015.22 4611.75 2016.29 4609.62C2017.35 4607.34 2017.88 4605.44 2017.88 4603.92V4589.1C2008.15 4585.3 1998.12 4583.4 1987.79 4583.4C1977.6 4583.4 1969.32 4585.46 1962.93 4589.56C1956.7 4593.51 1953.59 4598.98 1953.59 4605.98C1953.59 4609.78 1954.57 4613.5 1956.55 4617.15C1958.68 4620.64 1961.72 4623.53 1965.67 4625.81C1969.77 4628.09 1974.79 4629.23 1980.72 4629.23C1986.95 4629.23 1992.88 4628.02 1998.5 4625.58C2004.13 4623 2008.61 4619.81 2011.95 4616.01ZM2070.48 4475.56H2090.55V4611.22C2090.55 4617.76 2091.46 4621.78 2093.28 4623.3C2095.11 4624.82 2097.31 4625.58 2099.9 4625.58C2103.09 4625.58 2106.13 4625.28 2109.02 4624.67C2111.9 4623.91 2114.34 4623.15 2116.31 4622.39L2119.5 4638.81C2116.16 4640.18 2112.21 4641.32 2107.65 4642.23C2103.09 4643.14 2099.06 4643.6 2095.56 4643.6C2087.81 4643.6 2081.66 4641.39 2077.1 4636.98C2072.69 4632.58 2070.48 4626.42 2070.48 4618.52V4475.56ZM2135.27 4500.64V4475.56H2155.33V4500.64H2135.27ZM2135.27 4642V4522.98H2155.33V4642H2135.27ZM2249.37 4636.07C2246.94 4637.14 2243.07 4638.66 2237.75 4640.63C2232.58 4642.61 2226.8 4643.6 2220.42 4643.6C2213.12 4643.6 2206.81 4641.62 2201.49 4637.67C2196.17 4633.56 2193.51 4627.26 2193.51 4618.74V4538.72H2177.33V4522.98H2193.51V4483.31H2213.58V4522.98H2240.25V4538.72H2213.58V4612.59C2213.88 4616.84 2215.33 4620.04 2217.91 4622.16C2220.49 4624.14 2223.53 4625.13 2227.03 4625.13C2230.98 4625.13 2234.63 4624.44 2237.97 4623.08C2241.32 4621.71 2243.52 4620.72 2244.59 4620.11L2249.37 4636.07ZM2273.44 4674.38C2275.42 4674.53 2277.39 4674.68 2279.37 4674.83C2281.35 4675.14 2282.87 4675.29 2283.93 4675.29C2286.36 4675.29 2288.49 4674.45 2290.31 4672.78C2292.14 4671.11 2294.11 4667.84 2296.24 4662.98C2298.52 4658.26 2301.41 4651.27 2304.91 4642L2254.52 4522.98H2275.72L2315.85 4621.71L2352.1 4522.98H2371.94L2314.03 4673.24C2312.05 4678.56 2308.48 4683.19 2303.31 4687.14C2298.29 4691.25 2291.53 4693.3 2283.02 4693.3C2281.65 4693.3 2280.21 4693.22 2278.69 4693.07C2277.32 4692.92 2275.57 4692.62 2273.44 4692.16V4674.38Z" fill="white"/>
</g>
<defs>
<filter id="filter0_f" x="1499" y="1474.93" width="1304" height="1041" filterUnits="userSpaceOnUse" color-interpolation-filters="sRGB">
<feFlood flood-opacity="0" result="BackgroundImageFix"/>
<feBlend mode="normal" in="SourceGraphic" in2="BackgroundImageFix" result="shape"/>
<feGaussianBlur stdDeviation="60" result="effect1_foregroundBlur"/>
</filter>
<linearGradient id="paint0_linear" x1="2204.5" y1="444" x2="2204.5" y2="5150" gradientUnits="userSpaceOnUse">
<stop stop-color="#B65BD0"/>
<stop offset="1" stop-color="#904BE8"/>
</linearGradient>
</defs>
</svg>
