<svg width="523" height="481" viewBox="0 0 523 481" fill="none" xmlns="http://www.w3.org/2000/svg">
<path fill-rule="evenodd" clip-rule="evenodd" d="M486.231 288.378C476.22 348.404 509.162 426.605 461.777 464.79C414.081 503.225 343.905 458.266 282.952 452.189C235.57 447.465 188.023 453.383 144.898 433.196C97.7835 411.141 53.7695 379.77 29.7128 333.646C4.36985 285.056 -9.47022 225.725 9.962 174.484C28.6898 125.1 85.231 105.691 127.942 74.6228C166.509 46.5697 200.026 9.51769 247.116 1.97907C296.372 -5.90609 344.823 11.1941 389.833 32.6972C439.516 56.4331 498.003 79.5972 517.428 131.119C536.754 182.378 495.243 234.342 486.231 288.378Z" fill="#F6EBFF"/>
</svg>
