<svg width="25" height="25" viewBox="0 0 25 25" fill="none" xmlns="http://www.w3.org/2000/svg">
<path d="M21.875 11.9792C21.8786 13.354 21.5574 14.7103 20.9375 15.9375C20.2025 17.4081 19.0727 18.645 17.6744 19.5097C16.2762 20.3744 14.6648 20.8327 13.0208 20.8333C11.646 20.8369 10.2897 20.5157 9.0625 19.8958L3.125 21.875L5.10417 15.9375C4.4843 14.7103 4.16308 13.354 4.16667 11.9792C4.1673 10.3352 4.62564 8.7238 5.49033 7.32557C6.35503 5.92734 7.59193 4.79747 9.0625 4.0625C10.2897 3.44264 11.646 3.12141 13.0208 3.125H13.5417C15.7129 3.24478 17.7636 4.16121 19.3012 5.69881C20.8388 7.23641 21.7552 9.28714 21.875 11.4583V11.9792Z" stroke="#621A9A" stroke-width="2.5" stroke-linecap="round" stroke-linejoin="round"/>
</svg>
