<svg width="69" height="77" viewBox="0 0 69 77" fill="none" xmlns="http://www.w3.org/2000/svg">
<path fill-rule="evenodd" clip-rule="evenodd" d="M35.9903 76.2585C35.295 76.2585 34.5996 76.2585 33.9045 76.2585C32.1713 75.8407 30.5306 75.1844 29.2526 73.9208C28.1468 72.8277 27.0676 71.6739 26.173 70.4081C24.1362 67.5258 22.8691 64.2654 21.8427 60.908C21.7519 60.6109 21.6506 60.3171 21.5447 59.993C18.4339 60.7247 15.3712 61.1626 12.2522 61.0641C9.67726 60.9827 7.16267 60.5964 4.82113 59.4468C2.63594 58.3739 0.984974 56.8024 0.302934 54.393C-0.191361 52.647 -0.0395758 50.9026 0.461276 49.1814C1.38748 45.9962 3.19023 43.3056 5.27032 40.7831C6.21203 39.6415 7.22327 38.5573 8.20172 37.4486C7.44359 36.5334 6.67414 35.6561 5.9617 34.7345C3.88558 32.0496 2.10032 29.2037 1.21881 25.8777C-0.282551 20.2142 2.2521 15.9565 7.93829 14.6005C10.7823 13.9221 13.6547 13.9874 16.5227 14.3785C18.1345 14.5983 19.7304 14.938 21.3693 15.2301C21.4795 14.8905 21.5664 14.5552 21.6953 14.2371C22.5788 12.0587 23.3226 9.80756 24.3933 7.72429C26.262 4.08844 28.7533 1.02779 33.0111 -0.000244141C33.7062 -0.000244141 34.4014 -0.000244141 35.0967 -0.000244141C38.465 0.718345 40.791 2.8618 42.6852 5.57746C44.3852 8.01486 45.5979 10.6966 46.5632 13.4958C46.8752 14.4005 47.1626 15.314 47.4688 16.2459C47.6744 16.2071 47.8185 16.1841 47.9607 16.1525C50.9499 15.4872 53.9683 15.0838 57.0372 15.2023C59.4054 15.2939 61.7267 15.6502 63.9049 16.6518C68.048 18.5567 69.7691 22.1177 68.6804 26.5367C67.8537 29.8931 66.011 32.7025 63.8648 35.3334C62.8951 36.5221 61.8405 37.6417 60.7957 38.825C60.9695 39.0236 61.1477 39.2264 61.3254 39.4296C63.6381 42.0757 65.6733 44.9042 67.0489 48.1637C67.9697 50.3457 68.5512 52.6081 68.101 54.9756C67.4236 58.5383 65.0129 60.5161 61.6953 61.5015C58.359 62.4925 54.9675 62.2405 51.5877 61.7318C50.275 61.5344 48.9753 61.2492 47.79 61.0266C46.8777 63.2812 46.1156 65.5161 45.0903 67.6232C43.1489 71.6115 40.6571 75.1032 35.9903 76.2585ZM45.8192 38.8381C45.8884 38.8371 45.9573 38.8361 46.0264 38.8349C45.9136 36.6311 45.818 34.4261 45.6678 32.2248C45.647 31.917 45.4322 31.5023 45.1791 31.3483C41.8986 29.3538 38.5991 27.3907 35.288 25.4475C35.0606 25.314 34.6419 25.2848 34.4153 25.4038C30.8199 27.2914 27.2367 29.2025 23.6695 31.1428C23.4321 31.2719 23.207 31.6772 23.2082 31.9533C23.2243 36.018 23.273 40.0824 23.3429 44.1467C23.3471 44.3878 23.5366 44.7247 23.7414 44.8486C27.0686 46.8618 30.4079 48.8549 33.7614 50.8233C33.9843 50.954 34.4027 50.9602 34.6328 50.8392C38.2061 48.9633 41.7683 47.0647 45.315 45.1382C45.5562 45.0073 45.791 44.617 45.7974 44.3419C45.8397 42.5079 45.8192 40.6727 45.8192 38.8381ZM25.6654 16.4947C25.9566 16.6139 26.1799 16.71 26.4066 16.7976C28.3711 17.5561 30.4315 18.1351 32.2746 19.1198C34.1486 20.121 35.7708 20.1832 37.6773 19.2547C39.3763 18.427 41.2529 17.9643 43.1062 17.3216C41.8957 13.5902 40.593 9.92593 38.0583 6.86349C37.529 6.22375 36.873 5.65095 36.1793 5.19334C34.657 4.18954 33.1227 4.26779 31.699 5.41003C31.0293 5.94748 30.4009 6.57709 29.8923 7.26727C27.8645 10.0193 26.6853 13.1725 25.6654 16.4947ZM11.3296 40.7053C10.7704 41.3087 10.2145 41.8753 9.69574 42.4736C7.80716 44.6528 5.99985 46.8931 4.98424 49.6402C3.73479 53.0202 4.86702 55.1754 8.33762 56.1077C8.36165 56.1138 8.3849 56.1224 8.40914 56.1279C12.4537 57.0586 16.4307 56.4425 20.3724 55.6806C19.9873 53.1374 19.5628 50.6738 19.2673 48.1951C19.1626 47.316 18.8213 46.7555 18.1077 46.2947C17.4644 45.8792 16.8696 45.3833 16.2803 44.8903C14.6472 43.5246 13.0275 42.1425 11.3296 40.7053ZM43.3388 59.7916C43.1864 59.6976 43.128 59.6492 43.0611 59.6224C40.1897 58.466 37.3208 57.3029 34.4395 56.1718C34.1804 56.0701 33.8143 56.1031 33.5409 56.1978C31.1775 57.0167 28.8235 57.8636 26.4676 58.7046C26.2912 58.7677 26.1225 58.8523 25.9187 58.9405C26.1134 59.5503 26.2781 60.1205 26.4767 60.6788C27.5768 63.7708 28.794 66.8086 30.9208 69.3714C33.5707 72.5643 36.405 72.5375 38.9235 69.2619C41.0869 66.4484 42.298 63.1762 43.3388 59.7916ZM57.6791 35.5435C59.704 33.4592 61.6017 31.2945 63.0007 28.7588C63.569 27.7288 64.0408 26.6112 64.3458 25.4769C64.961 23.1865 64.0519 21.4891 61.8679 20.5641C61.4589 20.3908 61.0351 20.2354 60.6032 20.1351C56.5608 19.1959 52.5836 19.8124 48.6249 20.581C48.6119 20.7077 48.5959 20.758 48.6034 20.8045C49.0224 23.4963 49.435 26.1891 49.8799 28.8768C49.9176 29.1048 50.1381 29.3399 50.3334 29.498C51.0653 30.0911 51.8408 30.6307 52.5653 31.232C54.2616 32.6405 55.938 34.0729 57.6791 35.5435ZM11.447 34.349C13.8863 32.5521 16.2475 30.8264 18.5849 29.0688C18.8009 28.9064 18.9461 28.554 18.9864 28.2702C19.2071 26.7242 19.3631 25.1688 19.5836 23.6228C19.7716 22.3062 20.0171 20.9977 20.251 19.6032C18.7955 19.3343 17.4163 19.0348 16.023 18.8314C13.6316 18.4823 11.2263 18.294 8.85297 18.9425C5.7231 19.7975 4.64649 21.6748 5.5433 24.7821C6.62427 28.5272 8.9539 31.5148 11.447 34.349ZM48.7641 56.6274C49.6427 56.804 50.4608 56.9836 51.2849 57.1317C53.9787 57.6169 56.6927 58.0646 59.4137 57.4773C63.2117 56.6576 64.3668 54.7911 63.5332 51.707C62.4892 47.8433 60.1015 44.786 57.5639 41.9129C55.1214 43.7101 52.7396 45.4482 50.3833 47.221C50.1711 47.3809 50.0567 47.7541 50.0158 48.0445C49.7978 49.5911 49.6391 51.1459 49.4182 52.6917C49.2336 53.9857 48.992 55.2709 48.7641 56.6274ZM29.5246 22.7006C27.809 22.0603 26.2441 21.4762 24.5667 20.8501C24.2794 22.5545 24.0146 24.1263 23.7301 25.8131C25.6838 24.7637 27.5223 23.7759 29.5246 22.7006ZM45.2802 50.4464C43.3142 51.503 41.4667 52.4953 39.4909 53.5567C41.2079 54.1986 42.7734 54.7841 44.4448 55.4085C44.7309 53.7086 44.9957 52.136 45.2802 50.4464ZM54.3859 38.6266C53.0366 37.4587 51.7665 36.3594 50.4554 35.2243C50.4554 37.4518 50.4554 39.5116 50.4554 41.7266C51.8169 40.6529 53.0409 39.6876 54.3859 38.6266ZM18.5581 41.0411C18.5581 38.8105 18.5581 36.7523 18.5581 34.5292C17.1779 35.6209 15.944 36.5971 14.6343 37.6331C15.9746 38.797 17.2369 39.8933 18.5581 41.0411ZM40.2614 22.9892C41.8778 23.9537 43.368 24.8431 44.9856 25.8086C44.7166 24.3648 44.475 23.0681 44.2191 21.6951C42.8834 22.132 41.6479 22.536 40.2614 22.9892ZM28.7436 53.2661C27.1355 52.3036 25.6401 51.4082 24.0216 50.4398C24.2955 51.8899 24.5439 53.2037 24.8017 54.5692C26.1682 54.1172 27.3998 53.7102 28.7436 53.2661Z" fill="#621A9A"/>
<path fill-rule="evenodd" clip-rule="evenodd" d="M34.6505 45.2947C30.6067 45.2831 27.3439 42.1148 27.3584 38.2143C27.3733 34.2451 30.5275 30.9617 34.3245 30.9631C38.3867 30.9647 41.6536 34.1041 41.6503 38.0034C41.6471 42.0133 38.4866 45.3056 34.6505 45.2947ZM37.1849 38.1525C37.1905 36.6925 35.9003 35.4253 34.4147 35.4309C33.0093 35.436 31.8099 36.6885 31.821 38.1388C31.8323 39.5655 33.1074 40.8168 34.5565 40.8239C35.9764 40.8305 37.1794 39.608 37.1849 38.1525Z" fill="#621A9A"/>
</svg>
