<svg id="secGuy" width="286" height="317" viewBox="0 0 286 317" fill="none" xmlns="http://www.w3.org/2000/svg">
    <path d="M27.8034 315.874L22.7278 314.915L44.6591 198.979L49.7346 199.938L27.8034 315.874Z" fill="#184655" />
    <path d="M196.141 316.401H202.246L179.494 198.979L174.419 199.938L196.141 316.401Z" fill="#184655" />
    <path d="M84.3684 316.401H90.4738L67.7222 198.979L62.6466 199.938L84.3684 316.401Z" fill="#184655" />
    <path d="M140.515 316.401L135.558 316.46L157.37 199.507L162.446 200.465L140.515 316.401Z" fill="#184655" />
    <path
        d="M118.371 40.8407C138.469 42.986 164.48 45.2488 190.592 89.4111C219.13 137.678 204.107 209.777 181.582 229.812C159.057 249.847 85.4901 274.585 23.6477 237.55C23.6477 237.55 -13.6934 215.106 5.47045 177.858C34.961 120.538 30.7943 108.584 43.9801 86.1209C57.1661 63.6571 75.7075 36.2872 118.371 40.8407Z"
        fill="#FAE0B2" />
    <path
        d="M190.592 89.4113C172.769 59.269 154.995 48.6479 139.115 44.2585C145.257 50.5939 151.484 58.7436 157.718 69.2853C186.256 117.552 171.233 189.651 148.708 209.686C128.733 227.453 68.6164 248.912 12.1329 227.715C17.9401 234.12 23.6478 237.55 23.6478 237.55C85.4903 274.585 159.058 249.847 181.583 229.812C204.107 209.777 219.13 137.678 190.592 89.4113Z"
        fill="#F7CC7F" />
    <path d="M53.8424 114.204L48.6764 129.649L64.4199 123.478L53.8424 114.204Z" fill="#F79C8D" />
    <path
        d="M70.0728 68.24C69.0231 68.2832 66.1473 69.2391 61.9413 77.134C56.5703 87.2157 48.7206 117.671 48.7206 117.671L72.1519 126.338L75.1623 119.981L80.1199 71.043C80.1197 71.0428 70.3633 68.2279 70.0728 68.24Z"
        fill="#042A44" />
    <path
        d="M101.046 63.8502C94.3461 63.859 77.7677 65.8008 70.0728 68.2425C70.0728 68.2425 64.4202 116.499 75.1623 153.167C77.5667 161.375 73.1734 187.193 73.1734 187.193L142.603 186.283C142.603 186.283 134.378 123.867 137.476 113.785C140.575 103.704 140.649 68.567 140.649 68.567C140.649 68.567 140.174 68.4936 125.05 65.8969C117.996 64.6859 108.2 63.8409 101.046 63.8502Z"
        fill="#07345A" />
    <path
        d="M109.136 276.759C109.136 276.759 107.6 294.367 104.776 299.243C101.953 304.119 104.925 312.409 105.074 313.546C105.222 314.684 111.019 316.309 120.235 315.334C129.45 314.359 129.302 312.246 128.558 308.832C127.815 305.419 122.91 301.031 122.613 297.78C122.316 294.529 125.437 282.826 125.437 282.826L109.136 276.759Z"
        fill="#F7A491" />
    <path
        d="M81.0068 172.66C81.0068 172.66 33.0797 170.016 22.377 176.454C11.6746 182.892 24.3126 196.112 24.3126 196.112C24.3126 196.112 63.3306 212.962 128.653 216.706C144.121 217.593 145.454 176.646 142.562 173.257C139.669 169.869 81.0068 172.66 81.0068 172.66Z"
        fill="#327F6B" />
    <path
        d="M121.384 316.701C130.873 315.697 129.7 311.066 128.935 307.552C128.456 305.351 125.733 302.756 124.11 300.302C123.262 300.973 121.882 302.158 117.762 303.367C113.482 304.623 107.616 302.138 103.878 300.582C102.545 305.507 102.485 311.787 102.609 312.74C102.762 313.912 111.895 317.705 121.384 316.701Z"
        fill="#355389" />
    <path
        d="M116.146 206.715C114.231 221.107 104.751 292.752 104.751 292.752L126.749 295.461C126.749 295.461 153.801 201.947 152.414 187.644C151.026 173.341 140.9 172.137 140.9 172.137C140.9 172.137 121.214 168.618 116.146 206.715Z"
        fill="#3C8F7C" />
    <path
        d="M95.0723 2.96939C95.0723 2.96939 102.381 -4.71076 108.26 4.632C108.26 4.632 112.789 2.09845 115.966 6.61156C115.966 6.61156 124.149 4.15709 126.135 16.3501C126.135 16.3501 130.346 15.5583 130.902 20.5465C131.458 25.5347 128.916 28.8601 128.916 28.8601C128.916 28.8601 131.281 30.6278 130.206 35.2141C129.293 39.1136 126.056 39.7073 126.056 39.7073C126.056 39.7073 125.182 46.2791 122.322 48.2584C119.462 50.238 115.569 49.288 115.569 49.288C115.569 49.288 114.536 52.8508 111.2 52.5341C107.863 52.2173 103.732 49.0503 99.9979 50.4754C96.264 51.9006 86.5717 50.3962 86.5717 50.3962C86.5717 50.3962 75.688 45.5665 78.9451 34.4817C78.9451 34.4817 73.225 29.3353 78.2299 23.1596C78.2299 23.1596 74.5756 13.5001 81.8048 7.79925C89.0347 2.09845 95.0723 2.96939 95.0723 2.96939Z"
        fill="#07345A" />
    <path
        d="M96.3072 55.111L94.9839 64.8935C94.9839 64.8935 92.0201 78.9872 95.8331 81.7042C99.6461 84.4214 112.048 64.4916 112.048 64.4916L110.738 39.7034L96.3072 55.111Z"
        fill="#F7A491" />
    <path
        d="M111.162 47.737C108.012 56.1918 100.51 61.3891 95.1855 63.405L96.3074 55.1112L110.738 39.7036L111.162 47.737Z"
        fill="#F47458" />
    <path
        d="M101.927 13.661C94.1889 11.0064 85.941 16.1293 84.7599 24.0789C84.2467 27.5341 83.7821 31.8791 83.6956 36.6297C83.4873 48.0555 89.4222 59.1754 94.6283 59.1754C99.8344 59.1754 114.222 51.7789 114.742 35.5582C115.064 25.5438 110.047 16.4467 101.927 13.661Z"
        fill="#F7A491" />
    <path
        d="M114.651 41.4046C112.583 41.4046 110.907 39.3613 110.907 36.8407C110.907 34.3202 112.583 32.2769 114.651 32.2769C116.719 32.2769 118.396 34.3202 118.396 36.8407C118.396 39.3613 116.719 41.4046 114.651 41.4046Z"
        fill="#F7A491" />
    <path
        d="M79.3733 7.97587C73.9957 12.2215 72.1114 18.6723 75.164 22.3844C78.2169 26.0964 85.0509 25.6638 90.4285 21.4184C95.8058 17.1728 97.6902 10.7218 94.6375 7.00986C91.5846 3.29791 84.7508 3.73046 79.3733 7.97587Z"
        fill="#07345A" />
    <path
        d="M141.405 73.9307C134.913 71.5119 131.737 129.607 130.862 153.52C119.366 154.618 99.3293 153.528 94.3402 153.156C91.9937 152.981 86.5834 151.012 84.2496 150.709C81.8584 150.398 79.6907 150.236 78.515 150.439C78.0834 150.514 66.101 155.381 65.0758 156.448C63.8045 157.772 60.3679 161.111 60.948 162.555C61.5282 163.999 67.5576 158.532 67.5576 158.532L70.5043 156.89C66.8359 160.449 59.8391 165.137 60.847 166.844C61.83 168.509 68.1412 163.751 72.6397 160.509C68.7816 163.971 63.9884 170.165 65.0925 171.13C66.085 171.998 71.5373 164.827 77.3643 162.762C79.5235 161.997 81.6758 164.116 83.3744 164.372C84.6232 164.56 86.5502 164.961 87.7749 164.616L94.0842 162.838C96.2333 163.032 96.2873 164.294 98.4576 164.753C100.977 165.286 105.111 165.846 108.32 166.625C126.797 171.109 132.96 173.191 138.617 173.188C155.753 173.178 156.747 79.6471 141.405 73.9307Z"
        fill="#F7A491" />
    <path
        d="M153.724 128.472C154.94 103.979 154.762 73.7891 140.938 68.6384C135.484 66.6061 125.868 78.8259 127.597 128.97C134.977 129.575 145.812 130.062 153.724 128.472Z"
        fill="#07345A" />
    <path d="M76.3848 117.948H77.7937L98.9771 169.654L97.5182 169.434L76.3848 117.948Z" fill="#F79C8D" />
    <path
        d="M44.8091 291.82C44.8091 291.82 46.7286 297.933 43.2915 301.975C39.8545 306.017 25.5726 309.984 23.6978 312.173C21.8232 314.362 21.9649 316.227 21.9649 316.227L62.0497 315.131L61.6129 303.107L59.7671 294.467L44.8091 291.82Z"
        fill="#F7A491" />
    <path
        d="M40.7982 303.991C40.7982 303.991 51.098 308.129 56.073 305.679C61.0482 303.229 60.8981 302.55 62.3376 303.464C63.7774 304.378 64.2929 315.649 64.2929 315.649L19.2188 316.965C16.082 316.893 14.4962 314.599 17.0448 312.635C18.7921 311.288 20.8116 310.386 21.9591 309.732C25.4852 307.724 40.7982 303.991 40.7982 303.991Z"
        fill="#355389" />
    <path
        d="M46.3284 183.943C43.2302 177.467 36.184 169.036 23.7862 174.114C11.9614 178.957 8.7876 190.861 12.5184 203.049C16.2492 215.238 40.8101 286.891 41.666 296.743L61.2762 296.872C61.2762 296.872 57.7126 240.136 56.838 226.422C55.9969 213.227 51.6903 195.151 46.3284 183.943Z"
        fill="#3C8F7C" />
    <path
        d="M14.4932 117.948H80.0453C81.7797 117.948 83.3421 118.993 84.0001 120.592L104.184 169.654H140.323C141.334 169.654 142.153 170.47 142.153 171.476C142.153 172.483 141.334 173.299 140.323 173.299H37.468C34.6402 173.299 32.0757 171.645 30.9176 169.073L10.5939 123.953C9.32416 121.134 11.3932 117.948 14.4932 117.948Z"
        fill="#F47458" />
    <path
        d="M49.7864 146.518C50.2291 148.721 52.1577 150.195 54.0943 149.809C56.0307 149.423 57.2417 147.324 56.7988 145.12C56.3561 142.916 54.4273 141.443 52.4909 141.829C50.5545 142.215 49.3435 144.314 49.7864 146.518Z"
        fill="white" />
    <path
        d="M237.048 237.032C236.632 233.372 236.138 229.627 234.434 226.361C232.361 222.389 228.719 219.523 225.538 216.366C219.593 210.468 215.018 203.2 212.272 195.293C210.149 189.179 209.091 182.665 206.165 176.891C204.378 173.366 201.942 170.213 199.912 166.821C195.116 158.804 192.505 149.329 186.001 142.618C184.75 150.754 187.223 159.388 192.595 165.632C194.196 167.494 196.054 169.172 197.275 171.303C199.49 175.171 199.288 179.891 199.548 184.34C200.036 192.701 202.4 200.948 206.417 208.3C210.684 216.109 216.844 223.064 219.125 231.664C220.835 238.109 220.327 245.338 223.972 250.923C224.367 251.528 224.819 252.137 224.916 252.852C224.97 253.255 224.907 253.662 224.844 254.063C224.762 254.582 224.681 255.101 224.599 255.62C223.77 260.895 222.913 267.606 227.461 271.554C230.613 274.29 234.67 274.351 236.933 270.717C239.212 267.057 239.01 261.702 238.841 257.584C238.56 250.726 237.823 243.849 237.048 237.032Z"
        fill="#3C8F7C" />
    <path
        d="M245.24 232.789C243.47 226.683 240.724 220.868 239.348 214.662C238.013 208.642 238.003 202.419 237.998 196.253C237.993 189.497 237.988 182.741 237.984 175.985C237.981 171.779 237.976 167.55 237.279 163.402C235.778 154.477 231.124 146.225 230.335 137.209C229.995 133.311 230.39 129.37 229.96 125.48C229.715 123.258 229.142 120.99 228.11 119.019C227.001 116.898 223.934 116.992 222.928 119.164C220.667 124.045 219.234 129.322 220.147 134.552C220.695 137.689 222.058 140.615 223.077 143.634C227.61 157.073 225.203 171.951 228.711 185.694C229.77 189.843 231.371 193.91 231.557 198.187C232.003 208.423 224.332 217.774 225.035 227.995C225.612 236.376 231.658 243.312 234.195 251.32C235.616 255.804 235.92 260.59 237.442 265.04C238.625 268.498 241.374 272.697 245.645 271.647C249.7 270.651 248.475 267.352 248.294 264.201C247.681 253.543 248.257 243.202 245.24 232.789Z"
        fill="#327F6B" />
    <path
        d="M254.521 238.384C254.342 235.211 253.805 232.021 254.25 228.875C254.626 226.217 255.687 223.713 256.445 221.139C257.866 216.314 258.218 211.25 258.562 206.233C259.187 197.113 259.812 187.993 260.437 178.872C261.409 164.696 262.386 150.479 265.046 136.52C265.784 132.644 266.613 128.444 264.866 124.906C264.497 124.16 263.772 123.369 262.977 123.617C262.411 123.794 262.133 124.415 261.928 124.971C256.115 140.718 253.917 157.671 247.428 173.152C245.873 176.86 244.065 180.509 243.26 184.448C242.294 189.178 242.825 194.064 242.949 198.89C243.128 205.811 242.452 212.786 240.534 219.439C239.531 222.92 238.187 226.323 237.638 229.904C236.952 234.368 237.528 238.916 237.957 243.412C238.782 252.057 239.062 260.753 238.793 269.433C238.636 274.536 242.958 274.402 245.821 271.267C247.823 269.075 247.805 266.668 248.49 263.939C250.742 254.979 255.067 248.099 254.521 238.384Z"
        fill="#3C8F7C" />
    <path
        d="M227.518 252.221C223.696 246.101 216.083 242.622 213.64 235.834C213.018 234.107 212.776 232.249 212.016 230.578C210.33 226.865 206.495 224.768 202.725 223.06C202.202 222.823 201.607 223.2 201.599 223.775C201.586 224.688 202.021 225.558 202.779 226.067C205.683 228.016 207.89 230.994 208.873 234.35C210.037 238.328 209.532 242.689 210.979 246.573C212.194 249.834 214.696 252.5 215.871 255.775C216.945 258.769 216.832 262.041 217.337 265.181C217.842 268.321 219.242 271.654 222.135 272.982C232.604 277.79 229.987 256.175 227.518 252.221Z"
        fill="#327F6B" />
    <path
        d="M271.06 250.202C270.897 253.16 271.351 256.262 270.189 258.989C269.445 260.734 268.108 262.144 267.011 263.691C263.157 269.124 261.76 276.821 255.839 279.879C255.448 280.081 255.012 280.262 254.579 280.181C253.973 280.069 253.575 279.486 253.331 278.919C251.88 275.548 253.508 271.751 254.473 268.21C254.642 267.591 254.783 266.9 254.487 266.331C254.161 265.704 253.418 265.432 252.911 264.94C251.899 263.96 251.994 262.337 252.195 260.943C252.697 257.461 253.402 254.008 254.307 250.608C254.82 248.68 255.412 246.736 256.527 245.08C257.754 243.258 259.536 241.897 261.204 240.467C268.577 234.145 274.225 225.836 277.387 216.659C278.071 214.673 278.681 212.575 280.095 211.02C281.509 209.464 284.029 208.663 285.75 209.87C286.975 210.729 281.958 218.773 281.373 219.737C279.701 222.493 279.679 224.892 278.734 227.953C276.419 235.453 271.502 242.166 271.06 250.202Z"
        fill="#3C8F7C" />
    <path
        d="M265.223 253.623C266.319 250.801 267.423 247.941 267.784 244.936C268.186 241.594 267.653 238.177 268.226 234.861C268.962 230.598 271.456 226.848 272.691 222.701C273.583 219.706 273.802 216.56 274.337 213.482C275.869 204.68 280.021 196.079 278.829 187.225C278.57 185.299 277.698 183.054 275.78 182.726C274.044 182.428 272.463 184.01 272.012 185.711C271.56 187.411 271.897 189.204 272.021 190.959C272.367 195.853 270.966 200.852 268.127 204.855C265.399 208.702 261.442 211.598 258.987 215.624C255.976 220.562 255.567 226.59 254.03 232.164C250.975 243.25 243.313 252.92 241.915 264.332C241.36 268.874 242.429 274.394 246.635 276.208C258.797 281.455 262.468 260.724 265.223 253.623Z"
        fill="#327F6B" />
    <path
        d="M243.961 267.692H242.016H216.049C214.14 267.692 212.732 269.471 213.173 271.326L223.349 314.088C223.665 315.418 224.855 316.357 226.224 316.357H242.016H243.962H259.754C261.123 316.357 262.313 315.418 262.629 314.088L272.804 271.326C273.245 269.471 271.837 267.692 269.929 267.692H243.961Z"
        fill="#F47458" />
    <path
        d="M89.9122 46.4933L99.9907 46.3293C99.9907 46.3293 99.821 50.1483 95.3908 50.3479C89.9894 50.5914 89.9122 46.4933 89.9122 46.4933Z"
        fill="white" />
</svg>