<?xml version="1.0" encoding="utf-8"?>
<!-- Generator: Adobe Illustrator 16.0.0, SVG Export Plug-In . SVG Version: 6.00 Build 0)  -->
<!DOCTYPE svg PUBLIC "-//W3C//DTD SVG 1.1 Basic//EN" "http://www.w3.org/Graphics/SVG/1.1/DTD/svg11-basic.dtd">
<svg version="1.1" baseProfile="basic" id="Layer_1" xmlns="http://www.w3.org/2000/svg"
    xmlns:xlink="http://www.w3.org/1999/xlink" x="0px" y="0px" width="514px" height="387px" viewBox="0 0 514 387"
    xml:space="preserve">
    <g class="svg_skill active" data-title="React JS"
        data-info="Powerfull mordern frontend framwork for building single page application" data-stars="4.5"
        data-ex="2 years" data-tag="building and debugging">

        <linearGradient class='skills_svg_gradient' id="SVGID_1_" gradientUnits="userSpaceOnUse" x1="299.041"
            y1="303.0742" x2="-203.9579" y2="503.5693" gradientTransform="matrix(1 0 0 1 182.0801 -207.3203)">
            <stop offset="0" style="stop-color:#A815DE" />
            <stop offset="0.2188" style="stop-color:#7820A6" />
            <stop offset="0.4531" style="stop-color:#AC4FF4" />
            <stop offset="0.7083" style="stop-color:#B21FE2" />
            <stop offset="1" style="stop-color:#D440F2" />
        </linearGradient>
        <path class="bg" fill="url(#SVGID_1_)" d="M255.848,142.981l39.501,39.502c2.813,2.815,2.813,7.378,0,10.192l-39.501,39.502
		c-2.815,2.814-7.378,2.814-10.193,0l-39.501-39.502c-2.815-2.814-2.815-7.377,0-10.192l39.501-39.502
		C248.47,140.167,253.033,140.167,255.848,142.981z" />
        <path class="skill_path" fill="#ffFFFF" d="M250.504,191.172c2.613,0,4.732-2.111,4.732-4.716s-2.119-4.717-4.732-4.717
		c-2.614,0-4.732,2.112-4.732,4.717S247.89,191.172,250.504,191.172z" />
        <path class="skill_path react_rotate" fill="#FFFFFF"
            d="M250.5,177.993c6.115,0,11.924,0.859,16.34,2.374c4.904,1.683,7.896,4.171,7.896,6.088
		c0,2.043-3.231,4.694-8.479,6.426c-4.177,1.379-9.765,2.131-15.759,2.131c-6.297,0-11.948-0.736-16.076-2.143
		c-2.585-0.881-4.719-2.025-6.182-3.274c-1.314-1.122-1.978-2.236-1.978-3.14c0-1.923,2.877-4.377,7.676-6.044
		C238.358,178.876,244.309,177.993,250.5,177.993z M250.5,175.736c-6.432,0-12.632,0.92-17.305,2.544
		c-5.612,1.95-9.195,5.006-9.195,8.175c0,3.274,3.847,6.558,9.691,8.549c4.394,1.497,10.282,2.266,16.809,2.266
		c6.22,0,12.043-0.785,16.471-2.246c6.076-2.005,10.029-5.25,10.029-8.567c0-3.181-3.699-6.257-9.423-8.221
		C262.909,176.632,256.853,175.736,250.5,175.736z M243.104,182.251c3.055-5.279,6.704-9.866,10.227-12.922
		c3.912-3.394,7.569-4.734,9.235-3.776c1.774,1.021,2.466,5.134,1.351,10.529c-0.888,4.296-3.026,9.496-6.021,14.672
		c-3.146,5.438-6.61,9.948-9.896,12.809c-2.057,1.793-4.117,3.063-5.933,3.703c-1.632,0.574-2.932,0.59-3.717,0.14
		c-1.672-0.962-2.367-4.671-1.419-9.647C237.805,193.176,240.011,187.597,243.104,182.251z M241.143,181.124
		c-3.214,5.553-5.511,11.366-6.435,16.212c-1.108,5.818-0.243,10.439,2.512,12.023c2.846,1.636,7.622-0.045,12.272-4.096
		c3.495-3.048,7.105-7.746,10.365-13.384c3.106-5.371,5.336-10.79,6.275-15.343c1.292-6.249,0.447-11.283-2.436-12.94
		c-2.766-1.589-7.287,0.068-11.854,4.029C248.12,170.857,244.317,175.638,241.143,181.124z M243.111,190.766
		c-3.063-5.275-5.228-10.716-6.124-15.284c-0.996-5.074-0.335-8.901,1.33-9.862c1.773-1.023,5.694,0.436,9.826,4.093
		c3.29,2.912,6.742,7.355,9.746,12.526c3.155,5.432,5.346,10.676,6.193,14.94c0.529,2.672,0.605,5.086,0.255,6.973
		c-0.315,1.695-0.95,2.826-1.735,3.279c-1.67,0.965-5.243-0.289-9.095-3.594C249.961,200.797,246.213,196.105,243.111,190.766z
		 M241.152,191.897c3.222,5.548,7.127,10.435,10.879,13.653c4.504,3.863,8.953,5.423,11.705,3.835
		c2.843-1.64,3.767-6.604,2.565-12.643c-0.899-4.539-3.185-10.004-6.454-15.634c-3.117-5.365-6.715-9.996-10.203-13.082
		c-4.786-4.236-9.583-6.021-12.464-4.359c-2.762,1.594-3.58,6.326-2.417,12.248C235.712,180.744,237.969,186.416,241.152,191.897z" />
    </g>
    <g class="svg_skill" data-title="HTML 5" data-info="The markup language to stucture every webpage elements"
        data-stars="4" data-ex="5 years" data-tag="building and structuring">

        <linearGradient class='skills_svg_gradient' id="SVGID_2_" gradientUnits="userSpaceOnUse" x1="264.5068"
            y1="216.4463" x2="-238.4872" y2="416.9394" gradientTransform="matrix(1 0 0 1 182.0801 -207.3203)">
            <stop offset="0" style="stop-color:#A815DE" />
            <stop offset="0.2188" style="stop-color:#7820A6" />
            <stop offset="0.4531" style="stop-color:#AC4FF4" />
            <stop offset="0.7083" style="stop-color:#B21FE2" />
            <stop offset="1" style="stop-color:#D440F2" />
        </linearGradient>
        <path class="bg" fill="url(#SVGID_2_)" d="M184.237,84.381l26.252,26.251c2.813,2.815,2.813,7.378,0,10.193l-26.252,26.252
		c-2.815,2.814-7.378,2.814-10.192,0l-26.251-26.252c-2.815-2.815-2.815-7.378,0-10.193l26.251-26.251
		C176.859,81.567,181.422,81.567,184.237,84.381z" />
        <path class="skill_path" fill="#ffFAFA" d="M166.654,103l2.247,25.2l10.084,2.8l10.11-2.804l2.25-25.196h-24.689H166.654z M187.168,126.594
		l-8.127,2.252v0.012l-0.021-0.007l-0.021,0.007v-0.012l-8.127-2.252l-1.922-21.533h20.139L187.168,126.594L187.168,126.594z
		 M182.793,117.497l-0.357,4.008l-3.451,0.93l-3.442-0.927l-0.221-2.467h-3.104l0.433,4.854l6.345,1.755l6.326-1.755l0.849-9.488
		h-11.265l-0.281-3.166h11.826l0.277-3.091h-15.483l0.835,9.347H182.793z" />
    </g>
    <g class="svg_skill" data-title="Javascript" data-info="The markup language to stucture every webpage elements"
        data-stars="4" data-ex="5 years" data-tag="building and structuring">

        <linearGradient class='skills_svg_gradient' id="SVGID_3_" gradientUnits="userSpaceOnUse" x1="313.6543"
            y1="339.7461" x2="-189.3416" y2="540.2399" gradientTransform="matrix(1 0 0 1 182.0801 -207.3203)">
            <stop offset="0" style="stop-color:#A815DE" />
            <stop offset="0.2188" style="stop-color:#7820A6" />
            <stop offset="0.4531" style="stop-color:#AC4FF4" />
            <stop offset="0.7083" style="stop-color:#B21FE2" />
            <stop offset="1" style="stop-color:#D440F2" />
        </linearGradient>
        <path class="bg" fill="url(#SVGID_3_)" d="M185.614,226.723l26.251,26.252c2.815,2.815,2.815,7.379,0,10.193l-26.251,26.251
		c-2.815,2.813-7.378,2.813-10.192,0l-26.252-26.251c-2.815-2.814-2.815-7.378,0-10.193l26.252-26.252
		C178.236,223.909,182.799,223.909,185.614,226.723z" />
        <path class="skill_path" fill="#ffFFFF" d="M178.605,253.253h3.517v9.856c0,4.441-2.13,5.994-5.531,5.994c-0.832,0-1.897-0.141-2.591-0.371
		l0.394-2.848c0.485,0.162,1.111,0.277,1.804,0.277c1.482,0,2.407-0.671,2.407-3.076V253.253L178.605,253.253z M185.175,265.239
		c0.925,0.485,2.407,0.972,3.91,0.972c1.62,0,2.476-0.671,2.476-1.712c0-0.948-0.74-1.526-2.614-2.175
		c-2.592-0.926-4.304-2.359-4.304-4.651c0-2.659,2.245-4.673,5.9-4.673c1.781,0,3.054,0.348,3.98,0.787l-0.787,2.822
		c-0.602-0.301-1.735-0.74-3.239-0.74c-1.527,0-2.268,0.717-2.268,1.504c0,0.994,0.856,1.434,2.893,2.22
		c2.753,1.019,4.025,2.453,4.025,4.675c0,2.614-1.989,4.836-6.27,4.836c-1.781,0-3.54-0.485-4.419-0.974L185.175,265.239
		L185.175,265.239z" />
    </g>
    <g class="svg_skill" data-title="CSS 3" data-info="The markup language to stucture every webpage elements"
        data-stars="4" data-ex="5 years" data-tag="building and structuring">

        <linearGradient class='skills_svg_gradient' id="SVGID_4_" gradientUnits="userSpaceOnUse" x1="284.4844"
            y1="266.5498" x2="-218.5175" y2="467.046" gradientTransform="matrix(1 0 0 1 182.0801 -207.3203)">
            <stop offset="0" style="stop-color:#A815DE" />
            <stop offset="0.2188" style="stop-color:#7820A6" />
            <stop offset="0.4531" style="stop-color:#AC4FF4" />
            <stop offset="0.7083" style="stop-color:#B21FE2" />
            <stop offset="1" style="stop-color:#D440F2" />
        </linearGradient>
        <path class="bg" fill="url(#SVGID_4_)" d="M326.525,85.732l26.25,26.251c2.814,2.815,2.814,7.378,0,10.193l-26.25,26.251
		c-2.814,2.814-7.379,2.814-10.192,0l-26.252-26.251c-2.813-2.815-2.813-7.378,0-10.193l26.252-26.251
		C319.148,82.918,323.711,82.918,326.525,85.732z" />
        <path class="skill_path" fill="#ffFBFB" d="M309,104l2.188,25.201l9.799,2.799l9.826-2.803L333,104H309z M327.167,124.931l-6.163,1.757l-6.152-1.765
		l-0.422-4.861h3.016l0.215,2.473l3.35,0.948l0.01,0.017l3.342-0.928l0.352-4.01h-7.023l-0.25-3.124h7.541l0.271-3.188h-11.5
		l-0.25-3.062h15.036L327.167,124.931z" />
    </g>
    <g class="svg_skill" data-title="Next JS" data-info="The markup language to stucture every webpage elements"
        data-stars="4" data-ex="5 years" data-tag="building and structuring">

        <linearGradient class='skills_svg_gradient' id="SVGID_5_" gradientUnits="userSpaceOnUse" x1="279.3877"
            y1="253.7676" x2="-223.6122" y2="454.263" gradientTransform="matrix(1 0 0 1 182.0801 -207.3203)">
            <stop offset="0" style="stop-color:#A815DE" />
            <stop offset="0.2188" style="stop-color:#7820A6" />
            <stop offset="0.4531" style="stop-color:#AC4FF4" />
            <stop offset="0.7083" style="stop-color:#B21FE2" />
            <stop offset="1" style="stop-color:#D440F2" />
        </linearGradient>
        <path class="bg" fill="url(#SVGID_5_)" d="M114.509,155.429l26.251,26.252c2.815,2.814,2.815,7.377,0,10.192l-26.251,26.251
		c-2.815,2.815-7.378,2.815-10.192,0l-26.251-26.251c-2.815-2.815-2.815-7.378,0-10.192l26.251-26.252
		C107.131,152.615,111.694,152.615,114.509,155.429z" />
        <path class="skill_path" fill="#ffFFFF" d="M116.265,200.124c-0.111,0.06-0.105,0.083,0.006,0.026c0.033-0.015,0.062-0.033,0.088-0.06
		C116.359,200.072,116.356,200.074,116.265,200.124z M116.488,200.007c-0.053,0.041-0.053,0.044,0.011,0.011
		c0.035-0.017,0.065-0.037,0.065-0.043C116.564,199.951,116.549,199.957,116.488,200.007z M116.634,199.918
		c-0.053,0.041-0.053,0.044,0.011,0.012c0.035-0.018,0.065-0.037,0.065-0.044C116.71,199.861,116.695,199.868,116.634,199.918z
		 M116.78,199.831c-0.052,0.041-0.052,0.043,0.011,0.011c0.035-0.018,0.065-0.037,0.065-0.044
		C116.856,199.773,116.841,199.781,116.78,199.831z M116.983,199.699c-0.103,0.064-0.135,0.109-0.044,0.059
		c0.065-0.037,0.17-0.117,0.152-0.119C117.053,199.654,117.016,199.675,116.983,199.699L116.983,199.699z M108.016,172.004
		c-0.065,0.007-0.27,0.027-0.455,0.042c-4.26,0.383-8.251,2.682-10.778,6.216c-1.397,1.94-2.306,4.188-2.648,6.554
		c-0.12,0.823-0.135,1.067-0.135,2.185c0,1.117,0.015,1.36,0.135,2.185c0.815,5.632,4.824,10.365,10.26,12.119
		c0.974,0.313,2,0.527,3.166,0.656c0.455,0.051,2.419,0.051,2.874,0c2.014-0.223,3.721-0.722,5.404-1.58
		c0.257-0.133,0.307-0.168,0.272-0.197c-0.822-1.084-1.636-2.177-2.442-3.273l-2.399-3.24l-3.005-4.447
		c-0.999-1.488-2.008-2.97-3.026-4.445c-0.011-0.003-0.024,1.974-0.029,4.386c-0.009,4.225-0.011,4.395-0.065,4.495
		c-0.051,0.117-0.142,0.212-0.257,0.266c-0.094,0.048-0.177,0.057-0.619,0.057h-0.508l-0.135-0.085
		c-0.083-0.053-0.151-0.127-0.196-0.214l-0.061-0.133l0.006-5.878l0.009-5.882l0.091-0.113c0.061-0.072,0.135-0.133,0.218-0.179
		c0.12-0.059,0.167-0.065,0.675-0.065c0.598,0,0.697,0.024,0.853,0.194c1.217,1.81,2.423,3.627,3.619,5.451
		c1.948,2.952,4.609,6.982,5.918,8.964l2.375,3.599l0.12-0.08c1.142-0.761,2.179-1.668,3.081-2.703
		c1.89-2.162,3.115-4.827,3.53-7.667c0.12-0.824,0.135-1.067,0.135-2.185c0-1.117-0.015-1.36-0.135-2.185
		c-0.815-5.632-4.824-10.365-10.26-12.119c-1.016-0.323-2.062-0.542-3.123-0.653c-0.281-0.029-2.22-0.062-2.462-0.038
		L108.016,172.004z M114.156,181.077c0.07,0.035,0.132,0.084,0.183,0.143c0.051,0.06,0.09,0.129,0.114,0.203
		c0.023,0.076,0.028,1.706,0.023,5.38l-0.008,5.273l-0.93-1.425l-0.933-1.425v-3.833c0-2.477,0.011-3.87,0.029-3.937
		c0.021-0.078,0.058-0.151,0.107-0.215c0.05-0.063,0.112-0.116,0.183-0.155c0.12-0.062,0.164-0.068,0.625-0.068
		C113.983,181.018,114.059,181.024,114.156,181.077L114.156,181.077z" />
    </g>
    <g class="svg_skill" data-title="Redux" data-info="The markup language to stucture every webpage elements"
        data-stars="4" data-ex="5 years" data-tag="building and structuring">

        <linearGradient class='skills_svg_gradient' id="SVGID_6_" gradientUnits="userSpaceOnUse" x1="318.5928"
            y1="352.1279" x2="-184.4012" y2="552.621" gradientTransform="matrix(1 0 0 1 182.0801 -207.3203)">
            <stop offset="0" style="stop-color:#A815DE" />
            <stop offset="0.2188" style="stop-color:#7820A6" />
            <stop offset="0.4531" style="stop-color:#AC4FF4" />
            <stop offset="0.7083" style="stop-color:#B21FE2" />
            <stop offset="1" style="stop-color:#D440F2" />
        </linearGradient>
        <path class="bg" fill="url(#SVGID_6_)" d="M397.087,156.782l26.251,26.25c2.815,2.815,2.815,7.378,0,10.192l-26.251,26.252
		c-2.815,2.813-7.378,2.813-10.192,0l-26.252-26.252c-2.813-2.814-2.813-7.377,0-10.192l26.252-26.25
		C389.709,153.966,394.271,153.966,397.087,156.782z" />
        <path class="skill_path" fill="#ffFFFF" d="M397.791,192.854c1.086-0.094,1.93-1.05,1.874-2.193c-0.058-1.142-0.994-2.06-2.136-2.06h-0.076
		c-1.178,0.039-2.098,1.03-2.061,2.211c0.039,0.599,0.282,1.087,0.617,1.442c-1.31,2.547-3.275,4.42-6.255,5.993
		c-2.004,1.048-4.12,1.442-6.18,1.162c-1.724-0.243-3.07-1.013-3.896-2.248c-1.236-1.873-1.349-3.895-0.32-5.917
		c0.752-1.462,1.875-2.529,2.625-3.054c-0.188-0.486-0.412-1.31-0.524-1.928c-5.545,3.972-4.979,9.402-3.296,11.968
		c1.255,1.873,3.82,3.068,6.63,3.068c0.748,0,1.536-0.055,2.304-0.242c4.869-0.937,8.56-3.856,10.676-8.166L397.791,192.854
		L397.791,192.854z M404.477,188.171c-2.9-3.408-7.174-5.281-12.043-5.281h-0.638c-0.315-0.692-1.046-1.124-1.871-1.124h-0.057
		c-1.179,0-2.097,1.013-2.058,2.191c0.037,1.123,0.99,2.06,2.135,2.06h0.092c0.844-0.037,1.574-0.562,1.873-1.311h0.693
		c2.887,0,5.619,0.843,8.108,2.49c1.909,1.255,3.278,2.903,4.045,4.87c0.675,1.61,0.638,3.184-0.056,4.497
		c-1.067,2.06-2.866,3.146-5.244,3.146c-1.498,0-2.958-0.469-3.708-0.805c-0.449,0.371-1.199,0.99-1.743,1.365
		c1.646,0.748,3.314,1.18,4.926,1.18c3.652,0,6.365-2.059,7.397-4.045c1.122-2.248,1.028-6.03-1.837-9.271L404.477,188.171
		L404.477,188.171z M385.111,193.526c0.037,1.125,0.992,2.06,2.136,2.06h0.075c1.199-0.037,2.115-1.027,2.06-2.21
		c0-1.123-0.974-2.059-2.116-2.059h-0.076c-0.073,0-0.187,0-0.28,0.037c-1.554-2.623-2.21-5.433-1.966-8.464
		c0.148-2.285,0.898-4.271,2.246-5.919c1.123-1.405,3.24-2.099,4.684-2.135c4.045-0.076,5.73,4.964,5.859,6.968l1.873,0.561
		c-0.431-6.142-4.25-9.365-7.901-9.365c-3.429,0-6.593,2.491-7.866,6.144c-1.74,4.87-0.6,9.551,1.536,13.297
		C385.188,192.685,385.075,193.115,385.111,193.526L385.111,193.526z" />
    </g>
    <g class="svg_skill" data-title="Node JS" data-info="The markup language to stucture every webpage elements"
        data-stars="4" data-ex="5 years" data-tag="building and structuring">

        <linearGradient class='skills_svg_gradient' id="SVGID_7_" gradientUnits="userSpaceOnUse" x1="333.2402"
            y1="388.8643" x2="-169.7654" y2="589.362" gradientTransform="matrix(1 0 0 1 182.0801 -207.3203)">
            <stop offset="0" style="stop-color:#A815DE" />
            <stop offset="0.2188" style="stop-color:#7820A6" />
            <stop offset="0.4531" style="stop-color:#AC4FF4" />
            <stop offset="0.7083" style="stop-color:#B21FE2" />
            <stop offset="1" style="stop-color:#D440F2" />
        </linearGradient>
        <path class="bg" fill="url(#SVGID_7_)" d="M326.525,227.482l26.25,26.25c2.814,2.814,2.814,7.379,0,10.192l-26.25,26.251
		c-2.814,2.815-7.379,2.815-10.192,0l-26.252-26.251c-2.813-2.813-2.813-7.378,0-10.192l26.252-26.25
		C319.148,224.668,323.711,224.668,326.525,227.482z" />
        <path class="skill_path" fill="#ffFFFF" d="M320.863,275c-0.43,0-0.855-0.111-1.23-0.329l-3.915-2.317c-0.585-0.326-0.299-0.441-0.106-0.51
		c0.779-0.273,0.938-0.334,1.771-0.807c0.089-0.051,0.202-0.032,0.292,0.021l3.008,1.782c0.108,0.06,0.264,0.06,0.363,0
		l11.727-6.769c0.107-0.063,0.18-0.188,0.18-0.316v-13.529c0-0.137-0.071-0.257-0.182-0.324l-11.723-6.762
		c-0.107-0.064-0.252-0.064-0.359,0l-11.721,6.762c-0.111,0.064-0.188,0.19-0.188,0.32v13.53c0,0.129,0.072,0.252,0.184,0.313
		l3.211,1.854c1.744,0.872,2.811-0.155,2.811-1.188v-13.354c0-0.188,0.148-0.337,0.341-0.337h1.485c0.185,0,0.336,0.146,0.336,0.337
		v13.361c0,2.323-1.269,3.659-3.473,3.659c-0.678,0-1.212,0-2.701-0.732l-3.076-1.771c-0.762-0.441-1.23-1.264-1.23-2.142v-13.53
		c0-0.882,0.471-1.701,1.23-2.138l11.736-6.771c0.742-0.42,1.729-0.42,2.467,0l11.723,6.773c0.757,0.438,1.229,1.258,1.229,2.139
		v13.529c0,0.878-0.473,1.696-1.229,2.139l-11.723,6.771c-0.377,0.217-0.803,0.329-1.236,0.329V275z M324.484,265.676
		c-5.131,0-6.207-2.355-6.207-4.33c0-0.188,0.152-0.338,0.341-0.338h1.514c0.168,0,0.308,0.122,0.335,0.287
		c0.229,1.544,0.91,2.322,4.012,2.322c2.474,0,3.522-0.559,3.522-1.869c0-0.754-0.299-1.314-4.138-1.691
		c-3.211-0.315-5.195-1.022-5.195-3.592c0-2.365,1.996-3.775,5.339-3.775c3.754,0,5.615,1.305,5.849,4.104
		c0.011,0.097-0.024,0.19-0.09,0.261c-0.063,0.067-0.156,0.108-0.25,0.108h-1.521c-0.159,0-0.299-0.111-0.329-0.265
		c-0.367-1.623-1.253-2.143-3.663-2.143c-2.697,0-3.012,0.938-3.012,1.645c0,0.854,0.369,1.104,4.01,1.584
		c3.604,0.479,5.314,1.154,5.314,3.688c0,2.553-2.131,4.018-5.848,4.018L324.484,265.676z" />
    </g>
    <g class="svg_skill" data-title="Photoshop" data-info="The markup language to stucture every webpage elements"
        data-stars="4" data-ex="5 years" data-tag="building and structuring">

        <linearGradient class='skills_svg_gradient' id="SVGID_8_" gradientUnits="userSpaceOnUse" x1="305.3242"
            y1="318.834" x2="-197.6776" y2="519.3302" gradientTransform="matrix(1 0 0 1 182.0801 -207.3203)">
            <stop offset="0" style="stop-color:#A815DE" />
            <stop offset="0.2188" style="stop-color:#7820A6" />
            <stop offset="0.4531" style="stop-color:#AC4FF4" />
            <stop offset="0.7083" style="stop-color:#B21FE2" />
            <stop offset="1" style="stop-color:#D440F2" />
        </linearGradient>
        <path class="bg" fill="url(#SVGID_8_)" d="M460.455,92.94l26.251,26.251c2.814,2.815,2.814,7.378,0,10.193l-26.251,26.252
		c-2.815,2.814-7.378,2.814-10.192,0l-26.252-26.252c-2.813-2.815-2.813-7.378,0-10.192l26.252-26.251
		C453.077,90.125,457.64,90.125,460.455,92.94z" />
        <path class="skill_path" fill="#ffFFFF" stroke="#FFFFFF" stroke-width="0.5" d="M448.883,117.386c0-0.072,0.024-0.132,0.117-0.132
		c0.735-0.036,1.785-0.06,2.917-0.06c3.15,0,4.526,1.771,4.526,4.044c0,2.968-2.123,4.236-4.69,4.236
		c-0.431,0-0.583-0.024-0.886-0.024v4.547c0,0.096-0.035,0.132-0.129,0.132h-1.728c-0.094,0-0.129-0.036-0.129-0.132
		L448.883,117.386L448.883,117.386z M450.867,123.584c0.256,0.024,0.466,0.024,0.921,0.024c1.33,0,2.602-0.479,2.602-2.334
		c0-1.483-0.91-2.237-2.438-2.237c-0.455,0-0.887,0.024-1.085,0.036V123.584z M461.04,122.196c-0.898,0-1.202,0.466-1.202,0.849
		c0,0.419,0.21,0.718,1.412,1.352c1.785,0.886,2.345,1.736,2.345,2.992c0,1.867-1.388,2.872-3.267,2.872
		c-0.991,0-1.878-0.216-2.368-0.503c-0.07-0.036-0.093-0.096-0.093-0.191v-1.723c0-0.12,0.058-0.156,0.128-0.096
		c0.712,0.479,1.587,0.694,2.333,0.694c0.897,0,1.271-0.383,1.271-0.909c0-0.419-0.257-0.79-1.41-1.412
		c-1.621-0.79-2.286-1.604-2.286-2.944c0-1.508,1.143-2.752,3.138-2.752c0.98,0,1.703,0.155,2.077,0.323
		c0.093,0.06,0.116,0.155,0.116,0.227v1.604c0,0.095-0.06,0.155-0.163,0.119C462.557,122.387,461.775,122.196,461.04,122.196z
		 M446.958,110.374c-2.741,0-4.958,2.273-4.958,5.085v17.829c0,2.812,2.217,5.086,4.958,5.086h18.084
		c2.741,0,4.958-2.274,4.958-5.086v-17.829c0-2.812-2.217-5.085-4.958-5.085H446.958z M447.402,111.57h17.185
		c1.123,0,2.2,0.458,2.994,1.272c0.794,0.815,1.241,1.92,1.241,3.072v16.907c0.002,0.571-0.105,1.137-0.316,1.665
		c-0.211,0.528-0.521,1.008-0.914,1.412c-0.393,0.405-0.857,0.726-1.373,0.946c-0.513,0.219-1.063,0.332-1.621,0.333h-17.194
		c-2.334,0-4.235-1.95-4.235-4.344v-16.919C443.167,113.521,445.068,111.57,447.402,111.57z" />
    </g>
    <g class="svg_skill" data-title="Illustrator" data-info="The markup language to stucture every webpage elements"
        data-stars="4" data-ex="5 years" data-tag="building and structuring">

        <linearGradient class='skills_svg_gradient' id="SVGID_9_" gradientUnits="userSpaceOnUse" x1="349.2324"
            y1="428.9902" x2="-153.7694" y2="629.4865" gradientTransform="matrix(1 0 0 1 182.0801 -207.3203)">
            <stop offset="0" style="stop-color:#A815DE" />
            <stop offset="0.2188" style="stop-color:#7820A6" />
            <stop offset="0.4531" style="stop-color:#AC4FF4" />
            <stop offset="0.7083" style="stop-color:#B21FE2" />
            <stop offset="1" style="stop-color:#D440F2" />
        </linearGradient>
        <path class="bg" fill="url(#SVGID_9_)" d="M460.905,220.417l26.252,26.251c2.813,2.814,2.813,7.378,0,10.193l-26.252,26.252
		c-2.814,2.813-7.378,2.813-10.192,0l-26.252-26.252c-2.813-2.815-2.813-7.379,0-10.193l26.252-26.251
		C453.527,217.604,458.091,217.604,460.905,220.417z" />
        <path class="skill_path" fill="#ffFFFF" d="M461.637,246.329c0.75,0,1.363-0.606,1.363-1.351c0-0.746-0.613-1.353-1.363-1.353
		c-0.749,0-1.361,0.606-1.361,1.353C460.274,245.727,460.881,246.329,461.637,246.329z" />
        <path class="skill_path" fill="#ffFFFF" d="M460.31,247.512h2.636v9.903h-2.636V247.512z" />
        <path class="skill_path" fill="#ffFFFF" d="M451.923,254.096h3.563l0.963,3.317h2.696l-3.916-13.013h-3.274v1.285l-3.435,11.728h2.438L451.923,254.096
		z M453.688,246.716l1.315,5.104h-2.632L453.688,246.716z" />
        <path fill="none" stroke="#FFFFFF" stroke-width="2" d="M469.094,260.516c0.003,0.59-0.106,1.176-0.326,1.725
		c-0.219,0.547-0.54,1.043-0.946,1.463c-0.406,0.418-0.891,0.752-1.422,0.979c-0.531,0.229-1.103,0.346-1.68,0.346h-17.811
		c-2.417,0-4.386-2.021-4.386-4.5v-17.522c0-2.479,1.969-4.498,4.386-4.498h17.798c1.164,0,2.279,0.474,3.103,1.316
		c0.822,0.844,1.284,1.987,1.284,3.182V260.516L469.094,260.516z" />
    </g>
    <g class="svg_skill" data-title="Adobe XD" data-info="The markup language to stucture every webpage elements"
        data-stars="4" data-ex="5 years" data-tag="building and structuring">

        <linearGradient class='skills_svg_gradient' id="SVGID_10_" gradientUnits="userSpaceOnUse" x1="247.8579"
            y1="174.6855" x2="-255.1341" y2="375.1779" gradientTransform="matrix(1 0 0 1 182.0801 -207.3203)">
            <stop offset="0" style="stop-color:#A815DE" />
            <stop offset="0.2188" style="stop-color:#7820A6" />
            <stop offset="0.4531" style="stop-color:#AC4FF4" />
            <stop offset="0.7083" style="stop-color:#B21FE2" />
            <stop offset="1" style="stop-color:#D440F2" />
        </linearGradient>
        <path class="bg" fill="url(#SVGID_10_)" d="M50.555,89.271l26.251,26.251c2.815,2.814,2.815,7.378,0,10.192l-26.251,26.252
		c-2.815,2.814-7.378,2.814-10.192,0l-26.251-26.252c-2.815-2.814-2.815-7.378,0-10.192l26.251-26.251
		C43.177,86.456,47.741,86.456,50.555,89.271z" />
        <path class="skill_path" fill="#ffFFFF" stroke="#FFFFFF" stroke-width="0.5" d="M54.865,106.374h-18.73c-2.839,0-5.135,2.354-5.135,5.267v18.465
		c0,2.913,2.296,5.268,5.135,5.268h18.729c2.839,0,5.135-2.355,5.135-5.268v-18.465C60,108.728,57.704,106.374,54.865,106.374z
		 M58.78,129.623c0.002,0.591-0.108,1.177-0.327,1.724c-0.219,0.547-0.541,1.044-0.947,1.463c-0.406,0.419-0.89,0.752-1.421,0.979
		c-0.532,0.228-1.103,0.345-1.679,0.345H36.595c-2.417,0-4.386-2.02-4.386-4.499v-17.523c0-2.479,1.969-4.499,4.386-4.499h17.798
		c1.164,0,2.279,0.474,3.102,1.317c0.822,0.844,1.285,1.988,1.285,3.182V129.623L58.78,129.623z M42.467,119.944l3.383,6.668
		c0.06,0.099,0.024,0.198-0.073,0.198h-2.103c-0.133,0-0.193-0.037-0.253-0.161c-0.773-1.636-1.559-3.272-2.369-5.032h-0.024
		c-0.725,1.661-1.522,3.408-2.296,5.044c-0.061,0.099-0.121,0.136-0.218,0.136H36.52c-0.121,0-0.133-0.099-0.072-0.173l3.311-6.469
		l-3.202-6.544c-0.072-0.099,0-0.173,0.073-0.173h2.078c0.121,0,0.169,0.024,0.218,0.136c0.761,1.636,1.535,3.321,2.26,4.97h0.024
		c0.701-1.636,1.474-3.334,2.223-4.958c0.061-0.099,0.097-0.161,0.218-0.161h1.945c0.097,0,0.133,0.075,0.073,0.174L42.467,119.944
		L42.467,119.944z M46.442,121.964c0-2.887,1.873-5.143,4.846-5.143c0.253,0,0.387,0,0.628,0.025v-3.284
		c0-0.075,0.06-0.124,0.121-0.124h1.909c0.097,0,0.121,0.037,0.121,0.099v11.377c0,0.334,0,0.756,0.061,1.214
		c0,0.075-0.024,0.099-0.097,0.137c-1.015,0.495-2.078,0.718-3.093,0.718C48.315,126.996,46.442,125.335,46.442,121.964
		L46.442,121.964z M51.917,118.791c-0.169-0.074-0.411-0.123-0.701-0.123c-1.522,0-2.586,1.202-2.586,3.197
		c0,2.28,1.088,3.197,2.453,3.197c0.29,0,0.604-0.037,0.834-0.136V118.791L51.917,118.791z" />
    </g>
    <g class="svg_skill" data-title="Figma" data-info="The markup language to stucture every webpage elements"
        data-stars="4" data-ex="5 years" data-tag="building and structuring">

        <linearGradient class='skills_svg_gradient' id="SVGID_11_" gradientUnits="userSpaceOnUse" x1="292.5068"
            y1="286.6836" x2="-210.493" y2="487.179" gradientTransform="matrix(1 0 0 1 182.0801 -207.3203)">
            <stop offset="0" style="stop-color:#A815DE" />
            <stop offset="0.2188" style="stop-color:#7820A6" />
            <stop offset="0.4531" style="stop-color:#AC4FF4" />
            <stop offset="0.7083" style="stop-color:#B21FE2" />
            <stop offset="1" style="stop-color:#D440F2" />
        </linearGradient>
        <path class="bg" fill="url(#SVGID_11_)" d="M50.555,219.066l26.251,26.25c2.815,2.814,2.815,7.379,0,10.192L50.555,281.76
		c-2.815,2.815-7.378,2.815-10.192,0l-26.252-26.25c-2.815-2.814-2.815-7.378,0-10.191l26.251-26.252
		C43.177,216.251,47.741,216.251,50.555,219.066z" />
        <path fill="none" stroke="#FFFFFF" stroke-width="2" stroke-linecap="round" stroke-linejoin="round" d="M37,242.375
		c0-1.16,0.461-2.273,1.281-3.094c0.821-0.82,1.934-1.281,3.094-1.281h4.375v8.75h-4.375c-1.16,0-2.273-0.461-3.094-1.281
		C37.461,244.648,37,243.535,37,242.375z" />
        <path fill="none" stroke="#FFFFFF" stroke-width="2" stroke-linecap="round" stroke-linejoin="round" d="M45.752,238h4.375
		c0.575,0,1.144,0.113,1.674,0.333c0.53,0.22,1.013,0.542,1.419,0.948c0.406,0.406,0.729,0.889,0.948,1.42
		c0.219,0.531,0.333,1.099,0.333,1.674s-0.113,1.143-0.333,1.674c-0.22,0.531-0.542,1.014-0.948,1.42
		c-0.406,0.406-0.889,0.729-1.419,0.948c-0.53,0.219-1.1,0.333-1.674,0.333h-4.375V238z" />
        <path fill="none" stroke="#FFFFFF" stroke-width="2" stroke-linecap="round" stroke-linejoin="round" d="M45.752,251.124
		c0-0.575,0.113-1.144,0.333-1.674c0.22-0.531,0.542-1.015,0.948-1.421c0.406-0.405,0.889-0.729,1.419-0.947
		c0.531-0.221,1.1-0.333,1.674-0.333s1.144,0.112,1.674,0.333c0.531,0.22,1.013,0.542,1.419,0.947
		c0.406,0.406,0.729,0.89,0.948,1.421c0.22,0.53,0.333,1.099,0.333,1.674c0,0.574-0.113,1.144-0.333,1.674
		c-0.22,0.531-0.542,1.013-0.948,1.419c-0.406,0.407-0.889,0.729-1.419,0.949c-0.531,0.22-1.1,0.333-1.674,0.333
		s-1.144-0.113-1.674-0.333c-0.531-0.221-1.013-0.542-1.419-0.949c-0.406-0.406-0.729-0.888-0.948-1.419
		C45.866,252.268,45.752,251.698,45.752,251.124z" />
        <path fill="none" stroke="#FFFFFF" stroke-width="2" stroke-linecap="round" stroke-linejoin="round" d="M37,259.873
		c0-1.161,0.461-2.273,1.281-3.094c0.821-0.821,1.934-1.281,3.094-1.281h4.375v4.375c0,1.16-0.461,2.273-1.281,3.093
		c-0.821,0.821-1.934,1.282-3.094,1.282s-2.273-0.461-3.094-1.282C37.461,262.146,37,261.033,37,259.873z" />
        <path fill="none" stroke="#FFFFFF" stroke-width="2" stroke-linecap="round" stroke-linejoin="round" d="M37,251.124
		c0-1.161,0.461-2.272,1.281-3.095c0.821-0.819,1.934-1.28,3.094-1.28h4.375v8.75h-4.375c-1.16,0-2.273-0.461-3.094-1.282
		C37.461,253.396,37,252.284,37,251.124z" />
    </g>
    <g class="svg_skill" data-title="Sass" data-info="The markup language to stucture every webpage elements"
        data-stars="4" data-ex="5 years" data-tag="building and structuring">

        <linearGradient class='skills_svg_gradient' id="SVGID_12_" gradientUnits="userSpaceOnUse" x1="249.9639"
            y1="179.9429" x2="-253.0417" y2="380.4406" gradientTransform="matrix(1 0 0 1 182.0801 -207.3203)">
            <stop offset="0" style="stop-color:#A815DE" />
            <stop offset="0.2188" style="stop-color:#7820A6" />
            <stop offset="0.4531" style="stop-color:#AC4FF4" />
            <stop offset="0.7083" style="stop-color:#B21FE2" />
            <stop offset="1" style="stop-color:#D440F2" />
        </linearGradient>
        <path class="bg" fill="url(#SVGID_12_)" d="M254.411,14.111l26.252,26.251c2.813,2.814,2.813,7.378,0,10.192l-26.252,26.251
		c-2.814,2.815-7.378,2.815-10.192,0l-26.252-26.251c-2.814-2.815-2.814-7.378,0-10.192l26.252-26.251
		C247.033,11.296,251.597,11.296,254.411,14.111z" />
        <path class="skill_path" fill="#ffFFFF" d="M266.643,47.161c-0.107-0.911-0.578-1.618-1.285-2.172c-0.819-0.641-1.779-0.905-2.803-0.947
		c-0.834-0.034-1.65,0.09-2.438,0.376c-0.225,0.081-0.444,0.177-0.67,0.268c-0.03-0.055-0.063-0.107-0.088-0.162
		c-0.232-0.474-0.512-0.927-0.573-1.47c-0.044-0.386-0.099-0.772-0.007-1.153c0.089-0.367,0.205-0.728,0.313-1.091
		c0.057-0.187,0.018-0.291-0.16-0.375c-0.063-0.029-0.13-0.055-0.197-0.065c-0.438-0.063-0.868-0.027-1.292,0.096
		c-0.15,0.044-0.259,0.128-0.292,0.294c-0.019,0.095-0.058,0.186-0.084,0.28c-0.111,0.391-0.189,0.789-0.368,1.161
		c-0.449,0.934-0.96,1.832-1.485,2.724c-0.057,0.096-0.116,0.191-0.188,0.308c-0.184-0.385-0.38-0.73-0.44-1.136
		c-0.067-0.458-0.12-0.915-0.006-1.37c0.085-0.339,0.196-0.672,0.298-1.006c0.049-0.159,0.026-0.242-0.118-0.326
		c-0.073-0.042-0.155-0.08-0.237-0.092c-0.454-0.067-0.901-0.032-1.338,0.11c-0.136,0.044-0.207,0.132-0.249,0.272
		c-0.122,0.413-0.226,0.836-0.397,1.229c-0.694,1.59-1.407,3.172-2.12,4.753c-0.149,0.33-0.323,0.649-0.491,0.97
		c-0.043,0.082-0.104,0.153-0.157,0.23c-0.043-0.05-0.059-0.085-0.059-0.119c0.001-0.203-0.023-0.413,0.016-0.609
		c0.117-0.594,0.252-1.186,0.395-1.775c0.117-0.486,0.254-0.968,0.385-1.452c0.044-0.162,0.045-0.313-0.072-0.449
		c-0.195-0.228-0.603-0.278-0.845-0.102c-0.026,0.019-0.057,0.032-0.107,0.061c0.009-0.077,0.014-0.125,0.021-0.173
		c0.051-0.37,0.061-0.738-0.04-1.103c-0.127-0.454-0.45-0.715-0.921-0.701c-0.22,0.007-0.45,0.044-0.653,0.124
		c-0.855,0.335-1.512,0.928-2.071,1.642c-0.051,0.065-0.118,0.124-0.189,0.163c-0.723,0.401-1.449,0.797-2.174,1.195
		c-0.271,0.148-0.542,0.297-0.807,0.442c-0.216-0.207-0.413-0.421-0.637-0.603c-0.682-0.556-1.375-1.098-2.061-1.648
		c-0.608-0.487-1.198-0.995-1.649-1.64c-0.336-0.48-0.552-1.005-0.572-1.599c-0.026-0.756,0.188-1.447,0.573-2.091
		c0.493-0.823,1.164-1.483,1.903-2.082c0.781-0.633,1.626-1.17,2.502-1.66c1.225-0.686,2.486-1.293,3.837-1.694
		c1.386-0.411,2.791-0.646,4.241-0.482c0.57,0.064,1.123,0.195,1.632,0.474c0.389,0.213,0.708,0.492,0.857,0.929
		c0.146,0.43,0.142,0.865,0.04,1.301c-0.206,0.883-0.69,1.612-1.299,2.263c-0.998,1.067-2.216,1.793-3.588,2.273
		c-0.791,0.277-1.604,0.451-2.441,0.521c-0.682,0.057-1.35-0.003-1.996-0.241c-0.428-0.157-0.8-0.398-1.1-0.747
		c-0.054-0.063-0.122-0.13-0.222-0.072c-0.098,0.057-0.115,0.151-0.082,0.245c0.055,0.157,0.105,0.319,0.191,0.459
		c0.214,0.351,0.527,0.606,0.871,0.825c0.661,0.42,1.399,0.561,2.165,0.594c1.162,0.05,2.296-0.123,3.413-0.435
		c1.596-0.445,2.983-1.231,4.096-2.471c0.927-1.032,1.588-2.198,1.729-3.605c0.069-0.687-0.004-1.36-0.326-1.986
		c-0.349-0.679-0.903-1.147-1.566-1.494c-0.964-0.506-2.006-0.705-3.081-0.763c-0.359,0-0.718,0-1.077,0
		c-1.303,0.063-2.562,0.337-3.786,0.782c-0.926,0.337-1.835,0.717-2.717,1.157c-1.921,0.96-3.71,2.108-5.179,3.699
		c-0.732,0.793-1.352,1.663-1.708,2.693c-0.104,0.302-0.168,0.622-0.243,0.934c-0.006,0.026,0.023,0.051-0.041,0.077
		c0,0.147,0,0.293,0,0.44c0.064,0.113,0.071,0.225,0.1,0.338c0.189,0.733,0.578,1.363,1.06,1.937
		c0.687,0.818,1.518,1.476,2.38,2.096c0.747,0.537,1.505,1.062,2.255,1.595c0.129,0.091,0.248,0.197,0.388,0.309
		c-0.12,0.065-0.221,0.122-0.325,0.175c-0.99,0.502-1.942,1.065-2.82,1.747c-0.529,0.411-1.041,0.848-1.402,1.418
		c-0.581,0.918-0.787,1.896-0.354,2.94c0.127,0.305,0.32,0.569,0.592,0.763c0.088,0.063,0.187,0.126,0.29,0.15
		c0.264,0.062,0.534,0.103,0.802,0.152c0.253,0,0.505,0,0.758,0c0.839-0.075,1.602-0.362,2.291-0.838
		c1.078-0.744,1.804-1.741,2.117-3.022c0.227-0.93,0.236-1.862-0.031-2.788c-0.025-0.086-0.056-0.17-0.089-0.253
		c-0.033-0.083-0.071-0.164-0.116-0.268c0.572-0.329,1.146-0.659,1.719-0.989c0.009,0.007,0.017,0.015,0.026,0.022
		c-0.031,0.102-0.064,0.204-0.093,0.308c-0.204,0.746-0.34,1.505-0.291,2.279c0.052,0.825,0.282,1.597,0.765,2.287
		c0.39,0.558,1.321,0.578,1.736,0.019c0.147-0.199,0.29-0.406,0.397-0.628c0.28-0.579,0.54-1.168,0.807-1.753
		c0.012-0.025,0.022-0.05,0.047-0.107c-0.019,0.277-0.042,0.52-0.052,0.764c-0.016,0.38,0.006,0.758,0.136,1.12
		c0.111,0.311,0.3,0.541,0.655,0.581c0.242,0.028,0.436-0.083,0.614-0.224c0.279-0.22,0.505-0.491,0.673-0.8
		c0.475-0.873,0.963-1.74,1.394-2.635c0.466-0.968,0.873-1.964,1.306-2.948c0.024-0.054,0.045-0.109,0.072-0.175
		c0.102,0.402,0.174,0.795,0.305,1.168c0.152,0.432,0.341,0.854,0.547,1.264c0.097,0.194,0.086,0.32-0.049,0.482
		c-0.564,0.68-1.118,1.368-1.673,2.056c-0.123,0.152-0.245,0.306-0.347,0.472c-0.062,0.101-0.103,0.223-0.12,0.341
		c-0.033,0.225,0.105,0.441,0.346,0.493c0.219,0.047,0.453,0.065,0.677,0.048c0.774-0.057,1.477-0.329,2.099-0.789
		c0.805-0.597,1.064-1.41,0.869-2.375c-0.053-0.262-0.146-0.517-0.237-0.769c-0.041-0.114-0.043-0.194,0.031-0.3
		c0.644-0.919,1.194-1.895,1.705-2.892c0.02-0.039,0.041-0.079,0.076-0.121c0.166,0.863,0.416,1.694,0.863,2.448
		c-0.229,0.22-0.455,0.419-0.658,0.639c-0.45,0.483-0.84,1.009-1.043,1.649c-0.087,0.276-0.155,0.556-0.116,0.852
		c0.061,0.458,0.436,0.755,0.886,0.651c0.963-0.223,1.795-0.677,2.402-1.481c0.41-0.541,0.447-1.145,0.275-1.778
		c-0.048-0.172-0.104-0.341-0.162-0.539c0.236-0.074,0.469-0.162,0.709-0.217c1.244-0.284,2.476-0.234,3.674,0.215
		c0.701,0.262,1.267,0.702,1.602,1.393c0.41,0.845,0.184,1.646-0.613,2.18c-0.074,0.05-0.158,0.089-0.221,0.151
		c-0.038,0.038-0.061,0.115-0.051,0.167c0.005,0.031,0.087,0.069,0.133,0.069c0.262-0.002,0.475-0.139,0.678-0.28
		c0.512-0.353,0.848-0.829,0.928-1.454c0.002-0.018-0.022-0.035,0.041-0.052c0-0.139,0-0.277,0-0.416
		c-0.063-0.017-0.037-0.034-0.039-0.052L266.643,47.161z M242.288,48.851c-0.083,1.115-0.588,2.019-1.414,2.75
		c-0.465,0.412-0.997,0.705-1.618,0.808c-0.225,0.037-0.455,0.046-0.674-0.047c-0.311-0.133-0.381-0.409-0.387-0.704
		c-0.009-0.469,0.155-0.893,0.38-1.296c0.294-0.526,0.725-0.927,1.185-1.301c0.725-0.59,1.512-1.09,2.317-1.561
		c0.013-0.008,0.029-0.012,0.061-0.025C242.262,47.935,242.322,48.389,242.288,48.851L242.288,48.851z M248.578,44.006
		c-0.059,0.356-0.132,0.712-0.236,1.057c-0.36,1.194-0.821,2.352-1.32,3.493c-0.092,0.211-0.226,0.404-0.343,0.604
		c-0.018,0.031-0.045,0.058-0.071,0.084c-0.144,0.143-0.282,0.135-0.355-0.052c-0.085-0.217-0.137-0.449-0.182-0.679
		c-0.03-0.154-0.023-0.316-0.032-0.474c0.01-1.123,0.352-2.145,0.934-3.095c0.24-0.392,0.501-0.765,0.899-1.014
		c0.123-0.076,0.26-0.137,0.399-0.177C248.483,43.693,248.614,43.792,248.578,44.006L248.578,44.006z M252.869,49.473
		c0.514-0.6,1.027-1.199,1.542-1.801C254.475,48.341,253.339,49.676,252.869,49.473z M257.795,48.262
		c-0.109,0.062-0.229,0.108-0.34,0.165c-0.102,0.053-0.136,0-0.139-0.088c-0.002-0.06,0.007-0.122,0.023-0.18
		c0.208-0.735,0.591-1.361,1.162-1.871c0.008-0.008,0.021-0.011,0.04-0.021C258.813,47.025,258.499,47.859,257.795,48.262
		L257.795,48.262z" />
    </g>
    <g class="svg_skill" data-title="Material UI" data-info="The markup language to stucture every webpage elements"
        data-stars="4" data-ex="5 years" data-tag="building and structuring">

        <linearGradient class='skills_svg_gradient' id="SVGID_13_" gradientUnits="userSpaceOnUse" x1="347.7295"
            y1="425.21" x2="-155.2762" y2="625.7078" gradientTransform="matrix(1 0 0 1 182.0801 -207.3203)">
            <stop offset="0" style="stop-color:#A815DE" />
            <stop offset="0.2188" style="stop-color:#7820A6" />
            <stop offset="0.4531" style="stop-color:#AC4FF4" />
            <stop offset="0.7083" style="stop-color:#B21FE2" />
            <stop offset="1" style="stop-color:#D440F2" />
        </linearGradient>
        <path class="bg" fill="url(#SVGID_13_)" d="M256.401,297.553l26.251,26.251c2.813,2.814,2.813,7.378,0,10.193l-26.251,26.251
		c-2.815,2.814-7.378,2.814-10.193,0l-26.251-26.251c-2.815-2.815-2.815-7.379,0-10.193l26.251-26.251
		C249.023,294.738,253.586,294.738,256.401,297.553z" />
        <path class="skill_path" fill="#ffFFFF" d="M237,319.001v12.988l3.75,2.166v-8.66l7.5,4.331l7.5-4.331v4.331l-7.5,4.329v4.33l7.5,4.329L267,336.32
		v-8.66l-3.75,2.166v4.329l-7.5,4.33L252,336.32l7.5-4.331v-12.988l-11.25,6.494L237,319.001z M267,319.001l-3.75,2.163v4.331
		l3.75-2.165V319.001L267,319.001z" />
    </g>
    <g class="svg_skill" data-title="Python" data-info="The markup language to stucture every webpage elements"
        data-stars="4" data-ex="5 years" data-tag="building and structuring">

        <linearGradient class='skills_svg_gradient' id="SVGID_14_" gradientUnits="userSpaceOnUse" x1="233.5576"
            y1="138.793" x2="-269.4404" y2="339.2877" gradientTransform="matrix(1 0 0 1 182.0801 -207.3203)">
            <stop offset="0" style="stop-color:#A815DE" />
            <stop offset="0.2188" style="stop-color:#7820A6" />
            <stop offset="0.4531" style="stop-color:#AC4FF4" />
            <stop offset="0.7083" style="stop-color:#B21FE2" />
            <stop offset="1" style="stop-color:#D440F2" />
        </linearGradient>
        <path class="bg" fill="url(#SVGID_14_)" d="M120.048,19.978l26.251,26.251c2.815,2.814,2.815,7.378,0,10.192l-26.251,26.251
		c-2.815,2.814-7.378,2.814-10.193,0l-26.251-26.25c-2.815-2.814-2.815-7.378,0-10.192l26.251-26.251
		C112.67,17.164,117.233,17.164,120.048,19.978z" />

        <linearGradient class='skills_svg_gradient' id="SVGID_15_" gradientUnits="userSpaceOnUse" x1="233.5576"
            y1="138.793" x2="-269.4404" y2="339.2877" gradientTransform="matrix(1 0 0 1 182.0801 -207.3203)">
            <stop offset="0" style="stop-color:#A815DE" />
            <stop offset="0.2188" style="stop-color:#7820A6" />
            <stop offset="0.4531" style="stop-color:#AC4FF4" />
            <stop offset="0.7083" style="stop-color:#B21FE2" />
            <stop offset="1" style="stop-color:#D440F2" />
        </linearGradient>
        <path class="bg" fill="url(#SVGID_15_)" d="M120.048,19.978l26.251,26.251c2.815,2.814,2.815,7.378,0,10.192l-26.251,26.251
		c-2.815,2.814-7.378,2.814-10.193,0l-26.251-26.25c-2.815-2.814-2.815-7.378,0-10.192l26.251-26.251
		C112.67,17.164,117.233,17.164,120.048,19.978z" />
        <path class="skill_path" fill="#ffFFFF" d="M127.645,46.748c-0.452-1.811-1.307-3.176-3.129-3.176h-2.35v2.777c0,2.156-1.828,3.973-3.914,3.973h-6.258
		c-1.711,0-3.129,1.465-3.129,3.182v5.965c0,1.699,1.477,2.695,3.129,3.182c1.981,0.58,3.885,0.686,6.258,0
		c1.576-0.457,3.129-1.377,3.129-3.182v-2.385h-6.252v-0.797h9.387c1.822,0,2.496-1.271,3.129-3.176
		C128.301,51.148,128.272,49.262,127.645,46.748L127.645,46.748z M118.645,58.672c0.65,0,1.177,0.533,1.177,1.189
		c0,0.662-0.527,1.195-1.177,1.195c-0.645,0-1.178-0.539-1.178-1.195C117.473,59.199,118,58.672,118.645,58.672z M111.707,49.537
		h6.258c1.74,0,3.129-1.436,3.129-3.182v-5.971c0-1.699-1.43-2.971-3.129-3.258c-2.098-0.346-4.377-0.328-6.258,0.006
		c-2.648,0.469-3.129,1.447-3.129,3.258v2.385h6.264v0.797h-8.613c-1.823,0-3.416,1.096-3.915,3.176
		c-0.574,2.385-0.597,3.873,0,6.363c0.446,1.852,1.506,3.176,3.329,3.176h2.15v-2.859C107.793,51.359,109.58,49.537,111.707,49.537z
		 M111.314,41.182c-0.65,0-1.177-0.533-1.177-1.189c0.006-0.662,0.527-1.195,1.177-1.195c0.645,0,1.178,0.539,1.178,1.195
		C112.492,40.649,111.965,41.182,111.314,41.182L111.314,41.182z" />
    </g>
    <g class="svg_skill" data-title="Flask" data-info="The markup language to stucture every webpage elements"
        data-stars="4" data-ex="5 years" data-tag="building and structuring">

        <linearGradient class='skills_svg_gradient' id="SVGID_16_" gradientUnits="userSpaceOnUse" x1="271.3633"
            y1="233.6318" x2="-231.6423" y2="434.1296" gradientTransform="matrix(1 0 0 1 182.0801 -207.3203)">
            <stop offset="0" style="stop-color:#A815DE" />
            <stop offset="0.2188" style="stop-color:#7820A6" />
            <stop offset="0.4531" style="stop-color:#AC4FF4" />
            <stop offset="0.7083" style="stop-color:#B21FE2" />
            <stop offset="1" style="stop-color:#D440F2" />
        </linearGradient>
        <path class="bg" fill="url(#SVGID_16_)" d="M390.135,22.23l26.252,26.251c2.814,2.815,2.814,7.378,0,10.192l-26.252,26.251
		c-2.814,2.815-7.378,2.815-10.191,0l-26.252-26.251c-2.814-2.814-2.814-7.378,0-10.192l26.252-26.251
		C382.757,19.416,387.32,19.416,390.135,22.23z" />
        <path class="skill_path" fill="#ffFFFF" d="M380.965,62.819c-1.143-0.9-2.363-1.763-3.195-2.975c-1.752-2.14-3.103-4.618-4.023-7.221
		c-0.559-1.694-0.75-3.51-1.469-5.138c-0.752-1.18,0.13-2.473,1.424-2.849c0.574-0.11,1.59-0.654,0.365-0.265
		c-1.099,0.805-1.205-0.731-0.08-0.828c0.771-0.102,1.052-0.731,0.789-1.296c-0.823-0.538,2-1.129,0.578-1.93
		c-1.478-1.598,2.071-1.905,1.196-0.092c-0.209,1.394,2.479-0.255,1.856,1.354c0.634,0.774,2.375,0.176,2.33,1.261
		c0.926,0.063,1.242,0.84,2.109,0.9c0.899,0.406,2.528,0.725,2.834,1.739c-0.893,0.707-2.957-1.458-3.056,0.497
		c0.269,2.887,0.2,5.861,1.256,8.61c0.5,1.665,1.711,2.975,2.806,4.272c1.047,1.27,2.465,2.163,3.91,2.917
		c1.266,0.597,2.633,0.994,4.016,1.242c0.56-0.429,1.55-2.021,2.422-1.35c0.042,0.755-1.735,1.579-0.083,1.495
		c0.97-0.292,1.642,0.75,2.44-0.19c0.734,0.871,3.058-0.558,2.533,1.225c-0.708,0.455-1.738,0.18-2.447,0.808
		c-1.17-0.584-2.102,0.522-3.396,0.382c-1.438,0.257-2.897,0.362-4.354,0.364c-2.391-0.189-4.83-0.269-7.104-1.1
		C383.341,64.278,382.092,63.548,380.965,62.819L380.965,62.819z M382.982,63.694c1.25,0.54,2.475,1.11,3.845,1.282
		c2.175,0.301,4.421,0.768,6.604,0.343c-0.988-0.446-2.012,0.175-2.994-0.319c-1.182,0.254-2.446-0.065-3.646-0.221
		c-1.365-0.607-2.838-1.025-4.115-1.815c-1.596-0.583,0.825,0.748,1.258,0.856c0.998,0.566-1.098-0.291-1.394-0.526
		c-0.835-0.469-0.942-0.371-0.083,0.105c0.174,0.101,0.345,0.207,0.525,0.293V63.694z M380.604,62.012
		c1.213,0.449-0.006-0.853-0.562-0.777c-0.246-0.426-0.94-0.696-0.45-0.925c-0.881,0.305-0.922-1.163-1.337-0.954
		c-0.933-0.294-0.362-1.336-1.472-1.975c-0.102-0.675-1.102-1.26-1.422-2.277c-0.141-0.52-1.131-2.016-0.523-0.625
		c0.518,1.34,1.43,2.487,2.188,3.634c0.588,1.091,1.285,2.232,2.356,2.913C379.745,61.372,380.092,61.903,380.604,62.012z
		 M377.111,58.178C377.152,57.996,377.333,58.574,377.111,58.178L377.111,58.178z M382.055,62.549
		C382.323,62.429,381.668,62.399,382.055,62.549L382.055,62.549z M382.712,62.789C382.645,62.458,382.412,62.974,382.712,62.789
		L382.712,62.789z M383.537,63.133C383.928,62.759,382.932,62.898,383.537,63.133L383.537,63.133z M384.947,63.92
		C385.186,63.568,384.186,63.787,384.947,63.92L384.947,63.92z M382.236,62.029C382.846,61.635,381.45,62.024,382.236,62.029
		L382.236,62.029z M382.855,62.337C382.837,62.129,382.635,62.431,382.855,62.337L382.855,62.337z M385.941,64.264
		c0.498,0.313,2.899,0.688,1.396,0.129C387.086,64.445,384.548,63.675,385.941,64.264z M381.041,60.447
		C380.992,60.238,380.271,60.215,381.041,60.447L381.041,60.447z M382.479,61.284C382.854,61.023,381.702,61.084,382.479,61.284
		L382.479,61.284z M383.688,62.025C384.225,61.823,382.816,61.822,383.688,62.025L383.688,62.025z M380.456,59.809
		c0.582,0.448,2.351,0.058,0.892-0.266c-0.662-0.354-2.158-0.595-1.14,0.212L380.456,59.809z M384.506,62.282
		C384.748,61.869,383.488,62.045,384.506,62.282L384.506,62.282z M383.275,61.303c1.426,0.404-1.197-0.9-0.352-0.146l0.188,0.085
		L383.275,61.303L383.275,61.303z M385.743,62.729C387.092,62.742,384.525,62.544,385.743,62.729L385.743,62.729z M379.938,59.029
		C379.885,58.778,379.605,59.05,379.938,59.029L379.938,59.029z M388.025,64.009C388.061,63.556,387.585,64.347,388.025,64.009
		L388.025,64.009z M382.238,60.439C382.157,60.2,381.816,60.429,382.238,60.439L382.238,60.439z M380.064,58.872
		C380.84,58.825,379.005,58.53,380.064,58.872L380.064,58.872z M377.49,57.207C377.393,56.835,376.646,56.539,377.49,57.207
		L377.49,57.207z M384.25,61.5C384.107,61.338,384.182,61.535,384.25,61.5L384.25,61.5z M388.457,64.082
		C388.445,63.835,388.229,64.175,388.457,64.082L388.457,64.082z M383.877,61.115C383.952,60.797,383.216,61.019,383.877,61.115
		L383.877,61.115z M380.743,59.125C381.318,59.064,379.82,58.737,380.743,59.125L380.743,59.125z M386.046,62.422
		C386.943,62.065,385.171,62.247,386.046,62.422L386.046,62.422z M383.287,60.55c1.035,0.133-1.23-0.704-0.227-0.075L383.287,60.55z
		 M386.883,62.76c0.967-0.577,0.648,1.353,1.639,0.163c0.979-0.712-0.844,0.884,0.361,0.129c0.872-0.584,2.159,0.275,2.973,0.556
		c0.584-0.029,1.152,0.506,1.752,0.181c1.154-0.313-2.256-0.462-1.36-1.012c-1.058,0.306-1.838-0.368-2.354-1.044
		c-1.187-0.274-2.557-0.879-3.147-1.927c-0.24-0.394,0.349,0.055-0.207-0.588c-0.714-0.635-1.07-1.356-1.55-2.127
		c-0.571-0.305-0.639-1.204-0.696-0.03c0.005-0.741-0.692-1.24-0.862-1.033c-0.002-0.713,0.745-0.356,0.223-0.884
		c-0.112-0.74-0.483-1.511-0.596-2.346c-0.173-0.402-0.024-1.264-0.592-0.353c-0.206,0.962-0.068-1.184,0.253-0.475
		c0.421-0.724-0.149-0.637-0.175-0.537c0.275-0.61,0.175-1.475-0.07-1.145c0.146-0.646,0.23-2.378-0.22-2.07
		c0.272-0.675,0.517-3.091-0.668-2.17c-0.479,0.006-1.31,0.175-1.703,0.37c1.231,0.679-0.124,0.245-0.625,0.138
		c-0.065,0.627-0.563,0.356-1.183,0.362c0.99,0.123-0.482,1.013-1.051,0.667c-0.738,0.353,0.637,1.234,0.015,1.506
		c0.075,0.41-1.132-0.149-1.038,0.8c-0.716-0.301-0.098,1.125,0.262,0.643c1.219,0.33,0.857,1.083,0.889,1.796
		c-0.197,0.416-0.98-0.979-0.176-0.914c-0.635-1.034-0.701-0.374-1.229,0.106c-0.124,0.035,1.349,0.684,0.425,1.004
		c0.813,0.125,0.835,0.837,1,1.288c0.489,0.508,0.391-0.563,0.975,0.05c-0.369-0.545-1.959-1.535-0.681-1.218
		c-0.006-0.549-0.229-0.991,0.161-0.98c0.389-0.702-0.406,1.734,0.469,0.84c0.241-0.106,0.303-0.704,0.737,0.056
		c0.632,0.623,0.229,1.072-0.663,0.504c0.158,0.541,1.191,0.733,0.998,1.581c0.207,0.744,0.494,0.47,0.745,0.427
		c0.196,0.723,0.309,0.191,0.317-0.153c0.901,0.193,0.69,0.726,0.975,1.1c0.619,0.28-0.891-1.902,0.177-0.657
		c1.123,1.014,0.421,1.438-0.587,1.275c0.637-0.051,0.843,0.863,1.643,0.83c0.727,0.346,1.219,1.675-0.035,1.121
		c-0.436-0.391-1.975-0.875-0.715-0.13c1.159,0.538,2.082,0.86,3.2,1.534c0.802,0.573,1.148,1.228,1.45,1.357
		c-0.672,0.321-2.027-0.257-1.021-0.435c-0.629-0.114-1.336-0.431-0.733,0.35c0.513,0.429,1.813,0.383,2.047,0.431
		c-0.199,0.435-0.538,0.47,0.007,0.504c-0.605,0.325,0.195,0.375,0.251,0.56V62.76H386.883z M385.641,59.25
		c-0.369-0.388-0.466-1.113-0.064-0.481C385.779,58.852,386.23,59.953,385.641,59.25z M389.688,61.822
		C389.92,61.808,389.695,61.997,389.688,61.822L389.688,61.822z M385.057,58.302C385.042,57.717,385.189,58.753,385.057,58.302
		L385.057,58.302z M384.652,57.76C384.188,56.862,385.241,58.016,384.652,57.76L384.652,57.76z M379.777,54.396
		C380.051,54.322,379.912,54.863,379.777,54.396L379.777,54.396z M383.658,56.498C383.826,55.868,383.855,57.028,383.658,56.498
		L383.658,56.498z M380.917,54.592C380.723,54.244,381.32,54.918,380.917,54.592L380.917,54.592z M383.27,55.347
		c-0.438-0.987,0.313-0.54,0.099,0.163L383.27,55.347z M379.212,52.641c-0.196-0.325-0.522-1.275-0.417-1.565
		c0.096,0.473,1.005,2.034,0.446,0.647c-0.618-1.162,0.737,0.378,0.877,0.668c0.063,0.287-0.382-0.079-0.08,0.597
		C379.488,52.217,379.713,53.413,379.212,52.641z M377.958,51.777C378.01,51.023,378.246,52.293,377.958,51.777L377.958,51.777z
		 M378.521,51.97C378.791,51.402,378.979,52.763,378.521,51.97L378.521,51.97z M377.166,50.92c-0.468-0.462-0.805-0.891,0.021-0.288
		c0.317,0.013-0.707-0.973,0.076-0.313C378.088,50.47,377.671,51.673,377.166,50.92z M377.878,50.902
		C378.15,50.633,378.021,51.167,377.878,50.902L377.878,50.902z M378.316,51.043C377.906,50.271,378.816,51.365,378.316,51.043
		L378.316,51.043z M377.445,50.209c-1.358-1.207,1.705,0.633,0.221,0.225L377.445,50.209z M381.333,52.469
		c-0.587-0.353-0.155-2.479,0.045-1.025c0.572-0.185-0.03,0.751,0.394,0.742c-0.064,0.591-0.256,0.804-0.437,0.283H381.333z
		 M382.771,53.319C382.83,52.678,382.893,53.757,382.771,53.319L382.771,53.319z M382.521,53.072
		C382.587,52.798,382.527,53.394,382.521,53.072L382.521,53.072z M377.712,49.813c-0.871-1.204,2.534,1.216,0.56,0.305
		C378.064,50.064,377.816,50.044,377.712,49.813z M380.482,51.282C380.4,50.269,380.666,51.449,380.482,51.282L380.482,51.282z
		 M382.585,52.63C382.747,52.053,382.598,53.012,382.585,52.63L382.585,52.63z M377.846,49.353c0.519-0.11,2.146,0.911,0.65,0.292
		C378.33,49.46,377.975,49.545,377.846,49.353z M382.295,51.572c0.055-1.037,0.311-0.619,0.002,0.146L382.295,51.572z
		 M378.23,48.993c0.211-0.31-0.562-1.4,0.11-0.392c0.29,0.231,0.841,0.388,0.354,0.484C379.46,49.759,378.51,49.268,378.23,48.993
		L378.23,48.993z M382.075,51.248C382.221,50.068,382.203,51.939,382.075,51.248L382.075,51.248z M377.79,47.903
		C377.951,47.834,377.875,48.118,377.79,47.903L377.79,47.903z M378.792,48.5C379.05,47.958,379.268,49.104,378.792,48.5
		L378.792,48.5z M381.621,50.074C381.618,49.865,381.675,50.377,381.621,50.074L381.621,50.074z M381.457,49.712
		C381.064,48.742,381.822,50.224,381.457,49.712L381.457,49.712z M381.216,49.075C381.15,48.675,381.441,49.579,381.216,49.075
		L381.216,49.075z M381.607,48.438c-0.271-0.475,0.341-2.093,0.408-1.089c-0.283,0.781-0.08,1.219,0.115,0.17
		C382.498,46.694,382.053,49.148,381.607,48.438L381.607,48.438z M382.011,46.033C382.128,45.889,382.037,46.207,382.011,46.033
		L382.011,46.033z M381.338,59.299C381.178,59.16,381.357,59.388,381.338,59.299L381.338,59.299z M382.727,60
		c0.771,0.199,0.767-0.12,0.068-0.214c-0.375-0.35-1.559-0.719-0.499-0.043c0.07,0.177,0.292,0.173,0.429,0.257H382.727z
		 M379.986,58.182c0.425,0.316,1.6,0.899,0.604,0.12c0.336-0.39-0.643-0.598-0.316-0.857c-0.825-0.505-0.65-0.46-0.072-0.445
		c-0.993-0.442,0.142-0.41,0.089-0.637c-0.383-0.075-1.899-0.674-1.007,0.05c-0.907-0.462-0.217,0.172-0.49,0.105
		c-0.928-0.252,0.825,0.706-0.146,0.469c0.531,0.421,1.433,1.08,0.226,0.446C378.711,57.66,379.734,58.007,379.986,58.182z
		 M381.436,59.016C383.2,59.583,380.572,58.32,381.436,59.016L381.436,59.016z M388.861,63.513
		C388.886,63.163,388.621,63.813,388.861,63.513L388.861,63.513z M389.626,63.834c0.406-0.394,0.017,0.629,0.674-0.096
		c0.007-0.519-0.021-0.825-0.757-0.195C389.341,63.655,389.251,64.134,389.626,63.834z M377.51,56.226
		C377.385,55.734,376.635,55.738,377.51,56.226L377.51,56.226z M378.325,56.76C378.021,56.258,377.245,56.306,378.325,56.76
		L378.325,56.76z M382.962,59.557c0.453,0.401,2.079,0.295,0.55,0.05C383.285,59.271,382.073,59.352,382.962,59.557z
		 M389.335,63.493C390.032,62.908,388.66,63.753,389.335,63.493L389.335,63.493z M390.785,64.488
		C390.788,64.3,390.484,64.57,390.785,64.488L390.785,64.488z M390.786,64.226C391.557,63.408,390.038,64.274,390.786,64.226
		L390.786,64.226z M375.506,54.548c-0.658-0.938-0.408-1.36-1.044-2.125c-0.12-0.587-1.087-1.916-0.5-0.507
		C374.5,52.739,374.66,54.014,375.506,54.548L375.506,54.548z M390.543,63.965C391.963,63.048,389.962,63.565,390.543,63.965
		L390.543,63.965z M391.627,64.391C392.34,63.78,391.177,64.263,391.627,64.391L391.627,64.391z M377.268,55.188
		C377.473,54.885,376.743,55.149,377.268,55.188L377.268,55.188z M391.4,64.099c0.688-0.444-0.157-0.375-0.125,0.04L391.4,64.099z
		 M382.063,58.213C382.037,57.913,381.698,58.238,382.063,58.213L382.063,58.213z M382.639,58.545
		C382.456,58.174,382.357,58.604,382.639,58.545L382.639,58.545z M392.506,64.4c0.881-0.638-0.535-0.123-0.186,0.12L392.506,64.4z
		 M392.168,64.238C392.886,63.635,391.41,64.504,392.168,64.238L392.168,64.238z M393.893,65.385
		C394.376,65.063,393.307,65.282,393.893,65.385L393.893,65.385z M377.711,54.97c0.646,0.146,2.582,1.593,1.439,0.1
		c-0.584-0.172-0.233-1.604-0.83-1.35c0.4,0.669,0.33,0.954-0.512,0.533c-1.059-0.516-0.595,0.255-0.389,0.467
		C377.141,54.785,377.793,54.965,377.711,54.97L377.711,54.97z M374.766,52.646c0.115-0.479-1.064-2.634-0.558-1.08
		C374.391,51.891,374.372,52.508,374.766,52.646z M380.171,55.978C379.838,55.699,380.154,55.938,380.171,55.978L380.171,55.978z
		 M380.991,56.168C380.991,55.662,380.085,55.963,380.991,56.168L380.991,56.168z M388.093,60.646
		C387.958,60.299,387.559,60.639,388.093,60.646L388.093,60.646z M388.436,60.896C388.385,60.702,388.238,60.933,388.436,60.896
		L388.436,60.896z M391.251,62.669C391.521,62.469,390.913,62.644,391.251,62.669L391.251,62.669z M376.236,53.021
		C377.012,52.72,375.407,52.807,376.236,53.021L376.236,53.021z M387.468,60.097C387.46,59.595,386.975,60.222,387.468,60.097
		L387.468,60.097z M375.932,52.308C376.428,52.139,375.471,52.197,375.932,52.308L375.932,52.308z M377.375,53.008
		C377.366,52.842,377.223,53.07,377.375,53.008L377.375,53.008z M394.986,63.808c0.642-0.13,2.1,0.325,2.334-0.17
		c-0.775-0.019-2.688-0.547-2.777,0.126l0.17,0.027l0.275,0.017H394.986z M377.835,53.123
		C377.846,52.614,377.438,53.104,377.835,53.123L377.835,53.123z M374.037,50.488C373.865,49.519,373.381,50.34,374.037,50.488
		L374.037,50.488z M374.941,50.715C374.953,50.404,374.113,50.436,374.941,50.715L374.941,50.715z M375.46,50.969
		C375.311,50.848,375.342,51.122,375.46,50.969L375.46,50.969z M378.716,53.057C378.868,52.917,378.354,52.953,378.716,53.057
		L378.716,53.057z M375.116,50.396C375.027,49.666,374.066,50.287,375.116,50.396L375.116,50.396z M373.258,49.192
		C373.232,48.854,373.078,49.319,373.258,49.192L373.258,49.192z M373.535,48.983C373.49,48.583,373.297,49.033,373.535,48.983
		L373.535,48.983z M375.061,49.894c0.646-0.253-1.176-0.525-0.133-0.049L375.061,49.894z M395.477,62.505
		C395.891,62.127,394.952,62.388,395.477,62.505L395.477,62.505z M397.945,63.784C398.109,63.294,397.527,63.848,397.945,63.784
		L397.945,63.784z M375.216,49.095C375.285,48.622,374.705,49.189,375.216,49.095L375.216,49.095z M373.046,47.642
		c-0.116-0.669-0.101-1.842,1.015-1.445c-1.487,0.295,1.03,1.85,0.713,0.623c0.625,0.03,1.226-0.37,0.896,0.237
		c1.233-0.136,2.089-1.205,3.28-1.056c0.928-0.123,1.941-0.215,2.941-0.589c0.822-0.06,1.614-0.945,1.162-1.469
		c-1.119-0.095-2.293,0.045-3.533,0.292c-1.373,0.285-2.619,0.827-4.006,1.061c-1.351,0.181,0.271,0.5-0.115,0.57
		c-0.705,0.245,0.84,0.41-0.092,0.667c-0.574-0.11-1.175-0.307-0.929-0.912c-1.293,0.166-2.431,0.704-1.407,2.02L373.046,47.642
		L373.046,47.642z M376.163,46.054c0.304-1.118,1.625,0.918,0.498,0.147c-0.136-0.1-0.356-0.183-0.498-0.149V46.054z
		 M376.223,45.512C376.66,45.187,376.455,45.694,376.223,45.512L376.223,45.512z M376.777,45.521
		c0.041-0.514,1.272,0.272,0.205,0.185L376.777,45.521z M377.538,45.215C377.816,44.891,377.618,45.504,377.538,45.215
		L377.538,45.215z M377.732,45.085c0.463-0.555,2.619-0.354,1.041-0.054C378.352,44.713,378.025,45.219,377.732,45.085z
		 M380.547,44.652C380.477,43.134,381.945,45.192,380.547,44.652L380.547,44.652z M381.346,44.646
		c0.291-0.765,1.133-0.306,0.135-0.153C381.502,44.574,381.451,44.888,381.346,44.646z M374.902,48.703
		C375.773,48.169,373.977,48.24,374.902,48.703L374.902,48.703z M375.546,48.883C375.852,48.558,374.882,48.75,375.546,48.883
		L375.546,48.883z M373.646,47.533C374.145,47.152,373.057,47.388,373.646,47.533L373.646,47.533z M399.4,63.646
		C399.415,63.202,399.02,63.845,399.4,63.646L399.4,63.646z M396.783,61.859C396.857,61.348,396.445,61.904,396.783,61.859
		L396.783,61.859z M400.121,63.818c0.695,0,2.109-0.216,0.594-0.216C400.477,63.639,399.328,63.632,400.121,63.818L400.121,63.818z
		 M376.111,48.568c0.563-0.038,0.884-0.621-0.108-0.587c-1.537-0.159,1.354,0.525-0.196,0.33c-0.209,0.137,0.295,0.296,0.305,0.259
		V48.568L376.111,48.568z M376.609,48.82C376.55,48.458,376.436,49.013,376.609,48.82L376.609,48.82z M377.197,47.249
		C377.443,46.945,376.859,47.168,377.197,47.249L377.197,47.249z M375.322,44.114c1.008-0.343,2.384-0.727,2.859,0.168
		c-0.484-0.583-0.195-1.155,0.262-0.304c0.645,0.861,0.969-0.391,0.548-0.681c0.479,0.595,1.024,0.876,0.321,0.038
		c0.763-0.917-1.529,0.121-2.051,0.11C377.012,43.558,374.673,44.042,375.322,44.114L375.322,44.114z M375.912,42.985
		c0.574-0.434,1.984,0.258,1.08-0.431C376.904,42.477,375.01,43.077,375.912,42.985z M378.005,43.072
		c0.672,0.016-0.289-0.903,0.511-0.486c-0.131-0.43-0.933-0.51-1.324-0.681C376.971,42.297,377.643,43.077,378.005,43.072z
		 M376.279,41.172C376.512,40.856,375.872,41.332,376.279,41.172L376.279,41.172z M377.135,41.377
		c1.082-0.144-0.275-0.467-0.218-0.013L377.135,41.377z M375.538,40.127c-0.763-0.995,1.433,0.167,0.659-0.875
		C375.545,38.733,374.918,39.837,375.538,40.127z M385.32,45.396c0.35-0.62-1.444-0.835-0.235-0.219
		C385.195,45.214,385.171,45.439,385.32,45.396z" />
    </g>
    <g class="svg_skill" data-title="Django" data-info="The markup language to stucture every webpage elements"
        data-stars="4" data-ex="5 years" data-tag="building and structuring">

        <linearGradient class='skills_svg_gradient' id="SVGID_17_" gradientUnits="userSpaceOnUse" x1="326.8047"
            y1="372.6934" x2="-176.2106" y2="573.1949" gradientTransform="matrix(1 0 0 1 182.0801 -207.3203)">
            <stop offset="0" style="stop-color:#A815DE" />
            <stop offset="0.2188" style="stop-color:#7820A6" />
            <stop offset="0.4531" style="stop-color:#AC4FF4" />
            <stop offset="0.7083" style="stop-color:#B21FE2" />
            <stop offset="1" style="stop-color:#D440F2" />
        </linearGradient>
        <path class="bg" fill="url(#SVGID_17_)" d="M120.949,290.688L147.2,316.94c2.815,2.813,2.815,7.378,0,10.191l-26.251,26.251
		c-2.815,2.814-7.378,2.814-10.193,0l-26.251-26.251c-2.815-2.813-2.815-7.378,0-10.191l26.251-26.253
		C113.571,287.873,118.134,287.873,120.949,290.688z" />
        <path class="skill_path" fill="#ffFFFF" d="M113.001,309h4.578v21.193c-2.349,0.443-4.073,0.624-5.945,0.624c-5.59,0-8.503-2.527-8.503-7.374
		c0-4.667,3.092-7.7,7.878-7.7c0.744,0,1.308,0.06,1.992,0.238V309z M113.001,319.667c-0.498-0.168-1.021-0.249-1.546-0.238
		c-2.319,0-3.656,1.429-3.656,3.925c0,2.438,1.278,3.775,3.627,3.775c0.505,0,0.922-0.029,1.575-0.119V319.667L113.001,319.667z
		 M124.864,316.07v10.611c0,3.657-0.268,5.411-1.07,6.929c-0.743,1.457-1.725,2.379-3.746,3.389l-4.252-2.022
		c2.022-0.949,3.003-1.782,3.627-3.062c0.655-1.308,0.863-2.825,0.863-6.808v-9.038L124.864,316.07L124.864,316.07z
		 M120.286,309.025h4.578v4.695h-4.578V309.025z" />
    </g>
    <g class="svg_skill" data-title="Java" data-info="The markup language to stucture every webpage elements"
        data-stars="4" data-ex="5 years" data-tag="building and structuring">

        <linearGradient class='skills_svg_gradient' id="SVGID_18_" gradientUnits="userSpaceOnUse" x1="363.8301"
            y1="465.6113" x2="-139.1717" y2="666.1075" gradientTransform="matrix(1 0 0 1 182.0801 -207.3203)">
            <stop offset="0" style="stop-color:#A815DE" />
            <stop offset="0.2188" style="stop-color:#7820A6" />
            <stop offset="0.4531" style="stop-color:#AC4FF4" />
            <stop offset="0.7083" style="stop-color:#B21FE2" />
            <stop offset="1" style="stop-color:#D440F2" />
        </linearGradient>
        <path class="bg" fill="url(#SVGID_18_)" d="M391.085,290.688l26.252,26.253c2.813,2.813,2.813,7.378,0,10.191l-26.252,26.251
		c-2.813,2.814-7.377,2.814-10.192,0l-26.252-26.251c-2.813-2.813-2.813-7.379,0-10.191l26.252-26.253
		C383.708,287.873,388.271,287.873,391.085,290.688z" />
        <path class="skill_path" fill="#ffFFFF" stroke="#FFFFFF" stroke-width="0.5" d="M392.025,322.334c0.576-0.393,1.373-0.732,1.373-0.732
		s-2.27,0.41-4.524,0.599c-2.761,0.229-5.726,0.274-7.213,0.076c-3.521-0.47,1.935-1.765,1.935-1.765s-2.115-0.141-4.724,1.113
		C375.796,323.113,386.489,323.793,392.025,322.334z M387.023,320.453c-1.114-2.502-4.871-4.699,0-8.543
		c6.072-4.793,2.959-7.91,2.959-7.91c1.259,4.951-4.432,6.451-6.487,9.527C382.096,315.631,384.182,317.887,387.023,320.453
		L387.023,320.453z M393.736,310.129c0.007,0-10.264,2.566-5.36,8.215c1.447,1.664-0.381,3.164-0.381,3.164s3.674-1.897,1.987-4.271
		C388.404,315.021,387.198,313.92,393.736,310.129L393.736,310.129z M393.38,325.979c-0.032,0.057-0.071,0.107-0.116,0.152
		c7.516-1.975,4.752-6.967,1.159-5.701c-0.194,0.071-0.362,0.2-0.481,0.369c0.211-0.076,0.428-0.135,0.646-0.176
		C396.402,320.242,399.011,323.055,393.38,325.979L393.38,325.979z M396.143,329.629c0,0,0.852,0.697-0.931,1.242
		c-3.394,1.025-14.11,1.336-17.086,0.041c-1.073-0.463,0.937-1.113,1.569-1.248c0.656-0.141,1.037-0.117,1.037-0.117
		c-1.188-0.838-7.692,1.646-3.306,2.355C389.396,333.848,399.249,331.029,396.143,329.629z M383.044,327.203
		c-4.61,1.289,2.808,3.949,8.679,1.436c-0.574-0.223-1.127-0.491-1.654-0.809c-2.617,0.498-3.832,0.533-6.211,0.264
		C381.896,327.871,383.044,327.203,383.044,327.203L383.044,327.203z M393.579,332.898c-4.611,0.866-10.302,0.768-13.67,0.211
		c0-0.007,0.692,0.567,4.241,0.797c5.404,0.346,13.701-0.193,13.894-2.748C398.044,331.158,397.669,332.125,393.579,332.898
		L393.579,332.898z M391.023,324.684c-3.467,0.668-5.479,0.65-8.016,0.388c-1.963-0.205-0.68-1.154-0.68-1.154
		c-5.086,1.688,2.822,3.598,9.932,1.518C391.801,325.271,391.381,325.016,391.023,324.684z" />
    </g>
</svg>