<?xml version="1.0" encoding="utf-8"?>
<!-- Generator: Adobe Illustrator 16.0.0, SVG Export Plug-In . SVG Version: 6.00 Build 0)  -->
<!DOCTYPE svg PUBLIC "-//W3C//DTD SVG 1.1//EN" "http://www.w3.org/Graphics/SVG/1.1/DTD/svg11.dtd">
<svg version="1.1" id="Layer_1" xmlns="http://www.w3.org/2000/svg" xmlns:xlink="http://www.w3.org/1999/xlink" x="0px"
    y="0px" width="132.5px" height="132.5px" viewBox="0 0 132.5 132.5" enable-background="new 0 0 132.5 132.5"
    xml:space="preserve">
    <g>
        <g>
            <path d="M48.203,50.375c-0.208-0.431-0.627-0.595-1.262-0.475c-0.633,0.113-1.047,0.418-1.228,0.922
			c-0.187,0.505-0.278,1.409-0.278,2.723v0.52c0,1.399,0.102,2.299,0.305,2.701c0.21,0.407,0.628,0.549,1.263,0.436
			c0.633-0.113,1.047-0.396,1.234-0.85c0.181-0.452,0.277-1.335,0.277-2.643v-0.696C48.516,51.688,48.407,50.806,48.203,50.375z
			 M48.203,50.375c-0.208-0.431-0.627-0.595-1.262-0.475c-0.633,0.113-1.047,0.418-1.228,0.922
			c-0.187,0.505-0.278,1.409-0.278,2.723v0.52c0,1.399,0.102,2.299,0.305,2.701c0.21,0.407,0.628,0.549,1.263,0.436
			c0.633-0.113,1.047-0.396,1.234-0.85c0.181-0.452,0.277-1.335,0.277-2.643v-0.696C48.516,51.688,48.407,50.806,48.203,50.375z
			 M48.203,50.375c-0.208-0.431-0.627-0.595-1.262-0.475c-0.633,0.113-1.047,0.418-1.228,0.922
			c-0.187,0.505-0.278,1.409-0.278,2.723v0.52c0,1.399,0.102,2.299,0.305,2.701c0.21,0.407,0.628,0.549,1.263,0.436
			c0.633-0.113,1.047-0.396,1.234-0.85c0.181-0.452,0.277-1.335,0.277-2.643v-0.696C48.516,51.688,48.407,50.806,48.203,50.375z
			 M48.203,50.375c-0.208-0.431-0.627-0.595-1.262-0.475c-0.633,0.113-1.047,0.418-1.228,0.922
			c-0.187,0.505-0.278,1.409-0.278,2.723v0.52c0,1.399,0.102,2.299,0.305,2.701c0.21,0.407,0.628,0.549,1.263,0.436
			c0.633-0.113,1.047-0.396,1.234-0.85c0.181-0.452,0.277-1.335,0.277-2.643v-0.696C48.516,51.688,48.407,50.806,48.203,50.375z
			 M21.308,47.138v21.921l86.636-15.537V31.607L21.308,47.138z M37.042,58.045c0.25,0.497,0.656,0.696,1.228,0.594
			c0.572-0.102,1.376-0.385,2.417-0.844l0.555,2.949c-1.126,0.623-2.258,1.035-3.401,1.24c-1.709,0.306-2.955-0.046-3.73-1.054
			c-0.774-1.007-1.165-2.649-1.165-4.918c0-2.276,0.408-4.087,1.217-5.438c0.814-1.348,2.14-2.19,3.979-2.52
			c1.086-0.191,2.116-0.146,3.101,0.136l-0.578,3.458c-1.108-0.175-1.89-0.221-2.332-0.141c-0.628,0.113-1.064,0.469-1.301,1.063
			c-0.244,0.6-0.368,1.539-0.368,2.813C36.664,56.663,36.788,57.552,37.042,58.045z M50.948,57.902
			c-0.826,1.303-2.167,2.117-4.018,2.451c-1.852,0.334-3.187,0-4.002-0.996c-0.81-0.99-1.217-2.688-1.217-5.094
			c0-2.4,0.408-4.217,1.229-5.444c0.82-1.229,2.168-2.01,4.035-2.349c1.869-0.334,3.204-0.04,4.007,0.883
			c0.804,0.922,1.212,2.586,1.212,4.991C52.194,54.745,51.776,56.602,50.948,57.902z M63.141,57.229v-7.013l-0.193,0.034
			l-1.262,7.239l-3.441,0.616l-1.2-6.797l-0.215,0.039v7.013l-3.311,0.595l0.448-13.521l4.81-0.86l1.2,7.052l0.17-0.028l1.154-7.477
			l4.749-0.854l0.446,13.361L63.141,57.229z M72.1,55.622l-3.633,0.65V42.837L72.1,42.18V55.622z M83.883,53.512L80.38,54.14
			l-2.762-5.762l-0.17,0.033v6.255L74.2,55.248V41.807l3.611-0.646l2.632,5.977l0.169-0.034v-6.446l3.271-0.589V53.512z
			 M95.068,51.508l-2.524,0.452l-0.34-0.633l-0.084,0.017c-0.244,0.244-0.436,0.43-0.578,0.555
			c-0.402,0.373-0.961,0.627-1.692,0.758c-2.977,0.537-4.465-1.477-4.465-6.038c0-2.276,0.391-4.093,1.177-5.435
			c0.782-1.347,2.1-2.184,3.957-2.52c1.478-0.265,2.756-0.265,3.826,0.008l-0.578,3.633c-1.369-0.176-2.372-0.204-3.004-0.091
			c-0.635,0.114-1.07,0.47-1.302,1.075c-0.237,0.605-0.357,1.518-0.357,2.74c0,1.216,0.113,2.088,0.334,2.604
			c0.221,0.515,0.673,0.712,1.358,0.588c0.198-0.033,0.583-0.164,1.154-0.379v-1.647l-0.961,0.177v-2.561l4.081-0.729V51.508z
			 M46.941,49.9c-0.633,0.113-1.047,0.418-1.228,0.922c-0.187,0.505-0.278,1.409-0.278,2.723v0.52c0,1.399,0.102,2.299,0.305,2.701
			c0.21,0.407,0.628,0.549,1.263,0.436c0.633-0.113,1.047-0.396,1.234-0.85c0.181-0.452,0.277-1.335,0.277-2.643v-0.696
			c0-1.324-0.108-2.207-0.313-2.638C47.995,49.944,47.576,49.78,46.941,49.9z M48.203,50.375c-0.208-0.431-0.627-0.595-1.262-0.475
			c-0.633,0.113-1.047,0.418-1.228,0.922c-0.187,0.505-0.278,1.409-0.278,2.723v0.52c0,1.399,0.102,2.299,0.305,2.701
			c0.21,0.407,0.628,0.549,1.263,0.436c0.633-0.113,1.047-0.396,1.234-0.85c0.181-0.452,0.277-1.335,0.277-2.643v-0.696
			C48.516,51.688,48.407,50.806,48.203,50.375z M48.203,50.375c-0.208-0.431-0.627-0.595-1.262-0.475
			c-0.633,0.113-1.047,0.418-1.228,0.922c-0.187,0.505-0.278,1.409-0.278,2.723v0.52c0,1.399,0.102,2.299,0.305,2.701
			c0.21,0.407,0.628,0.549,1.263,0.436c0.633-0.113,1.047-0.396,1.234-0.85c0.181-0.452,0.277-1.335,0.277-2.643v-0.696
			C48.516,51.688,48.407,50.806,48.203,50.375z M48.203,50.375c-0.208-0.431-0.627-0.595-1.262-0.475
			c-0.633,0.113-1.047,0.418-1.228,0.922c-0.187,0.505-0.278,1.409-0.278,2.723v0.52c0,1.399,0.102,2.299,0.305,2.701
			c0.21,0.407,0.628,0.549,1.263,0.436c0.633-0.113,1.047-0.396,1.234-0.85c0.181-0.452,0.277-1.335,0.277-2.643v-0.696
			C48.516,51.688,48.407,50.806,48.203,50.375z M48.203,50.375c-0.208-0.431-0.627-0.595-1.262-0.475
			c-0.633,0.113-1.047,0.418-1.228,0.922c-0.187,0.505-0.278,1.409-0.278,2.723v0.52c0,1.399,0.102,2.299,0.305,2.701
			c0.21,0.407,0.628,0.549,1.263,0.436c0.633-0.113,1.047-0.396,1.234-0.85c0.181-0.452,0.277-1.335,0.277-2.643v-0.696
			C48.516,51.688,48.407,50.806,48.203,50.375z" />
            <g>
                <path
                    d="M23.53,72.611c1.511-1.86,3.582-3.025,6.212-3.497c2.629-0.472,5.324-0.69,8.085-0.655l-0.871,7.215
				c-2.878-0.161-4.854-0.145-5.93,0.049c-1.365,0.244-2.048,0.927-2.048,2.043c0,0.441,0.327,0.81,0.98,1.104
				c0.654,0.296,1.446,0.588,2.376,0.875c0.93,0.291,1.859,0.668,2.79,1.133c0.929,0.467,1.721,1.229,2.375,2.288
				c0.654,1.059,0.981,2.353,0.981,3.883c0,2.794-0.742,5.089-2.224,6.884c-1.481,1.795-3.581,2.936-6.298,3.423
				c-2.718,0.487-5.369,0.536-7.956,0.147l0.479-6.66c3.11,0.355,5.275,0.423,6.496,0.204c1.22-0.22,1.831-0.873,1.831-1.961
				c0-0.559-0.327-1.015-0.98-1.368s-1.446-0.683-2.376-0.986c-0.93-0.303-1.867-0.681-2.812-1.128
				c-0.945-0.448-1.743-1.201-2.397-2.262c-0.654-1.059-0.98-2.397-0.98-4.014C21.264,76.709,22.019,74.47,23.53,72.611z" />
                <path d="M42.732,70.095c1.67-2.507,4.409-4.1,8.216-4.783c3.807-0.682,6.532-0.082,8.173,1.8
				c1.642,1.884,2.463,5.271,2.463,10.169c0,4.896-0.843,8.673-2.528,11.327c-1.685,2.656-4.417,4.322-8.194,4.999
				c-3.779,0.679-6.496,0.003-8.151-2.022c-1.657-2.026-2.485-5.488-2.485-10.387C40.226,76.302,41.06,72.599,42.732,70.095z
				 M53.455,73.268c-0.422-0.881-1.279-1.204-2.572-0.973s-2.129,0.859-2.506,1.883s-0.567,2.874-0.567,5.55v1.059
				c0,2.854,0.211,4.689,0.632,5.513c0.421,0.822,1.279,1.115,2.572,0.884c1.293-0.232,2.129-0.807,2.506-1.729
				c0.377-0.921,0.567-2.719,0.567-5.396v-1.411C54.087,75.939,53.876,74.147,53.455,73.268z" />
                <path
                    d="M66.184,65.889c1.67-2.505,4.409-4.1,8.216-4.782c3.807-0.683,6.532-0.082,8.173,1.8
				c1.642,1.883,2.463,5.271,2.463,10.168c0,4.896-0.843,8.675-2.528,11.328c-1.685,2.656-4.418,4.322-8.195,4.998
				c-3.779,0.678-6.495,0.004-8.151-2.022c-1.658-2.026-2.486-5.489-2.486-10.385C63.676,72.096,64.512,68.395,66.184,65.889z
				 M76.906,69.061c-0.421-0.879-1.278-1.203-2.571-0.972c-1.293,0.233-2.129,0.86-2.506,1.883
				c-0.377,1.025-0.567,2.874-0.567,5.551v1.06c0,2.854,0.211,4.689,0.632,5.511c0.421,0.822,1.279,1.116,2.572,0.884
				c1.293-0.231,2.129-0.807,2.506-1.729c0.377-0.92,0.567-2.719,0.567-5.395v-1.412C77.539,71.735,77.328,69.943,76.906,69.061z" />
                <path d="M107.747,82.965l-7.149,1.283l-5.623-11.743l-0.349,0.063v12.75L88,86.506V59.109l7.367-1.321
				l5.362,12.187l0.349-0.063V56.764l6.67-1.195V82.965z" />
            </g>
            <path d="M53.394,101.444l-0.068,0.011l-0.339,2.23l0.747-0.129L53.394,101.444z M53.394,101.444l-0.068,0.011
			l-0.339,2.23l0.747-0.129L53.394,101.444z M53.394,101.444l-0.068,0.011l-0.339,2.23l0.747-0.129L53.394,101.444z M53.394,101.444
			l-0.068,0.011l-0.339,2.23l0.747-0.129L53.394,101.444z M53.394,101.444l-0.068,0.011l-0.339,2.23l0.747-0.129L53.394,101.444z
			 M53.394,101.444l-0.068,0.011l-0.339,2.23l0.747-0.129L53.394,101.444z M33.38,100.165v12.146l62.486-11.2V88.959L33.38,100.165z
			 M46.37,106.561c-0.328,0.402-0.792,0.65-1.392,0.764c-0.605,0.109-1.194,0.113-1.766,0.029l0.107-1.472
			c0.69,0.072,1.171,0.091,1.438,0.039c0.271-0.045,0.408-0.192,0.408-0.43c0-0.126-0.074-0.227-0.216-0.306
			c-0.147-0.079-0.322-0.152-0.526-0.216c-0.209-0.067-0.418-0.151-0.628-0.254c-0.204-0.096-0.385-0.266-0.526-0.498
			c-0.147-0.238-0.221-0.532-0.221-0.888c0-0.584,0.17-1.076,0.503-1.488c0.334-0.416,0.792-0.675,1.376-0.777
			c0.583-0.102,1.182-0.152,1.793-0.147l-0.192,1.603c-0.64-0.039-1.076-0.034-1.319,0.012c-0.299,0.051-0.452,0.204-0.452,0.452
			c0,0.097,0.073,0.177,0.221,0.243c0.141,0.063,0.317,0.131,0.526,0.192c0.204,0.063,0.408,0.147,0.618,0.25
			c0.204,0.106,0.378,0.277,0.526,0.51c0.147,0.231,0.214,0.521,0.214,0.86C46.862,105.655,46.698,106.164,46.37,106.561z
			 M50.932,101.564l-1.121,0.197v4.596l-1.652,0.294v-4.591l-1.188,0.21l0.095-1.488l3.962-0.713L50.932,101.564z M54.095,105.588
			l-0.181-0.923l-1.138,0.204l-0.187,0.99l-1.533,0.277l1.098-6.271l2.456-0.441l1.098,5.874L54.095,105.588z M58.839,102.859v1.879
			l-1.642,0.295v-1.88l-1.41-3.939l1.818-0.321l0.435,1.895l0.074-0.016l0.418-2.049l1.738-0.312L58.839,102.859z M66.208,98.823
			l-1.12,0.198v4.597l-1.648,0.294v-4.591l-1.188,0.21l0.097-1.494l3.956-0.707L66.208,98.823z M71.075,100.64
			c0,0.697-0.186,1.24-0.56,1.626c-0.38,0.384-0.934,0.645-1.665,0.774c-0.73,0.13-1.272,0.073-1.63-0.181
			c-0.362-0.248-0.538-0.725-0.538-1.415v-4.182l1.692-0.302v4.076c0,0.197,0.04,0.345,0.125,0.424
			c0.084,0.085,0.22,0.107,0.407,0.074c0.193-0.034,0.323-0.102,0.397-0.215c0.073-0.108,0.113-0.266,0.113-0.482V96.77l1.657-0.295
			V100.64z M76.305,101.608l-1.584,0.283l-1.246-2.604l-0.079,0.017v2.824l-1.473,0.26v-6.066l1.637-0.295l1.188,2.699l0.074-0.011
			v-2.915l1.482-0.266V101.608z M80.188,97.244v1.291l-1.387,0.25v1.007l1.692-0.306l-0.097,1.387l-3.243,0.582v-6.071l3.34-0.595
			L80.397,96.3l-1.596,0.282v0.912L80.188,97.244z M83.046,100.397l-1.993,0.356v-6.067l2.026-0.368
			c0.883-0.153,1.511-0.017,1.879,0.414c0.374,0.429,0.555,1.12,0.555,2.054C85.514,98.896,84.693,100.104,83.046,100.397z
			 M82.983,95.813l-0.289,0.057v3.188l0.323-0.063c0.339-0.057,0.56-0.221,0.656-0.481c0.101-0.265,0.153-0.685,0.153-1.262
			c0-0.571-0.057-0.973-0.159-1.193C83.561,95.83,83.334,95.75,82.983,95.813z M53.326,101.455l-0.339,2.23l0.747-0.129l-0.34-2.112
			L53.326,101.455z M53.394,101.444l-0.068,0.011l-0.339,2.23l0.747-0.129L53.394,101.444z M53.394,101.444l-0.068,0.011
			l-0.339,2.23l0.747-0.129L53.394,101.444z M53.394,101.444l-0.068,0.011l-0.339,2.23l0.747-0.129L53.394,101.444z M53.394,101.444
			l-0.068,0.011l-0.339,2.23l0.747-0.129L53.394,101.444z M53.394,101.444l-0.068,0.011l-0.339,2.23l0.747-0.129L53.394,101.444z
			 M53.394,101.444l-0.068,0.011l-0.339,2.23l0.747-0.129L53.394,101.444z" />
        </g>
        <polygon points="102.442,28.574 118.632,6.1 129.107,6.862 	" />
        <polygon points="108.853,27.684 126.391,17.498 129.288,24.405 	" />
        <polygon points="30.058,103.808 13.868,126.281 3.393,125.52 	" />
        <polygon points="23.647,104.699 6.109,114.883 3.212,107.977 	" />
        <path d="M10.546,45.26" />
        <g>
            <path d="M14.068,44.285c-0.134,0-0.253-0.097-0.278-0.232c-0.028-0.154,0.075-0.301,0.228-0.33L70.015,33.63
			c0.155-0.029,0.299,0.075,0.328,0.228c0.028,0.153-0.075,0.301-0.228,0.33L14.119,44.28
			C14.102,44.283,14.085,44.285,14.068,44.285z" />
        </g>
        <g>
            <path
                d="M43.59,34.381c-0.134,0-0.253-0.095-0.279-0.232c-0.028-0.154,0.075-0.302,0.228-0.328l55.997-10.096
			c0.157-0.027,0.301,0.075,0.329,0.229c0.028,0.153-0.075,0.3-0.229,0.328L43.64,34.377C43.624,34.38,43.606,34.381,43.59,34.381z" />
        </g>
        <g>
            <path d="M59.397,112.66c-0.134,0-0.253-0.095-0.277-0.232c-0.028-0.153,0.074-0.301,0.227-0.329l55.997-10.093
			c0.154-0.028,0.3,0.074,0.328,0.228c0.027,0.153-0.074,0.3-0.227,0.329l-55.997,10.094
			C59.432,112.659,59.415,112.66,59.397,112.66z" />
        </g>
    </g>
</svg>