<svg xmlns="http://www.w3.org/2000/svg" version="1.1" xmlns:xlink="http://www.w3.org/1999/xlink" xmlns:svgjs="http://svgjs.com/svgjs" width="89" height="67"><svg width="89" height="67" viewBox="0 0 89 67" fill="none" xmlns="http://www.w3.org/2000/svg">
<path fill-rule="evenodd" clip-rule="evenodd" d="M62.348 65.672C54.6031 67.3319 47.6212 65.2898 42.4505 58.8115C41.6332 57.7875 40.9649 56.6194 40.3772 55.4438C39.1236 52.9377 38.0119 50.3584 36.7619 47.8489C34.3028 42.9115 31.7896 38.0007 29.2957 33.08C29.2716 33.032 29.2127 33.002 29.0697 32.8708C27.8642 35.2903 24.1527 42.6436 19.9232 51.0184C19.3415 50.0749 18.6444 49.1698 17.8415 48.361C15.0988 45.6026 11.4666 44.0618 7.61334 44.0618H7.57127C7.17104 44.0618 6.77441 44.1014 6.38019 44.1351C14.9293 27.5957 25.0289 8.15371 28.9796 0.249996C29.0228 0.164661 29.0649 0.0841332 29.1082 0C29.3113 0.364177 29.4579 0.605758 29.5817 0.855754C33.7535 9.27388 37.9169 16.2557 42.0923 24.6715C43.4156 27.3409 44.7414 30.0091 46.0683 32.6773C48.4986 37.5619 51.007 42.4067 53.4564 47.2817C54.6427 49.6446 56.3699 51.1722 59.1535 51.1301C59.6689 51.1218 60.2026 51.0365 60.6919 50.8767C71.7734 47.2698 76.7529 34.1328 70.7891 24.1211C67.2158 18.1248 61.7928 15.203 54.8795 14.9818C54.4901 14.9698 53.9757 14.9626 53.3783 14.9602C52.8663 14.9578 52.2942 14.959 51.6896 14.9614C49.0454 14.715 46.7366 13.3112 45.2751 11.2619L44.0949 8.95069L39.5611 0.072114H42.4733C43.6464 0.072114 44.8206 0.0685086 45.9937 0.0649029C49.0201 0.0540857 52.0477 0.0372592 55.0753 0.0480763C56.5045 0.0528839 57.9142 0.150238 59.2989 0.335331C73.3059 2.20068 84.7504 12.9745 87.4643 27.1798C90.7922 44.6074 79.653 61.9653 62.348 65.672Z" fill="#3bb57c"></path>
<path d="M7.56513 66.1768C3.43803 66.1789 0.0218666 62.7875 0.000112123 58.6684C-0.0224836 54.4506 3.37301 51.0281 7.59133 51.0162C11.7383 51.0037 15.177 54.4574 15.1525 58.6109C15.1285 62.8062 11.7491 66.1756 7.56513 66.1768Z" fill="#3bb57c"></path>
</svg><style>@media (prefers-color-scheme: light) { :root { filter: none; } }
@media (prefers-color-scheme: dark) { :root { filter: none; } }
</style></svg>