<?xml version="1.0" standalone="no"?>
<!DOCTYPE svg PUBLIC "-//W3C//DTD SVG 20010904//EN"
 "http://www.w3.org/TR/2001/REC-SVG-20010904/DTD/svg10.dtd">
<svg version="1.0" xmlns="http://www.w3.org/2000/svg"
 width="712.000000pt" height="712.000000pt" viewBox="0 0 712.000000 712.000000"
 preserveAspectRatio="xMidYMid meet">
<metadata>
Created by potrace 1.14, written by Peter Selinger 2001-2017
</metadata>
<g transform="translate(0.000000,712.000000) scale(0.100000,-0.100000)"
fill="#000000" stroke="none">
<path d="M3372 6233 c-112 -2 -202 -7 -200 -11 36 -84 451 -881 476 -915 71
-98 232 -204 367 -242 43 -12 127 -19 305 -25 256 -9 354 -22 508 -66 509
-147 908 -594 1014 -1138 28 -144 29 -366 4 -511 -23 -126 -81 -306 -134 -411
-99 -198 -268 -400 -442 -530 -96 -71 -258 -159 -370 -199 -230 -82 -445 -10
-578 194 -19 30 -299 579 -622 1220 -323 641 -703 1380 -844 1641 -141 261
-316 591 -389 732 -72 142 -134 258 -137 258 -3 0 -72 -132 -154 -293 -267
-522 -1469 -2852 -1607 -3114 l-59 -111 118 -1 c248 -2 484 -85 688 -242 72
-55 195 -185 240 -254 l38 -57 72 144 c39 78 205 406 367 727 l295 584 21 -34
c32 -52 692 -1375 816 -1634 122 -255 205 -388 319 -512 237 -255 516 -409
851 -470 138 -25 395 -22 560 6 393 69 766 232 1103 482 134 100 398 367 505
510 270 362 438 763 514 1224 26 159 26 613 0 770 -79 471 -241 857 -514 1224
-106 142 -379 417 -516 520 -377 281 -784 449 -1257 517 -93 13 -213 17 -635
18 -286 2 -611 1 -723 -1z"/>
<path d="M480 2145 c-333 -75 -543 -414 -460 -739 29 -113 73 -190 160 -276
84 -85 174 -138 280 -165 96 -25 262 -17 352 18 193 74 338 238 384 433 21 90
14 245 -15 327 -67 190 -215 333 -408 393 -72 22 -216 26 -293 9z"/>
</g>
</svg>
