<?xml version="1.0" standalone="no"?>
<!DOCTYPE svg PUBLIC "-//W3C//DTD SVG 20010904//EN"
 "http://www.w3.org/TR/2001/REC-SVG-20010904/DTD/svg10.dtd">
<svg version="1.0" xmlns="http://www.w3.org/2000/svg"
 width="712.000000pt" height="712.000000pt" viewBox="0 0 712.000000 712.000000"
 preserveAspectRatio="xMidYMid meet">
<metadata>
Created by potrace 1.14, written by Peter Selinger 2001-2017
</metadata>
<g transform="translate(0.000000,712.000000) scale(0.100000,-0.100000)"
fill="#000000" stroke="none">
<path d="M3170 6229 c0 -3 17 -39 38 -80 21 -41 121 -236 222 -434 194 -382
205 -400 260 -456 75 -75 205 -162 259 -173 9 -2 23 -6 31 -9 54 -22 125 -30
270 -33 299 -6 443 -25 615 -82 28 -9 53 -16 57 -17 3 0 10 -3 14 -7 4 -5 16
-8 26 -8 10 0 18 -5 18 -12 0 -6 3 -9 6 -6 9 10 145 -61 237 -125 201 -137
370 -334 488 -567 46 -90 114 -270 103 -270 -3 0 -1 -8 5 -17 33 -63 57 -384
39 -517 -5 -33 -11 -76 -13 -95 -2 -18 -7 -41 -9 -50 -3 -9 -7 -28 -10 -43 -5
-28 -20 -79 -40 -133 -6 -16 -11 -32 -12 -35 -6 -30 -115 -254 -126 -258 -4
-2 -8 -8 -8 -13 0 -8 -56 -90 -105 -154 -75 -98 -284 -276 -400 -339 -27 -16
-54 -31 -60 -35 -20 -15 -162 -72 -222 -90 -202 -61 -409 19 -527 204 -35 54
-187 349 -187 362 0 5 -6 15 -13 23 -6 8 -63 119 -126 245 -63 127 -117 232
-120 235 -3 3 -73 142 -157 310 -449 905 -560 1123 -695 1370 -17 30 -35 61
-41 68 -5 6 -6 12 -2 12 4 0 3 6 -3 13 -11 13 -43 71 -88 157 -16 30 -33 58
-39 62 -5 4 -6 8 -1 8 5 0 4 6 -2 13 -6 7 -24 37 -40 67 -16 30 -46 87 -67
125 -133 247 -203 381 -311 593 -54 105 -101 192 -104 192 -4 0 -57 -100 -119
-222 -138 -273 -339 -665 -436 -853 -148 -285 -249 -483 -299 -580 -28 -55
-54 -102 -57 -105 -4 -3 -10 -16 -14 -30 -4 -14 -11 -29 -15 -35 -5 -5 -41
-73 -80 -150 -160 -310 -213 -411 -222 -422 -6 -7 -7 -13 -3 -13 4 0 3 -6 -3
-12 -9 -12 -34 -60 -217 -413 -43 -82 -110 -213 -150 -290 -40 -77 -102 -197
-137 -266 l-65 -126 91 0 c87 0 148 -5 226 -19 45 -8 52 -10 70 -17 8 -3 38
-12 65 -20 79 -23 180 -72 269 -131 80 -52 92 -62 171 -134 49 -45 133 -145
165 -197 l24 -38 26 54 c15 30 166 329 335 664 170 336 322 638 339 672 18 36
35 59 41 55 8 -6 278 -532 323 -629 7 -15 17 -35 22 -43 15 -27 288 -574 299
-600 6 -14 15 -32 21 -40 5 -8 25 -50 45 -92 230 -508 301 -624 498 -820 70
-71 131 -128 136 -128 4 0 19 -9 32 -20 12 -12 39 -31 59 -42 19 -12 37 -25
40 -29 3 -4 46 -28 97 -53 232 -117 421 -161 693 -160 154 0 214 6 385 40 117
24 380 103 410 124 6 4 21 11 35 15 22 7 194 90 288 140 45 24 285 184 297
198 6 7 30 28 55 47 109 84 266 241 370 370 19 24 40 48 45 54 34 38 162 234
210 321 22 39 43 72 47 73 4 2 8 10 8 18 0 9 10 34 23 57 95 173 217 561 241
767 3 25 8 61 11 80 6 44 16 141 15 158 0 6 0 20 0 30 3 241 -1 335 -14 437
-3 22 -8 60 -11 85 -3 25 -7 56 -10 70 -3 14 -7 34 -9 45 -3 11 -10 43 -16 70
-6 28 -13 57 -15 65 -18 86 -85 286 -136 406 -57 132 -155 320 -185 355 -8 8
-14 19 -14 22 0 8 -77 124 -95 143 -5 7 -19 24 -30 39 -50 70 -65 88 -116 146
-118 135 -258 267 -399 375 -82 63 -216 154 -228 154 -4 0 -17 8 -28 18 -17
15 -227 123 -324 165 -168 75 -520 169 -680 182 -25 2 -65 7 -90 11 -53 8
-1470 12 -1470 3z"/>
<path d="M490 2148 c-50 -12 -65 -16 -65 -18 0 -1 -7 -3 -15 -5 -8 -2 -26 -8
-40 -15 -169 -78 -284 -206 -346 -385 -24 -72 -27 -249 -4 -324 48 -158 127
-268 254 -354 156 -105 358 -129 545 -63 107 38 254 159 297 245 11 20 23 39
27 42 4 3 20 39 34 80 42 118 41 286 -1 404 -13 36 -57 122 -74 145 -87 116
-230 217 -333 235 -18 3 -37 9 -43 12 -16 10 -196 11 -236 1z"/>
</g>
</svg>
